<svg xmlns="http://www.w3.org/2000/svg" width="115" height="115" viewBox="0 0 115 115"><defs><style>.a{fill:#7e6d66;}.b{fill:#fff;}</style></defs><g transform="translate(-635 -48)"><rect class="a" width="115" height="115" transform="translate(635 48)"/><path class="b" d="M0,30a1,1,0,0,1-1-1V0A1,1,0,0,1,0-1,1,1,0,0,1,1,0V29A1,1,0,0,1,0,30Z" transform="translate(682.248 95.247) rotate(-45)"/><path class="b" d="M0,30a1,1,0,0,1-1-1V0A1,1,0,0,1,0-1,1,1,0,0,1,1,0V29A1,1,0,0,1,0,30Z" transform="translate(702.752 95.247) rotate(45)"/></g></svg>