<svg xmlns="http://www.w3.org/2000/svg" width="115" height="115" viewBox="0 0 115 115"><defs><style>.a{fill:#ef8c37;}.b{fill:#fff;}</style></defs><g transform="translate(-635 -48)"><rect class="a" width="115" height="115" transform="translate(635 48)"/><path class="b" d="M30.241,1H0A1,1,0,0,1-1,0,1,1,0,0,1,0-1H30.241a1,1,0,0,1,1,1A1,1,0,0,1,30.241,1Z" transform="translate(677.236 89.632)"/><path class="b" d="M30.241,1H0A1,1,0,0,1-1,0,1,1,0,0,1,0-1H30.241a1,1,0,0,1,1,1A1,1,0,0,1,30.241,1Z" transform="translate(677.236 105.643)"/><path class="b" d="M30.241,1H0A1,1,0,0,1-1,0,1,1,0,0,1,0-1H30.241a1,1,0,0,1,1,1A1,1,0,0,1,30.241,1Z" transform="translate(677.236 121.653)"/></g></svg>