<svg xmlns="http://www.w3.org/2000/svg" width="37" height="37" viewBox="0 0 37 37">
  <g id="グループ_733" data-name="グループ 733" transform="translate(-514 -4078)">
    <path id="楕円形_3" data-name="楕円形 3" d="M18.5,1.2A17.3,17.3,0,0,0,6.267,30.733,17.3,17.3,0,0,0,30.733,6.267,17.187,17.187,0,0,0,18.5,1.2m0-1.2A18.5,18.5,0,1,1,0,18.5,18.5,18.5,0,0,1,18.5,0Z" transform="translate(514 4078)" fill="#f28b24"/>
    <path id="s-7x11_57de2140-3e82-43e7-bd15-7ae31af0517b" d="M1.007,8.883a.75.75,0,0,1-.5-1.307L3.842,4.57.5,1.557A.75.75,0,0,1,1.5.443l3.963,3.57a.75.75,0,0,1,0,1.115L1.509,8.69A.747.747,0,0,1,1.007,8.883Z" transform="translate(530.353 4092.334)" fill="#ef8c37"/>
  </g>
</svg>
