<svg xmlns="http://www.w3.org/2000/svg" width="37" height="37" viewBox="0 0 37 37">
  <g id="グループ_405354" data-name="グループ 405354" transform="translate(-90 -5892)">
    <path id="楕円形_240" data-name="楕円形 240" d="M18.5,2A16.5,16.5,0,0,0,6.833,30.167,16.5,16.5,0,1,0,30.167,6.833,16.392,16.392,0,0,0,18.5,2m0-2A18.5,18.5,0,1,1,0,18.5,18.5,18.5,0,0,1,18.5,0Z" transform="translate(90 5892)" fill="#f28b24"/>
    <path id="s-7x11_57de2140-3e82-43e7-bd15-7ae31af0517b" d="M1.007,9.133A1,1,0,0,1,.338,7.39L3.469,4.57.331,1.743A1,1,0,0,1,1.669.257l3.963,3.57a1,1,0,0,1,0,1.486L1.676,8.876A1,1,0,0,1,1.007,9.133Z" transform="translate(106.352 5906.334)" fill="#ef8c37"/>
  </g>
</svg>
