<svg xmlns="http://www.w3.org/2000/svg" width="396.139" height="222.001" viewBox="0 0 396.139 222.001">
  <g id="logo_footer_sp" transform="translate(24290.07 -90.784)">
    <g id="グループ_405801" data-name="グループ 405801" transform="translate(-1589.07 216.283)">
      <path id="パス_12939" data-name="パス 12939" d="M12.416,163.816a101.761,101.761,0,0,1-8.636,5.452c-.716.4-.756.4-.835.836-.04.278-.2.517-.478.517-.358,0-.637-.4-1.114-1.154a3.387,3.387,0,0,0-.319-.478A5.993,5.993,0,0,1,0,167.079c0-.4.477-.558.8-.677a57,57,0,0,0,9.392-5.532,1.649,1.649,0,0,1,.836-.4c.676,0,1.87,2.069,1.87,2.626a.915.915,0,0,1-.478.717m8.557-21.53c.716,0,1.035-.278,1.075-1.075,0-.4-.08-1.075-.119-1.472,0-.119-.04-.238-.04-.359,0-.438.4-.438.716-.438.6,0,2.985.159,3.622.239.238,0,.676.039.676.4,0,.238-.238.4-.438.518-.478.317-.478.6-.478,1.114-.039.756.4,1.075,1.115,1.075h2.547c1.592,0,3.144-.119,4.7-.119.956,0,.956.438.956,1.91s.04,1.87-.915,1.87c-1.592,0-3.144-.079-4.736-.079H27.1c-.716,0-1.075.278-1.075,1.035,0,.359.04.716.04,1.075,0,1.075-.478,1.035-2.149,1.035-1.472,0-1.95.04-1.95-1,0-.358.04-.716.04-1.074,0-.756-.319-1.075-1.075-1.075H14.446c-.717,0-1.035.319-1.075,1.075a7.93,7.93,0,0,1,.04.995c0,1.035-.438,1.035-2.109,1.035-1.433,0-1.95.04-1.95-.956v-1.074c0-.756-.319-1.075-1.075-1.075H5.77c-1.552,0-3.144.079-4.7.079-.995,0-.915-.438-.915-1.87,0-1.472-.039-1.91.915-1.91,1.552,0,3.144.119,4.7.119H8.317c.756,0,1.035-.278,1.114-1.075-.039-.517-.079-1.035-.159-1.551v-.318c0-.438.359-.478.677-.478.6,0,2.706.159,3.382.2.359.039.915.079.915.438,0,.278-.238.4-.438.517-.438.278-.438.557-.478,1.194a.978.978,0,0,0,1.115,1.075ZM7.083,156.731c-.359,0-.6-.319-.835-.557a47.577,47.577,0,0,0-4.737-4.258c-.238-.2-.557-.439-.557-.757a3.784,3.784,0,0,1,2.229-2.188c.6,0,2.946,2.109,3.5,2.587s2.706,2.427,2.706,3.064c0,.6-1.672,2.109-2.309,2.109m11.939,0c0-.6-.438-.835-.995-.835H17.47a1.6,1.6,0,0,0-1.671.875c-.119.2-.278.438-.438.716-.717,1.154-1.712,2.785-2.309,2.785-.557,0-2.785-1.432-2.785-1.989,0-.239.278-.518.4-.677a36.523,36.523,0,0,0,5.492-9.591c.08-.238.159-.477.478-.477a25.861,25.861,0,0,1,2.945.835c.637.2,1.115.319,1.115.677,0,.4-.438.477-.756.557s-.478.478-.8,1.154c-.079.159-.159.359-.238.558a.921.921,0,0,0-.08.317c0,.438.319.6.717.6H28.1c1.234,0,2.507-.039,3.741-.039.716,0,1.154.278,1.831,1.074a3.358,3.358,0,0,1,.835,1.512c0,.956-1.95,3.5-2.626,4.3-.4.518-1.712,2.269-2.348,2.269-.8,0-2.826-1.313-2.826-2.069,0-.238.557-.716.875-1.035l.2-.2c.319-.319,1.512-1.512,1.512-1.91,0-.278-.4-.238-.557-.238h-4.7c-.477,0-.914.2-.914.756,0,.119.039.2.039.278a18.284,18.284,0,0,0,3.184,6.407,28.532,28.532,0,0,0,5.213,5.292,40.182,40.182,0,0,0,3.422,2.349c.2.119.478.319.478.557,0,.637-1.712,2.745-2.587,2.745-.676,0-3.382-2.069-4.019-2.586a26.648,26.648,0,0,1-6.845-8.317c-.119-.159-.238-.319-.438-.319a.48.48,0,0,0-.438.319c-2.029,4.736-5.731,7.88-10.188,10.227a7.624,7.624,0,0,1-1.592.676c-.835,0-2.348-2.467-2.348-2.945,0-.4.716-.676,1.551-1.075,5.771-2.705,9.551-6.845,10.467-13.291Z" transform="translate(-22701 -123.996)" fill="#ef8c37"/>
      <path id="パス_12940" data-name="パス 12940" d="M62.629,151.116c-.319.04-.676.159-.676.557a.639.639,0,0,0,.119.359,44.1,44.1,0,0,0,12.417,13.331c.317.2.835.518.835.956,0,.8-1.751,2.666-2.627,2.666-.676,0-2.666-1.751-3.223-2.229A52.6,52.6,0,0,1,60.2,155.892a.4.4,0,0,0-.278-.159c-.2,0-.278.2-.278.359v11.381c0,1.95.079,3.9.079,5.85,0,1.273-.438,1.273-2.188,1.273-1.711,0-2.188,0-2.188-1.233,0-1.99.079-3.94.079-5.89v-11.58c0-.159-.039-.359-.238-.359a.4.4,0,0,0-.278.159,40.278,40.278,0,0,1-11.5,12.536,3.206,3.206,0,0,1-1.353.6c-.716,0-2.428-1.91-2.428-2.666,0-.478.478-.8.836-1.035a39.325,39.325,0,0,0,12.5-13.093.966.966,0,0,0,.079-.359c0-.4-.319-.517-.676-.557H45.874c-1.592,0-3.144.079-4.736.079-.995,0-.915-.438-.915-1.949,0-1.552-.04-1.99.915-1.99,1.592,0,3.144.079,4.736.079h8.478c.755,0,1.074-.319,1.074-1.075v-3.5a20.3,20.3,0,0,0-.119-2.826,1.349,1.349,0,0,1-.04-.4c0-.477.319-.557.716-.557.518,0,2.906.239,3.543.319.319.04,1.075.04,1.075.557,0,.278-.239.4-.518.6-.4.319-.438,1-.438,2.229v3.582c0,.756.319,1.075,1.075,1.075h8.4c1.593,0,3.144-.079,4.737-.079.955,0,.915.438.915,1.99,0,1.511.039,1.949-.915,1.949-1.593,0-3.144-.079-4.737-.079Z" transform="translate(-22699.912 -123.993)" fill="#ef8c37"/>
      <path id="パス_12941" data-name="パス 12941" d="M98.709,141.168c1.075.319,1.711.438,1.711.835,0,.239-.238.4-.4.518-.518.319-.637.517-.875,1.472-.04.238-.239,1.075-.239,1.234a.579.579,0,0,0,.558.6,3.17,3.17,0,0,0,.6-.12,31.476,31.476,0,0,0,4.7-1.313,1.92,1.92,0,0,1,.677-.2c.955,0,1.273,3.025,1.273,3.184,0,.756-.955.915-1.95,1.115-1.551.358-4.019.835-5.611,1.075-.915.158-1.075,1.154-1.075,1.592,0,.358.359.518.637.518.079,0,.2-.04.319-.04.8-.08,1.791-.2,2.586-.2,6.169,0,11.7,3.144,11.7,9.949,0,9.034-11.263,12.457-12.576,12.457-.875,0-1.831-2.428-1.831-3.184,0-.438.438-.477.876-.6,4.179-1.114,9.312-3.5,9.312-8.517,0-4.417-3.5-5.691-3.979-5.691-.6,0-.836.518-1.075,1a35.883,35.883,0,0,1-5.333,7.6,1.036,1.036,0,0,0-.4.8c0,.12.2,1.274.239,1.473v.2c0,.756-2.149,2.109-3.025,2.109a.718.718,0,0,1-.676-.557c-.08-.2-.159-.4-.438-.4a.975.975,0,0,0-.438.16,11.43,11.43,0,0,1-5.89,2.148,4.443,4.443,0,0,1-4.5-4.776c0-5.293,5.054-10.148,9.551-12.3.239-.12,1.154-.319,1.154-2.229a.627.627,0,0,0-.676-.677c-.159,0-.716.08-.875.08-1.472.119-2.946.317-4.418.317-1.751,0-1.989,0-1.989-1.87,0-1.99.238-2.109.955-2.109.677,0,1.353.04,2.069.04,1.353,0,2.706-.04,4.059-.159a1.532,1.532,0,0,0,1.075-.359,1.564,1.564,0,0,0,.4-1.075c.2-1.392.359-2.785.558-4.218.039-.359.2-.637.636-.637.278,0,2.19.637,2.627.756m-11.1,23.957c0,.756.359,1.194,1.115,1.194,1.392,0,3.7-1.392,4.776-2.229a1.443,1.443,0,0,0,.478-1.234c0-.358-.12-2.029-.12-3.263,0-.4.04-.8.04-1.154s-.079-.677-.478-.677c-.835,0-5.81,4.14-5.81,7.363m10.467-9.63c-.438.278-.4,1.075-.4,1.95v.478c0,.636.04,1.592.4,1.592.676,0,2.149-2.866,2.468-3.5a1.768,1.768,0,0,0,.238-.636c0-.278-.278-.359-.518-.359a5.677,5.677,0,0,0-2.188.478" transform="translate(-22698.705 -123.953)" fill="#ef8c37"/>
      <path id="パス_12942" data-name="パス 12942" d="M134.071,140.818c.875,1.512,1.632,3.065,2.468,4.616a1.164,1.164,0,0,0,1.074.756c.756,0,3.582-1.672,4.338-2.148a2.359,2.359,0,0,1,1.075-.478c.8,0,2.547,2.388,2.547,3.1,0,.438-.677.756-1.194,1.035a30.816,30.816,0,0,1-3.661,1.712c-.518.2-1.314.358-1.314,1.074a3.079,3.079,0,0,0,.677,1.512,45.638,45.638,0,0,0,5.77,8.756,1.878,1.878,0,0,1,.636,1.114c0,.875-1.989,2.626-2.824,2.626-.438,0-1.035-.517-1.512-.835-1.95-1.353-6.01-3.343-9.432-3.343-2.069,0-4.258,1.234-4.258,3.543,0,4.1,6.089,4.935,9.153,4.935.915,0,1.712-.08,2.229-.08.8,0,.915.557.915,1.274a7.382,7.382,0,0,1-.4,2.427c-.2.518-.518.677-1.353.677a30.508,30.508,0,0,1-6.845-.915c-4.139-1.035-7.88-3.422-7.88-8.119,0-4.736,3.939-7.6,8.4-7.6a12.63,12.63,0,0,1,4.975,1.155,1.429,1.429,0,0,0,.438.119.4.4,0,0,0,.438-.359,1.576,1.576,0,0,0-.238-.6c-.875-1.353-1.512-2.428-2.309-3.86-.358-.637-.637-1.393-1.512-1.393a2.426,2.426,0,0,0-.517.12,55.42,55.42,0,0,1-9.432,1.512c-.875,0-1.075-.319-1.432-1.433a7.709,7.709,0,0,1-.478-2.109c0-.637.438-.676.956-.716a44.282,44.282,0,0,0,7.959-.875c.438-.119.956-.239.956-.8,0-.6-2.468-4.179-2.985-4.855a1.314,1.314,0,0,1-.278-.637c0-.8,3.3-1.632,3.86-1.632s.756.278.995.716" transform="translate(-22697.633 -123.962)" fill="#ef8c37"/>
      <path id="パス_12943" data-name="パス 12943" d="M171.052,144.913c0,.438-.836,1.075-1.155,1.353a27.987,27.987,0,0,0-5.133,6.486,18.635,18.635,0,0,0-2.906,9.472c0,3.542,1.633,6.129,5.413,6.129A8.425,8.425,0,0,0,174,164.97c2.188-2.944,2.587-7.68,2.587-11.262a25.486,25.486,0,0,0-1.751-10.068,1.4,1.4,0,0,1-.12-.558c0-.875,2.906-1.392,3.662-1.392.954,0,.995.6,1.114,1.353a27.046,27.046,0,0,0,5.81,11.58c.278.319.717.8.717,1.234,0,.875-2.706,2.148-3.224,2.148-.676,0-1.393-1.592-1.672-2.148-.119-.318-.676-1.593-.995-1.593-.278,0-.278.319-.278.518,0,.637.079,1.234.079,1.831a22.161,22.161,0,0,1-1.87,9.233,11.819,11.819,0,0,1-10.666,6.526c-5.849,0-9.551-4.019-9.551-9.79,0-4.259,1.472-7.681,3.582-11.342a.986.986,0,0,0,.159-.359.266.266,0,0,0-.278-.238,7.594,7.594,0,0,0-1.313.478,9.2,9.2,0,0,1-1.831.636c-.438,0-.676-.517-.835-.835a10.87,10.87,0,0,1-1.035-3.224c0-.517.359-.557,1.194-.636a21.774,21.774,0,0,0,6.208-1.234,5.668,5.668,0,0,0,2.985-2.785c.239-.4.478-.956,1-.956,1.035,0,3.382,1.95,3.382,2.826" transform="translate(-22696.709 -123.918)" fill="#ef8c37"/>
      <path id="パス_12944" data-name="パス 12944" d="M200.646,155.3c-.319,0-.756-.439-1.035-.637a49.782,49.782,0,0,0-4.378-3.224c-.477-.317-.8-.438-.8-.8,0-.6,1.432-2.587,2.109-2.587.517,0,2.9,1.712,3.463,2.149.517.4,2.785,1.95,2.785,2.547,0,.477-1.313,2.547-2.149,2.547M198.9,171.413a2.5,2.5,0,0,0-.478,1.115c0,.278.119.6.119.875a.486.486,0,0,1-.438.518,8.2,8.2,0,0,1-1.91-1.314c-.4-.317-1.712-1.352-1.712-1.711,0-.278.319-.637.478-.875,2.19-2.706,5.094-8.238,6.566-11.422.119-.358.239-.6.518-.6.358,0,2.785,1.433,2.785,2.19,0,.915-5.133,9.87-5.929,11.222m3.422-24.873a4.816,4.816,0,0,1-1.593-1.035,37.065,37.065,0,0,0-3.741-2.666c-.4-.238-.715-.4-.715-.756,0-.4,1.432-2.587,2.188-2.587.6,0,2.428,1.433,2.985,1.871.636.438,2.148,1.551,2.706,1.99a1.008,1.008,0,0,1,.4.676c0,.438-1.353,2.507-2.229,2.507m20.256,20.655a2.978,2.978,0,0,0-.438-.956,27.576,27.576,0,0,1-1.87-3.422c0-.756,2.626-1.592,3.144-1.592a.821.821,0,0,1,.676.4,33.871,33.871,0,0,1,2.348,3.82c.557,1.075,3.343,6.647,3.343,7.482s-2.587,1.752-3.223,1.752c-.558,0-.677-.359-1.115-1.433-.119-.318-.319-.8-.518-1.273a1.159,1.159,0,0,0-1.154-.836h-.278c-5.691.756-11.342,1.194-17.033,1.672-.2,0-.318.08-.517.518-.159.278-.239.517-.6.517-.518,0-.637-.438-.956-1.551a18.735,18.735,0,0,1-.676-2.666c0-.6.438-.6,1.472-.6a13.4,13.4,0,0,0,1.791-.08,1.5,1.5,0,0,0,1.472-.915c1.552-2.945,2.745-5.292,4.1-8.357a.667.667,0,0,0,.119-.4c0-.438-.358-.6-.755-.637h-1.393c-1.552,0-3.1.08-4.656.08-1.035,0-.995-.4-.995-1.831,0-1.472-.04-1.87.995-1.87,1.552,0,3.1.079,4.656.079h3.5c.8,0,1.114-.319,1.114-1.115v-3.661c0-.8-.318-1.115-1.114-1.115h-2.667c-1.392,0-2.826.12-4.218.12-.875,0-.836-.518-.836-1.871,0-1.432-.079-1.95.836-1.95,1.154,0,2.745.08,4.218.08h2.667c.8,0,1.114-.319,1.114-1.115v-1.592a22.765,22.765,0,0,0-.119-2.946,1.343,1.343,0,0,1-.04-.4c0-.478.318-.557.716-.557.558,0,2.945.238,3.622.318.318.039.875.079.875.517,0,.278-.238.4-.517.6-.4.319-.439.875-.439,2.069v1.99c0,.8.319,1.115,1.115,1.115h3.263c1.472,0,3.1-.08,4.219-.08.875,0,.835.438.835,1.91,0,1.433.04,1.911-.8,1.911-1.433,0-2.826-.12-4.259-.12h-3.263c-.8,0-1.115.318-1.115,1.115v3.661c0,.8.319,1.115,1.115,1.115h3.9c1.551,0,3.1-.079,4.656-.079,1.035,0,.995.437.995,1.87s.04,1.831-.995,1.831c-1.552,0-3.1-.08-4.656-.08H217.2c-.04,0-.119.04-.119.08s.04.079.079.119c.359.159.915.4.915.756,0,.4-.517.438-.8.438-.238.039-.437.079-.557.319-1.273,2.467-2.547,4.975-3.939,7.4-.04.119-.12.2-.12.318,0,.4.319.517.637.517,2.866-.2,5.731-.437,8.6-.755.358-.04.676-.239.676-.637" transform="translate(-22695.662 -123.993)" fill="#ef8c37"/>
      <path id="パス_12945" data-name="パス 12945" d="M253.5,148.489c.637,0,.954-.278.954-.915v-.518c0-.636-.278-.954-.954-.954h-2.229c-1.154,0-2.309.079-3.5.079-.876,0-.876-.319-.876-1.711,0-1.313,0-1.712.836-1.712,1.194,0,2.388.08,3.542.08h2.069c.677,0,1.035-.239,1.075-1,0-.6-.08-1.313-.119-1.91,0-.119-.04-.278-.04-.4,0-.478.359-.518.716-.518.875,0,2.507.119,3.422.159.359.04,1.035.04,1.035.518,0,.278-.238.358-.517.557-.438.359-.438.8-.478,1.512.04.8.358,1.075,1.114,1.075h2.229c.836,0,1.672-.08,2.547-.08,1.393,0,1.99.4,1.99,1.871,0,.915-.079,1.83-.04,2.745,0,.756.279,1.075,1.035,1.075.439,0,.875-.04,1.353-.04,1,0,.956.478.956,1.752,0,1.234.04,1.711-.956,1.711-.478,0-.914-.04-1.353-.04-.755.04-1.035.359-1.035,1.115-.039.915.04,1.871.04,2.826,0,1.432-.557,1.831-1.95,1.831-.875,0-1.751-.04-2.587-.04h-2.387c-.677,0-.956.278-.956.956v.278c0,.676.278.955.956.955h2.984c1.472,0,2.946-.079,4.458-.079.915,0,.915.438.915,1.751,0,1.353,0,1.752-.956,1.752-1.472,0-2.946-.12-4.418-.12h-2.984c-.677,0-.956.278-.956.956v.358c0,.677.278.956.956.956H264.2c1.433,0,2.906-.08,4.378-.08.995,0,.954.479.954,1.752s.04,1.751-.954,1.751c-1.472,0-2.945-.08-4.378-.08h-4.656c-.716,0-1.074.279-1.074,1-.04,1.313.079,2.587.079,3.86,0,1.194-.438,1.234-2.069,1.234-1.751,0-2.149-.04-2.149-1.274,0-1.273.119-2.547.08-3.82,0-.716-.4-1-1.075-1h-4.019c-1.472,0-2.945.08-4.417.08-.956,0-.956-.478-.956-1.751,0-1.313,0-1.752.956-1.752,1.472,0,2.945.08,4.417.08H253.5c.637,0,.954-.278.954-.956v-.358c0-.677-.317-.956-.954-.956h-2.468c-1.472,0-2.945.12-4.417.12-.995,0-.955-.518-.955-1.752,0-1.273,0-1.751.955-1.751,1.472,0,2.945.079,4.417.079H253.5c.637,0,.954-.278.954-.955v-.278c0-.677-.317-.956-.954-.956h-2.229c-1.154,0-2.309.08-3.5.08-.876,0-.876-.359-.876-1.752s0-1.791.836-1.791c1.194,0,2.388.08,3.542.08H253.5c.637,0,.954-.278.954-.915v-.518c0-.676-.278-.954-.954-.954h-2.149c-1.472,0-2.945.079-4.417.079-.875,0-.956-.358-.956-1.512a.5.5,0,0,1,.04-.238.266.266,0,0,0-.278-.2h-.079c-.518.12-.677.159-1.155,1.075-.637,1.154-1.671,2.785-2.388,3.9-.079.079-.079.119-.079.238,0,.2.159.279.319.319.319.04.954.04.954.6,0,.278-.2.359-.517.518-.4.238-.438.716-.438,1.791v10.346c0,1.593.079,3.184.079,4.737,0,1.194-.4,1.233-2.029,1.233s-2.069-.039-2.069-1.233c0-1.552.079-3.144.079-4.737v-7.8c0-.239-.079-.478-.358-.478a.41.41,0,0,0-.319.159c-.359.4-1.274,1.432-1.791,1.432-.637,0-2.428-1.751-2.428-2.428,0-.358.358-.676.6-.915a42.274,42.274,0,0,0,7.442-10.306c.159-.359.278-.677.676-.677a24.907,24.907,0,0,1,3.423,1.313c.079,0,.119.04.158.04a.3.3,0,0,0,.279-.238c.159-.359.517-.4.875-.4,1.472,0,2.9.08,4.377.08Zm-9.352-7.323c-.478.079-.558.159-.915.756-.8,1.353-5.731,8.636-7,8.636-.6,0-2.428-1.512-2.428-2.229,0-.4.358-.676.676-.995a37.011,37.011,0,0,0,5.771-7.8c.119-.239.238-.518.557-.518a16.041,16.041,0,0,1,2.666.875c.677.239,1.274.4,1.274.8,0,.319-.359.438-.6.478m17.51,7.323a.857.857,0,0,0,.915-.915v-.518a.888.888,0,0,0-.915-.954h-2.268a.919.919,0,0,0-.956.954v.518a.888.888,0,0,0,.956.915Zm-3.223,4.776a.888.888,0,0,0,.956.915h2.268a.857.857,0,0,0,.915-.915v-.518a.888.888,0,0,0-.915-.954h-2.268a.919.919,0,0,0-.956.954Z" transform="translate(-22694.588 -123.991)" fill="#ef8c37"/>
      <path id="パス_12946" data-name="パス 12946" d="M304.63,160.788c.875-.04,1.712-.04,2.547-.04s.8.478.8,1.314c0,.915,0,1.352-.8,1.352-.835,0-1.672-.039-2.507-.039a.934.934,0,0,0-1.075,1.075v.517c0,1.035.119,2.069.119,2.826,0,.956-.637.915-2.308.915-1.195,0-1.752,0-1.95-.478-.159-.278-.278-.478-.637-.478h-5.174c-.755,0-1.034.278-1.074,1.035.04.4.04,1.433.04,1.831,0,3.86-4.1,3.94-7.005,3.94-1.114,0-2.427.2-2.427-2.946,0-.557.159-.914.756-.914.517,0,1.273.158,2.229.158,1.989,0,2.148-.517,2.229-2.069-.08-.756-.359-1.035-1.115-1.035h-5.85c-1.592,0-3.223.08-4.855.08-.915,0-.956-.319-.956-1.432s.04-1.393.956-1.393c1.632,0,3.263.039,4.855.039h6.209c.517,0,.756-.2.756-.716v-.238a.658.658,0,0,0-.756-.756h-8.954c-1.672,0-3.382.079-5.094.079-.8,0-.756-.517-.756-1.352s-.04-1.314.8-1.314c1.672,0,3.382.04,5.054.04h8.954c.517,0,.756-.2.756-.716v-.2a.659.659,0,0,0-.756-.756h-8.2c-.995,0-1.99.08-2.985.08-.716,0-.716-.359-.716-1.433,0-1.035,0-1.392.676-1.392.995,0,2.03.079,3.025.079h8.2a.658.658,0,0,0,.756-.756v-.2a.658.658,0,0,0-.756-.756h-3.3c-1.194,0-2.388.039-3.582.039-.915,0-2.269-.079-2.269-1.273,0-.4.08-.756.08-1.432v-2.149c0-.676-.08-1.035-.08-1.433,0-1.233,1.353-1.313,2.269-1.313,1.194,0,2.388.08,3.582.08h3.3a.659.659,0,0,0,.756-.756v-.239c0-.557-.239-.756-.756-.756h-8.119c-1.632,0-3.263.08-4.935.08-.875,0-.875-.438-.875-1.552s0-1.512.875-1.512c1.632,0,3.3.08,4.935.08h7.76c.756,0,1.035-.278,1.115-1.075-.04-.557-.08-1.114-.159-1.672,0-.119-.04-.278-.04-.358,0-.478.319-.558.716-.558.518,0,2.826.239,3.463.318.4.04,1.075.04,1.075.518,0,.238-.2.358-.478.557a1.241,1.241,0,0,0-.4,1.154c0,.8.319,1.115,1.074,1.115h7.721c1.671,0,3.3-.08,4.935-.08.915,0,.875.438.875,1.512s.04,1.552-.875,1.552c-1.632,0-3.3-.08-4.935-.08h-8.079c-.518,0-.756.2-.756.756v.239c0,.517.2.756.756.756h3.3c1.194,0,2.388-.08,3.582-.08.915,0,2.269.08,2.269,1.313,0,.4-.08.757-.08,1.433v2.149c0,.676.08,1.034.08,1.432,0,1.194-1.314,1.273-2.23,1.273-1.193,0-2.387-.039-3.621-.039h-3.3c-.518,0-.756.2-.756.756v.2c0,.518.2.756.756.756h5.373c1.075,0,2.148-.079,3.223-.079,1.154,0,1.791.358,1.791,1.592,0,.6-.079,1.194-.079,1.751.039.717.358,1.035,1.035,1.075m-21.212-10.864a.919.919,0,0,0-.955.954v.239a.92.92,0,0,0,.955.956h4.019a.921.921,0,0,0,.956-.956v-.239a.92.92,0,0,0-.956-.954Zm9.114,1.194a.921.921,0,0,0,.956.956h4.019a.92.92,0,0,0,.955-.956v-.239a.919.919,0,0,0-.955-.954h-4.019a.92.92,0,0,0-.956.954Zm0,8.914a.71.71,0,0,0,.756.756H298.7a.71.71,0,0,0,.756-.756v-.159a.783.783,0,0,0-.756-.756h-5.413a.783.783,0,0,0-.756.756Zm.756,3.3a.783.783,0,0,0-.756.756v.2a.71.71,0,0,0,.756.755H298.7a.71.71,0,0,0,.756-.755v-.2a.783.783,0,0,0-.756-.756Z" transform="translate(-22693.51 -123.994)" fill="#ef8c37"/>
      <path id="パス_12947" data-name="パス 12947" d="M326.421,159.362c-.278.4-.518.875-.915.875-.6,0-2.348-.835-2.348-1.512,0-.278.278-.557.478-.8a7.155,7.155,0,0,0,1.313-2.229c0-.439-.557-.4-.836-.4H323.6c-.637,0-.915.278-.915.956v11.859c0,.8.04,1.593.04,2.388,0,3.5-2.785,3.86-5.651,3.86-.8,0-1.99.159-1.99-2.9,0-.518.119-.915.716-.915.438,0,1,.08,1.552.08,1.87,0,1.791-.637,1.791-2.389v-6.964c0-.159-.04-.278-.2-.278-.119,0-.159.04-.238.159a28.724,28.724,0,0,1-3.94,6.607c-.2.238-.716.954-1.075.954-.676,0-2.268-1.672-2.268-2.308,0-.279.238-.478.4-.637a33.36,33.36,0,0,0,5.929-9.471.938.938,0,0,0,.08-.318c0-.518-.359-.637-.756-.677h-.995c-1.115,0-2.19.08-3.264.08-.8,0-.835-.4-.835-1.712,0-1.353.04-1.711.835-1.711,1.075,0,2.149.039,3.264.039h3.5c.278,0,.557-.119.557-.438a.587.587,0,0,0-.159-.358,28.866,28.866,0,0,0-3.661-3.662c-.2-.2-.677-.557-.677-.915,0-.557,1.712-2.029,2.428-2.029a2.2,2.2,0,0,1,1.353.875c.238.238.756.676,1.075.676a1.3,1.3,0,0,0,.756-.317c.358-.319,2.029-1.752,2.029-2.149,0-.359-.6-.319-.835-.319h-5.015c-1.233,0-2.666.08-3.5.08-.875,0-.875-.359-.875-1.712,0-1.313,0-1.712.875-1.712,1.154,0,2.348.08,3.5.08h6.686c.717,0,1.433-.04,2.149-.04a1.633,1.633,0,0,1,1.553.756,3.37,3.37,0,0,1,.995,1.791c0,1.075-4.457,4.656-5.413,5.413a.943.943,0,0,0-.438.756,1.132,1.132,0,0,0,.278.677c.239.278.956,1.034.956,1.352a1.137,1.137,0,0,1-.438.756.219.219,0,0,0-.119.2c0,.2.159.238.318.238.358,0,2.189-.039,2.427-.039a3.092,3.092,0,0,1,2.587,1.83c.04.2.159.518.438.518h.159a26.882,26.882,0,0,0,4.537-2.269.831.831,0,0,0,.477-.716.929.929,0,0,0-.278-.676,16.669,16.669,0,0,1-1.392-1.911.791.791,0,0,0-.637-.4.778.778,0,0,0-.6.278c-.518.637-1.472,1.791-2.069,1.791-.677,0-2.349-1.551-2.349-2.149,0-.238.2-.4.359-.557a24.3,24.3,0,0,0,5.532-8.4c.079-.238.238-.6.557-.6a10.6,10.6,0,0,1,1.393.4c.995.278,2.507.676,2.507,1.154,0,.319-.478.438-.756.478-.359.079-.478.278-.637.676a.724.724,0,0,0-.079.4c0,.438.358.557.716.6h5.174c1.432,0,2.826-.08,4.218-.08.875,0,.875.319.875,1.712s-.039,1.711-.875,1.711-2.109-.04-2.985-.079c-.119.039-.159.079-.159.2,0,.08.04.12.12.159.557.239,1.273.478,1.273.875,0,.279-.319.359-.557.4-.558.159-.558.159-.876.676a25.122,25.122,0,0,1-1.989,2.627,1.021,1.021,0,0,0-.278.636.873.873,0,0,0,.438.717,25.331,25.331,0,0,0,5.014,2.427c.518.2,1.035.359,1.035.756,0,.756-1.154,3.025-1.99,3.025a4.007,4.007,0,0,1-1.114-.359,28.044,28.044,0,0,1-5.81-3.3,1.357,1.357,0,0,0-.756-.279,1.246,1.246,0,0,0-.835.279c-1.115.8-5.691,3.582-6.925,3.582-.637,0-.995-.836-1.233-1.314-.08-.158-.16-.278-.359-.278a.384.384,0,0,0-.359.238c-.079.2-1.313,2.349-1.472,2.627m11.421,4.019a1.231,1.231,0,0,0-1.392.956,17.95,17.95,0,0,1-4.895,7.72c-.637.6-2.309,2.188-3.144,2.188-.875,0-2.547-1.831-2.547-2.626,0-.359.358-.518.716-.716a14.089,14.089,0,0,0,5.929-6.527,1.152,1.152,0,0,0,.08-.358c0-.478-.4-.6-.8-.637-.358,0-2.587.08-2.945.08-.875,0-.836-.439-.836-1.752,0-1.472-.039-1.791.915-1.791,1.194,0,2.388.12,3.542.08a1.026,1.026,0,0,0,1.194-1.035c0-.359.04-.677.04-.915,0-1.115,0-1.393.6-1.393a33.238,33.238,0,0,1,3.343.4c.319.04.8.12.8.439,0,.278-.4.438-.6.557-.278.159-.317.278-.358.6v.278c0,.716.278,1.075.995,1.075h.557c1.552,0,2.786-.08,3.741-.08,1.871,0,2.627.278,2.627,1.95a48.069,48.069,0,0,1-1.393,9.551c-.875,2.906-3.064,3.065-5.73,3.065-1.632,0-2.309.079-2.309-2.746,0-.557,0-1.154.677-1.154a3.187,3.187,0,0,1,.6.04c.439.039.876.079,1.354.079,1.154,0,1.631-.159,1.949-1.353a28.118,28.118,0,0,0,.756-5.094c0-.956-.517-.875-1.99-.875Zm2.03-17.152c0-.4-.359-.518-.716-.557h-3.025c-.359.039-.676.119-.676.557a.636.636,0,0,0,.119.358,10.554,10.554,0,0,0,1.392,1.831.923.923,0,0,0,.756.359.9.9,0,0,0,.716-.359,11.487,11.487,0,0,0,1.314-1.791.771.771,0,0,0,.119-.4" transform="translate(-22692.449 -124)" fill="#ef8c37"/>
      <path id="パス_12948" data-name="パス 12948" d="M354.953,172.792c-.477,1.155-.676,1.353-1.154,1.353-.517,0-3.223-.995-3.223-1.79a2.48,2.48,0,0,1,.278-.757c2.149-4.615,2.666-10.028,2.666-15.043v-4.338c0-.995-.04-1.989-.04-2.984,0-1.433.8-1.712,2.069-1.712.956,0,1.95.079,2.946.079h3.422c.995,0,1.95-.079,2.945-.079,1.274,0,2.069.278,2.069,1.712,0,.995-.04,1.989-.04,2.984v4.737c0,1.233.08,2.427.08,3.621,0,.956-.438.956-2.03.956-1.273,0-1.551,0-1.83-.278-.239-.278-.518-.637-.875-.677h-3.781c-.756,0-1.075.319-1.154,1.075a35.722,35.722,0,0,1-2.349,11.143m1.712-28.533c-1.273,0-2.587.079-3.86.079-1,0-1-.6-1-2.029,0-1.393,0-2.029,1-2.029,1.273,0,2.587.119,3.86.119h6.566c1.274,0,2.587-.119,3.86-.119,1.035,0,.995.676.995,2.029,0,1.393.04,2.029-.995,2.029-1.273,0-2.586-.079-3.86-.079Zm6.367,8.277c0-.8-.319-1.114-1.114-1.114h-3.382c-.757,0-1.076.318-1.076,1.114v3.3c0,.8.318,1.115,1.076,1.115h3.382c.8,0,1.114-.318,1.114-1.115Zm11.541-2.308c0,.8.319,1.114,1.114,1.114h5.134c1.552,0,3.144-.079,4.736-.079,1.035,0,.956.4.956,1.99,0,1.551.04,1.95-.956,1.95-.557,0-1.472-.04-2.029-.08-.8.08-1.075.319-1.075,1.075v11.7c0,1.752.119,3.5.119,5.253,0,1.313-.438,1.313-2.108,1.313s-2.149,0-2.149-1.313c0-1.751.119-3.5.119-5.253V156.2c0-.756-.319-1.115-1.114-1.115h-1.633c-.756,0-1.035.278-1.154,1.075a33.78,33.78,0,0,1-3.1,13.492,15.8,15.8,0,0,1-2.388,3.741,1.189,1.189,0,0,1-.915.438c-.835,0-3.064-1.036-3.064-1.791,0-.278.319-.557.477-.756a20.846,20.846,0,0,0,3.025-4.816c1.593-3.7,1.95-8.6,1.95-12.576V143.7c0-1.792,1.553-1.792,2.587-1.871,2.666-.238,7.561-.995,9.909-2.229a.983.983,0,0,1,.478-.159c.637,0,1.512,1.234,1.91,1.751.438.558,1.075,1.353,1.075,1.712a.53.53,0,0,1-.557.478.949.949,0,0,1-.557-.2,1.684,1.684,0,0,0-.6-.159,4.554,4.554,0,0,0-1,.238,48.7,48.7,0,0,1-7.76,1.632c-1.233.159-1.432.2-1.432,1.593Z" transform="translate(-22691.375 -123.98)" fill="#ef8c37"/>
    </g>
    <g id="グループ_405802" data-name="グループ 405802" transform="translate(-1566.477 224.283)">
      <rect id="長方形_47397" data-name="長方形 47397" width="1.472" height="13.73" transform="translate(-22644.592 74.575)" fill="#aa7f54"/>
      <path id="パス_12919" data-name="パス 12919" d="M64.205,198.6h1.373v5.688a3.413,3.413,0,0,1,.8-.784,4.017,4.017,0,0,1,2.432-.785,4.913,4.913,0,0,1,0,9.808,4.017,4.017,0,0,1-2.432-.785,3.413,3.413,0,0,1-.8-.784v1.373H64.205Zm7.846,9.023A3.369,3.369,0,0,0,68.815,204a3.652,3.652,0,0,0,0,7.257,3.369,3.369,0,0,0,3.236-3.628" transform="translate(-22702.031 -124.03)" fill="#aa7f54"/>
      <path id="パス_12920" data-name="パス 12920" d="M85.045,211.688a3.355,3.355,0,0,1-.745.745A3.885,3.885,0,0,1,82,213.16a3.105,3.105,0,0,1-3.334-2.746c0-1.57.96-2.55,2.747-2.844l3.628-.589a2.244,2.244,0,0,0-2.354-2.353,3.232,3.232,0,0,0-1.942.687,5.852,5.852,0,0,0-.705.685l-.882-.882a4.386,4.386,0,0,1,.921-.882,4.265,4.265,0,0,1,2.609-.883,3.585,3.585,0,0,1,3.727,3.628v5.983H85.045Zm0-3.53-3.236.588c-1.177.216-1.765.785-1.765,1.668,0,.784.686,1.471,1.961,1.471a2.941,2.941,0,0,0,3.04-3.138Z" transform="translate(-22703.947 -124.658)" fill="#aa7f54"/>
      <path id="パス_12921" data-name="パス 12921" d="M93.021,203.549h1.373v1.275a4.493,4.493,0,0,1,.764-.726,3.951,3.951,0,0,1,2.373-.745h.393v1.373h-.59a2.913,2.913,0,0,0-2.94,3.04v5.2H93.021Z" transform="translate(-22705.846 -124.658)" fill="#aa7f54"/>
      <path id="パス_12922" data-name="パス 12922" d="M108.21,211.688a3.355,3.355,0,0,1-.745.745,3.885,3.885,0,0,1-2.295.726,3.105,3.105,0,0,1-3.334-2.746c0-1.57.96-2.55,2.747-2.844l3.628-.589a2.244,2.244,0,0,0-2.354-2.353,3.232,3.232,0,0,0-1.942.687,5.851,5.851,0,0,0-.705.685l-.882-.882a4.387,4.387,0,0,1,.921-.882,4.265,4.265,0,0,1,2.609-.883,3.585,3.585,0,0,1,3.727,3.628v5.983H108.21Zm0-3.53-3.236.588c-1.177.216-1.765.785-1.765,1.668,0,.784.686,1.471,1.961,1.471a2.941,2.941,0,0,0,3.04-3.138Z" transform="translate(-22707.014 -124.658)" fill="#aa7f54"/>
      <path id="パス_12923" data-name="パス 12923" d="M116.3,198.605h1.373v9.317l4.708-5h1.667l-3.629,3.825,4.021,5.589h-1.57l-3.334-4.609-1.863,1.961v2.648H116.3Z" transform="translate(-22708.928 -124.03)" fill="#aa7f54"/>
      <path id="パス_12924" data-name="パス 12924" d="M130.177,198.945a.882.882,0,1,1-.883.882.879.879,0,0,1,.883-.882m-.687,4.021h1.373v9.415H129.49Z" transform="translate(-22710.648 -124.075)" fill="#aa7f54"/>
      <path id="パス_12925" data-name="パス 12925" d="M146.733,198.6h1.373l5.687,13.729h-1.569l-1.57-3.825h-6.472l-1.57,3.825h-1.569Zm3.334,8.532-2.647-6.473-2.649,6.473Z" transform="translate(-22712.203 -124.03)" fill="#aa7f54"/>
      <path id="パス_12926" data-name="パス 12926" d="M159.766,210.512a3.5,3.5,0,0,0,.627.686,2.717,2.717,0,0,0,1.825.686c1.393,0,2.06-.686,2.06-1.569,0-2.158-5.1-1.079-5.1-4.316a2.9,2.9,0,0,1,3.138-2.648,4.276,4.276,0,0,1,2.256.648,3.541,3.541,0,0,1,.784.627l-.98.98a2.43,2.43,0,0,0-.51-.49,2.791,2.791,0,0,0-1.55-.49A1.59,1.59,0,0,0,160.552,206c0,2.06,5.1.981,5.1,4.316,0,1.569-1.295,2.844-3.432,2.844a4.377,4.377,0,0,1-2.609-.824,3.069,3.069,0,0,1-.823-.843Z" transform="translate(-22714.551 -124.658)" fill="#aa7f54"/>
      <path id="パス_12927" data-name="パス 12927" d="M176.913,211.688a3.355,3.355,0,0,1-.745.745,3.885,3.885,0,0,1-2.295.726,3.105,3.105,0,0,1-3.334-2.746c0-1.57.96-2.55,2.747-2.844l3.628-.589a2.244,2.244,0,0,0-2.354-2.353,3.232,3.232,0,0,0-1.942.687,5.852,5.852,0,0,0-.705.685l-.882-.882a4.387,4.387,0,0,1,.921-.882,4.265,4.265,0,0,1,2.609-.883,3.585,3.585,0,0,1,3.727,3.628v5.983h-1.373Zm0-3.53-3.236.588c-1.177.216-1.765.785-1.765,1.668,0,.784.686,1.471,1.961,1.471a2.941,2.941,0,0,0,3.04-3.138Z" transform="translate(-22716.107 -124.658)" fill="#aa7f54"/>
      <path id="パス_12928" data-name="パス 12928" d="M185,198.606h1.373v5.688a3.513,3.513,0,0,1,.745-.784,3.809,3.809,0,0,1,6.119,3.236v5.589h-1.373v-5.589A2.517,2.517,0,0,0,189.317,204a2.93,2.93,0,0,0-2.941,3.138v5.2H185Z" transform="translate(-22718.021 -124.03)" fill="#aa7f54"/>
      <path id="パス_12929" data-name="パス 12929" d="M200.575,198.945a.882.882,0,1,1-.882.882.879.879,0,0,1,.882-.882m-.687,4.021h1.373v9.415h-1.373Z" transform="translate(-22719.967 -124.075)" fill="#aa7f54"/>
      <path id="パス_12930" data-name="パス 12930" d="M214.043,198.605h1.472v12.357h7.061v1.373h-8.532Z" transform="translate(-22721.865 -124.03)" fill="#aa7f54"/>
      <path id="パス_12931" data-name="パス 12931" d="M233.526,211.688a3.355,3.355,0,0,1-.745.745,3.885,3.885,0,0,1-2.295.726,3.105,3.105,0,0,1-3.334-2.746c0-1.57.96-2.55,2.747-2.844l3.628-.589a2.244,2.244,0,0,0-2.354-2.353,3.232,3.232,0,0,0-1.942.687,5.852,5.852,0,0,0-.705.685l-.882-.882a4.387,4.387,0,0,1,.921-.882,4.265,4.265,0,0,1,2.609-.883,3.585,3.585,0,0,1,3.727,3.628v5.983h-1.373Zm0-3.53-3.236.588c-1.177.216-1.765.785-1.765,1.668,0,.784.686,1.471,1.961,1.471a2.941,2.941,0,0,0,3.04-3.138Z" transform="translate(-22723.602 -124.658)" fill="#aa7f54"/>
      <path id="パス_12932" data-name="パス 12932" d="M239.807,203.579h1.471l2.452,7.257,2.354-7.257h1.177l2.353,7.257,2.452-7.257h1.471l-3.236,9.415h-1.275l-2.354-7.159-2.353,7.159h-1.275Z" transform="translate(-22725.275 -124.688)" fill="#aa7f54"/>
      <path id="パス_12933" data-name="パス 12933" d="M272.294,198.38a7.061,7.061,0,1,1-7.061,7.061,7.032,7.032,0,0,1,7.061-7.061m5.59,7.061a5.591,5.591,0,1,0-5.59,5.688,5.549,5.549,0,0,0,5.59-5.688" transform="translate(-22728.641 -124)" fill="#aa7f54"/>
      <path id="パス_12934" data-name="パス 12934" d="M286.818,204.166h-1.471v-1.275h1.471v-1.373a2.42,2.42,0,0,1,2.55-2.746,3.326,3.326,0,0,1,.981.156c.136.059.274.1.391.138v1.275l-.373-.137a2.982,2.982,0,0,0-.9-.157c-.784,0-1.274.471-1.274,1.472v1.373h4.217v-1.766a2.419,2.419,0,0,1,2.549-2.745,3.31,3.31,0,0,1,.98.156c.138.059.275.1.393.138v1.275l-.373-.137a2.956,2.956,0,0,0-.9-.157c-.784,0-1.275.471-1.275,1.471v1.766h5.59v9.415H298v-8.139h-4.217v8.139h-1.373v-8.139h-4.217v8.139h-1.373Zm11.867-5.3a.882.882,0,1,1-.882.882.879.879,0,0,1,.882-.882" transform="translate(-22731.305 -124)" fill="#aa7f54"/>
      <path id="パス_12935" data-name="パス 12935" d="M314.768,211.2a5.491,5.491,0,0,1-1.04.981,4.9,4.9,0,0,1-2.882.98,4.907,4.907,0,0,1,0-9.807,4.744,4.744,0,0,1,2.824.941,6.423,6.423,0,0,1,1,.922l-.98.98a4.624,4.624,0,0,0-.726-.785,3.314,3.314,0,0,0-2.118-.784,3.641,3.641,0,0,0,0,7.257,3.632,3.632,0,0,0,2.177-.784,4.14,4.14,0,0,0,.765-.784Z" transform="translate(-22734.057 -124.658)" fill="#aa7f54"/>
      <path id="パス_12936" data-name="パス 12936" d="M327.99,211.2a4.736,4.736,0,0,1-1,.981,4.936,4.936,0,0,1-2.922.98,4.91,4.91,0,0,1-.1-9.807,4.476,4.476,0,0,1,4.511,4.707,3.011,3.011,0,0,1-.059.51l-.038.2-7.65-.02a3.392,3.392,0,0,0,3.334,3.138,3.685,3.685,0,0,0,2.255-.784,4.255,4.255,0,0,0,.785-.784Zm-.882-3.628a3.207,3.207,0,0,0-3.138-2.942,3.368,3.368,0,0,0-3.236,2.942Z" transform="translate(-22735.807 -124.658)" fill="#aa7f54"/>
    </g>
    <path id="合体_4" data-name="合体 4" d="M22.893,95.358l-2.283,4.9a1.82,1.82,0,0,1-1.655,1.032H12.537a1.756,1.756,0,0,1-1.655-2.468l4.5-9.659A52.168,52.168,0,0,1,51.48,0l.535,0a51.664,51.664,0,0,1,23.27,5.5,1.289,1.289,0,0,1,.583,1.721L73.21,12.587a1.271,1.271,0,0,1-1.709.574A43.144,43.144,0,0,0,52.01,8.532,43.615,43.615,0,1,0,67.331,92.968a1.7,1.7,0,0,1,2.17.94l1.964,4.742A1.712,1.712,0,0,1,70.5,100.9a51.952,51.952,0,0,1-47.6-5.544Zm59.654,5.927a1.814,1.814,0,0,1-1.674-1.075L67.706,69.854h.019L65.861,65.6,55.638,42.035,51.644,33.2,41.134,56.221,30.444,79.155a1.7,1.7,0,0,1-2.685.546,35.673,35.673,0,0,1-4.642-5.024,1.7,1.7,0,0,1-.173-1.738l27.224-58.4a1.843,1.843,0,0,1,3.322.022L91.349,98.841a1.755,1.755,0,0,1-1.665,2.445Z" transform="translate(-24138.07 91.284)" fill="#ef8c37" stroke="rgba(0,0,0,0)" stroke-miterlimit="10" stroke-width="1"/>
  </g>
</svg>
