<svg xmlns="http://www.w3.org/2000/svg" width="348.809" height="66.166" viewBox="0 0 348.809 66.166">
  <g id="グループ_905" data-name="グループ 905" transform="translate(17380.918 19209.883)">
    <path id="パス_116" data-name="パス 116" d="M2.93-4.36c0-.16-.54-.65-.68-.77s-.73-.65-.88-.65a.95.95,0,0,0-.56.55c0,.08.08.14.14.19A11.976,11.976,0,0,1,2.14-3.97c.06.06.12.14.21.14C2.51-3.83,2.93-4.21,2.93-4.36Zm.88,2.13c0-.14-.3-.66-.47-.66a.412.412,0,0,0-.21.1A14.328,14.328,0,0,1,.77-1.4c-.08.03-.2.07-.2.17a1.509,1.509,0,0,0,.26.48.834.834,0,0,1,.08.12c.12.19.19.29.28.29.07,0,.11-.06.12-.13.02-.11.03-.11.21-.21A25.577,25.577,0,0,0,3.69-2.05.23.23,0,0,0,3.81-2.23ZM4.2-7.46a.246.246,0,0,1-.28-.27c.01-.16.01-.23.12-.3.05-.03.11-.06.11-.13,0-.09-.14-.1-.23-.11-.17-.01-.7-.05-.85-.05-.08,0-.17.01-.17.12v.08c.02.13.03.26.04.39-.02.2-.09.27-.28.27H2.02c-.39,0-.79-.03-1.18-.03-.24,0-.23.11-.23.48s-.02.47.23.47c.39,0,.79-.02,1.18-.02h.63c.19,0,.27.08.27.27v.27c0,.25.13.24.49.24.42,0,.53,0,.53-.26a2.008,2.008,0,0,0-.01-.25c.01-.19.09-.27.27-.27H5.83c.19,0,.27.08.27.27,0,.09-.01.18-.01.27,0,.26.12.25.49.25.42,0,.54.01.54-.26,0-.09-.01-.18-.01-.27,0-.19.09-.26.27-.26h.64c.4,0,.79.02,1.19.02.24,0,.23-.1.23-.47s0-.48-.24-.48c-.39,0-.78.03-1.18.03H7.38c-.18,0-.29-.08-.28-.27,0-.13,0-.2.12-.28.05-.03.11-.07.11-.13,0-.09-.11-.1-.17-.1C7-8.26,6.4-8.3,6.25-8.3c-.08,0-.18,0-.18.11,0,.03.01.06.01.09.01.1.03.27.03.37-.01.2-.09.27-.27.27ZM5.35-3.77A4.2,4.2,0,0,1,2.72-.43c-.21.1-.39.17-.39.27,0,.12.38.74.59.74a1.916,1.916,0,0,0,.4-.17A5.287,5.287,0,0,0,5.88-2.16a.121.121,0,0,1,.11-.08c.05,0,.08.04.11.08A6.693,6.693,0,0,0,7.82-.07,4.207,4.207,0,0,0,8.83.58c.22,0,.65-.53.65-.69,0-.06-.07-.11-.12-.14A10.064,10.064,0,0,1,8.5-.84,7.171,7.171,0,0,1,7.19-2.17a4.59,4.59,0,0,1-.8-1.61c0-.02-.01-.04-.01-.07,0-.14.11-.19.23-.19H7.79c.04,0,.14-.01.14.06,0,.1-.3.4-.38.48l-.05.05c-.08.08-.22.2-.22.26,0,.19.51.52.71.52.16,0,.49-.44.59-.57a3.246,3.246,0,0,0,.66-1.08.843.843,0,0,0-.21-.38c-.17-.2-.28-.27-.46-.27-.31,0-.63.01-.94.01H5.48c-.1,0-.18-.04-.18-.15a.235.235,0,0,1,.02-.08c.02-.05.04-.1.06-.14.08-.17.12-.27.2-.29s.19-.04.19-.14-.12-.12-.28-.17a6.507,6.507,0,0,0-.74-.21c-.08,0-.1.06-.12.12A9.184,9.184,0,0,1,3.25-3.61c-.03.04-.1.11-.1.17,0,.14.56.5.7.5s.4-.41.58-.7c.04-.07.08-.13.11-.18a.4.4,0,0,1,.42-.22H5.1c.14,0,.25.06.25.21ZM17.91-5.24c.4,0,.79.02,1.19.02.24,0,.23-.11.23-.49s.01-.5-.23-.5c-.4,0-.79.02-1.19.02H15.8c-.19,0-.27-.08-.27-.27v-.9c0-.31.01-.48.11-.56.07-.05.13-.08.13-.15,0-.13-.19-.13-.27-.14-.16-.02-.76-.08-.89-.08-.1,0-.18.02-.18.14a.34.34,0,0,0,.01.1,5.092,5.092,0,0,1,.03.71v.88c0,.19-.08.27-.27.27H12.07c-.4,0-.79-.02-1.19-.02-.24,0-.23.11-.23.5s-.02.49.23.49c.4,0,.79-.02,1.19-.02H13.7c.09.01.17.04.17.14a.239.239,0,0,1-.02.09,9.881,9.881,0,0,1-3.14,3.29c-.09.06-.21.14-.21.26,0,.19.43.67.61.67a.806.806,0,0,0,.34-.15,10.121,10.121,0,0,0,2.89-3.15.1.1,0,0,1,.07-.04c.05,0,.06.05.06.09v2.91c0,.49-.02.98-.02,1.48,0,.31.12.31.55.31s.55,0,.55-.32c0-.49-.02-.98-.02-1.47V-3.99c0-.04.02-.09.07-.09a.1.1,0,0,1,.07.04A13.213,13.213,0,0,0,18-1.31c.14.12.64.56.81.56.22,0,.66-.47.66-.67,0-.11-.13-.19-.21-.24a11.086,11.086,0,0,1-3.12-3.35.161.161,0,0,1-.03-.09c0-.1.09-.13.17-.14ZM25.52-7.6c0-.21.01-.33.11-.38.07-.04.14-.06.14-.14,0-.1-.13-.12-.21-.13-.21-.02-.73-.06-.92-.06-.08,0-.19.01-.19.11,0,.03.01.06.01.09a6.008,6.008,0,0,1,.04.74v.12c0,.19-.08.28-.28.28h-2.2c-.39,0-.78-.03-1.18-.03-.25,0-.24.1-.24.49,0,.36-.01.48.23.48.4,0,.79-.03,1.19-.03h2.26c.13.02.17.08.2.22a5.089,5.089,0,0,1,.03.78c0,.19-.08.28-.28.28H22.91c-.26,0-.52-.02-.78-.02-.36,0-.51.1-.51.47,0,.27.02.54.02.82v1.69c0,.41-.03.81-.03,1.21,0,.3.1.31.53.31s.51-.01.51-.31c0-.4-.02-.8-.02-1.21V-3.55c0-.2.08-.28.28-.28h1.32c.2,0,.28.09.28.28V-.93c0,.44-.03.87-.03,1.3,0,.28.12.29.54.29s.53-.01.53-.3c0-.43-.03-.86-.03-1.29V-3.55c0-.19.08-.28.28-.28h1.36c.2,0,.28.09.28.28v1.71c0,.53-.04.57-.43.57-.23,0-.47-.02-.6-.02-.18,0-.2.15-.2.3,0,.76.27.74.61.74a2.163,2.163,0,0,0,1.35-.3,1.122,1.122,0,0,0,.27-.9V-3.52c0-.27.01-.54.01-.81,0-.39-.17-.47-.53-.47-.26,0-.52.02-.78.02H25.8c-.18,0-.28-.07-.28-.26v-.24c0-.27,0-.37.13-.45.07-.04.15-.08.15-.15,0-.11-.18-.12-.36-.13a.41.41,0,0,1-.11-.01.022.022,0,0,1-.02-.02c0-.01.02-.02.03-.02h2.69c.39,0,.78.03,1.18.03.24,0,.23-.12.23-.48,0-.39.01-.49-.24-.49-.39,0-.78.03-1.17.03H25.8c-.2,0-.28-.09-.28-.28Zm8.81,1.58c.11,0,.16.08.16.18a10.17,10.17,0,0,1-.32,1.95c-.28,1.02-.84,2.16-1.34,2.16s-.64-.93-.64-1.3a3.094,3.094,0,0,1,1.8-2.88A1.125,1.125,0,0,1,34.33-6.02Zm.96-1.17a4.12,4.12,0,0,0-4.15,4.2,3.135,3.135,0,0,0,.31,1.42,1.612,1.612,0,0,0,1.36.95,1.791,1.791,0,0,0,1.32-.77,8.018,8.018,0,0,0,1.42-4.39c.01-.17.01-.39.24-.39a1.747,1.747,0,0,1,.38.09,2.426,2.426,0,0,1,1.6,2.39,2.69,2.69,0,0,1-2.34,2.6c-.1.02-.25.04-.25.14,0,.22.41.84.67.84a3.891,3.891,0,0,0,1.09-.4,3.593,3.593,0,0,0,1.95-3.23A3.382,3.382,0,0,0,37.88-6.2,3.556,3.556,0,0,0,35.29-7.19ZM44.4-3.42c-.2,0-.28-.08-.28-.28v-.35c0-.29.01-.38.14-.46.06-.04.14-.07.14-.14,0-.09-.09-.12-.16-.13-.18-.02-.82-.06-1-.06-.11,0-.2.02-.2.15a.375.375,0,0,0,.01.1,7.131,7.131,0,0,1,.03.8v.09c0,.2-.09.28-.28.28h-.79c-.41,0-.82-.02-1.24-.02-.24,0-.23.11-.23.48,0,.35-.01.47.23.47.41,0,.83-.03,1.24-.03h.75c.12,0,.23.05.23.19a.148.148,0,0,1-.01.07,3.051,3.051,0,0,1-.2.53,3.309,3.309,0,0,1-1.84,1.4c-.16.05-.27.07-.27.2,0,.23.29.76.55.76A4.169,4.169,0,0,0,42.26.2a3.579,3.579,0,0,0,1.78-2.45c.04-.2.12-.25.32-.27h1.41c.2,0,.28.09.28.28V-.9c0,.39-.03.79-.03,1.18,0,.34.12.35.54.35s.54,0,.54-.34c0-.4-.03-.8-.03-1.19V-2.24c0-.19.08-.28.28-.28h.57c.41,0,.83.03,1.24.03.24,0,.23-.11.23-.48s.01-.47-.23-.47c-.41,0-.83.02-1.24.02h-.57c-.2,0-.28-.08-.28-.28v-.28c0-.3.01-.48.12-.56.07-.06.11-.08.11-.15,0-.12-.16-.12-.25-.13-.2-.01-.67-.05-.86-.05-.09,0-.19.02-.19.14,0,.03.01.07.01.1.02.21.04.45.04.67v.26c0,.2-.08.28-.28.28Zm-.56-4.77a19.264,19.264,0,0,1-1.01,1.97.412.412,0,0,1-.4.23c-.26,0-.52.01-.79.01h-.3c-.2,0-.3-.02-.3.13a1.6,1.6,0,0,0,.06.3c.03.1.05.19.08.27.08.3.13.5.24.5a.139.139,0,0,0,.12-.07c.05-.07.07-.13.15-.13,1.91-.08,3.81-.26,5.71-.45h.06a.393.393,0,0,1,.34.18,1.95,1.95,0,0,0,.19.26c.16.21.24.34.34.34.19,0,.7-.35.7-.51a8.66,8.66,0,0,0-1.01-1.33c-.17-.2-.95-1.11-1.16-1.11-.13,0-.67.31-.67.51,0,.06.1.16.25.31.1.09.22.21.35.35a.143.143,0,0,1,.04.1c0,.08-.06.11-.13.12-.88.08-1.77.12-2.66.16-.07,0-.14-.03-.14-.12a.19.19,0,0,1,.03-.09,13.615,13.615,0,0,0,.89-1.49.186.186,0,0,1,.15-.09c.06-.01.19-.03.19-.12,0-.13-.38-.24-.49-.28a3.389,3.389,0,0,0-.65-.19c-.09,0-.11.05-.13.13C43.87-8.26,43.86-8.23,43.84-8.19Zm8.77,5.03c.24,0,.49.02.73.02s.24-.13.24-.4c0-.25.01-.41-.23-.41s-.49.02-.74.02h-.63c-.24,0-.49-.02-.74-.02s-.22.17-.22.41-.02.4.21.4c.25,0,.5-.02.75-.02Zm.01-1.34c.24,0,.49.02.73.02s.22-.15.22-.42.01-.41-.22-.41-.48.02-.73.02h-.66c-.24,0-.49-.02-.72-.02s-.23.16-.23.41-.01.42.23.42.48-.02.72-.02Zm.19-1.34c.27,0,.54.02.82.02.24,0,.23-.14.23-.41,0-.36-.01-.42-.29-.42-.16,0-.4.02-.76.02H51.65c-.27,0-.55-.02-.82-.02-.25,0-.23.15-.23.42s-.01.41.23.41c.27,0,.55-.02.82-.02Zm-.08-1.35c.23,0,.46.01.67.01.23,0,.22-.13.22-.42,0-.26.01-.42-.22-.42-.19,0-.43.02-.67.02H51.9c-.23,0-.48-.02-.67-.02-.23,0-.22.15-.22.42s-.01.42.22.42c.19,0,.44-.01.67-.01Zm-.26,5.42c.17.02.27.1.27.28v.56a.265.265,0,0,1-.27.28H52.1a.265.265,0,0,1-.27-.28v-.56c0-.18.1-.26.27-.28Zm.08,1.9c.12,0,.16.08.2.18s.14.11.41.11c.36,0,.47-.01.47-.23s-.01-.47-.01-.7v-1.7c0-.29-.09-.4-.38-.4-.17,0-.34.01-.53.01h-.89c-.18,0-.36-.01-.54-.01-.31,0-.38.14-.38.42,0,.16.01.32.01.48V.39c0,.23.11.22.42.22.47,0,.49.01.5-.24,0-.22.03-.24.29-.24Zm4.68-1.56c.1,0,.26-.01.26.05,0,.08-.4.26-.58.35a.583.583,0,0,1-.29.09.513.513,0,0,1-.24-.07c-.12-.07-.26-.17-.37-.25a.123.123,0,0,1-.04-.08c0-.07.06-.09.11-.09ZM56.87.06a7.513,7.513,0,0,0,2.26.57c.3,0,.4-.48.4-.65s-.16-.16-.28-.17a8.344,8.344,0,0,1-1.4-.23.106.106,0,0,1-.09-.1.115.115,0,0,1,.06-.11c.23-.15,1.07-.68,1.07-.95a.557.557,0,0,0-.14-.3.51.51,0,0,0-.51-.22H55.45c-.36,0-.72-.01-1.08-.01-.23,0-.22.06-.22.29,0,.31-.02.4.19.4h.34a.275.275,0,0,1,.22.12,2.417,2.417,0,0,0,.58.57.152.152,0,0,1,.06.11c0,.07-.04.1-.1.12a13.234,13.234,0,0,1-1.4.25c-.24.03-.34.04-.34.14s.15.71.43.71a4,4,0,0,0,.45-.06A11.366,11.366,0,0,0,56.4.05.635.635,0,0,1,56.63,0,.706.706,0,0,1,56.87.06ZM56.66-4.1a.145.145,0,0,1-.16.15h-.78a.156.156,0,0,1-.16-.15v-.03a.158.158,0,0,1,.16-.16h.78c.1.01.16.06.16.16Zm0,.87a.147.147,0,0,1-.16.16h-.78a.158.158,0,0,1-.16-.16v-.04a.164.164,0,0,1,.16-.16h.78c.1.01.16.06.16.16ZM56.5-5.15c.1.01.16.06.16.16v.03a.147.147,0,0,1-.16.16h-.78a.158.158,0,0,1-.16-.16v-.03a.158.158,0,0,1,.16-.16Zm-.76-.54c-.07-.01-.15-.03-.15-.13A.2.2,0,0,1,55.77-6c.06-.01.13-.04.13-.11,0-.09-.12-.11-.23-.15a4.743,4.743,0,0,0-.7-.23c-.08,0-.1.08-.13.14a7.075,7.075,0,0,1-1.18,1.83c-.05.06-.15.15-.15.23,0,.17.51.43.66.43.12,0,.2-.13.27-.21a.109.109,0,0,1,.09-.04c.06,0,.08.06.08.11v.65c0,.24-.02.41-.02.53,0,.32.28.36.53.36s.49-.02.73-.02h2.53c.29,0,.58.02.87.02.23,0,.23-.07.23-.31s.01-.31-.23-.31c-.29,0-.58.01-.87.01h-.66c-.12,0-.16-.04-.16-.16v-.04c0-.12.04-.16.16-.16h.25c.29,0,.58.02.88.02.15,0,.16-.07.16-.28s0-.27-.16-.27c-.3,0-.59.01-.88.01h-.25c-.12,0-.15-.04-.16-.15v-.03c0-.12.04-.16.16-.16h.26c.3,0,.59.01.89.01.15,0,.16-.07.16-.26,0-.21-.01-.27-.17-.27-.29,0-.59.01-.88.01h-.26c-.12,0-.16-.04-.16-.16v-.03c0-.12.04-.16.16-.16h.54c.3,0,.6.01.9.01.16,0,.17-.07.17-.28s0-.29-.17-.29c-.3,0-.6.02-.9.02h-.38c-.07-.01-.15-.03-.15-.12a.133.133,0,0,1,.03-.08.2.2,0,0,1,.16-.09c.06-.02.14-.03.14-.11,0-.1-.15-.14-.45-.24-.03-.02-.03-.03-.03-.04s.01-.03.04-.03h.09c.35,0,.47,0,.47-.21v-.14c0-.16.07-.23.22-.23.29-.01.57.02.86.02.26,0,.25-.09.25-.37s.01-.37-.25-.37c-.28,0-.56.02-.84.02-.11-.01-.23-.03-.25-.15a.155.155,0,0,1,.1-.17c.05-.03.11-.07.11-.13,0-.12-.17-.11-.25-.12-.18-.02-.62-.05-.77-.05-.07,0-.16.01-.16.1,0,.03.01.06.01.08a1.635,1.635,0,0,1,.02.22c0,.16-.08.22-.23.22h-.6c-.11-.01-.24-.03-.25-.17a.2.2,0,0,1,.1-.16.166.166,0,0,0,.1-.13c0-.1-.13-.1-.2-.11-.17-.01-.66-.06-.82-.06-.08,0-.15.02-.15.12,0,.04.03.28.03.3,0,.15-.08.21-.22.21-.25.01-.5-.02-.75-.02s-.26.09-.26.37,0,.37.26.37.5-.01.75-.02c.13.01.21.07.21.21v.1c0,.22.13.21.46.21.39,0,.5.01.5-.23a.22.22,0,0,0-.01-.08.2.2,0,0,1,.23-.21H57c.15,0,.22.07.22.23v.15c-.01.08-.05.1-.12.13-.05.01-.07.04-.1.14-.06.14-.12.27-.19.41a.371.371,0,0,1-.39.23Zm8.69,4.63c0,.19-.08.28-.28.28H62.6c-.4,0-.8-.03-1.21-.03-.25,0-.25.1-.25.54s0,.53.25.53c.41,0,.81-.02,1.21-.02h4.8c.4,0,.81.02,1.21.02.26,0,.25-.11.25-.53s.01-.54-.25-.54c-.4,0-.81.03-1.21.03H65.84c-.2,0-.28-.09-.28-.28V-4c0-.2.08-.28.28-.28h2.17c.39,0,.77.03,1.16.03.25,0,.25-.1.25-.53s0-.53-.25-.53c-.39,0-.77.02-1.16.02H65.84c-.2,0-.28-.08-.28-.27V-7.38c0-.3.01-.48.11-.56.08-.06.13-.09.13-.15,0-.1-.11-.13-.19-.13-.14-.02-.91-.08-1.03-.08-.1,0-.2.02-.2.14,0,.03.01.07.01.1a4.473,4.473,0,0,1,.04.76v1.74c0,.19-.08.27-.28.27H62.01c-.39,0-.78-.02-1.17-.02-.25,0-.24.11-.24.53s-.01.53.24.53c.39,0,.78-.03,1.17-.03h2.14c.2,0,.28.08.28.28ZM80.16-2.24a.286.286,0,0,1,.28-.28h1.65a.28.28,0,0,1,.28.28v.91a.28.28,0,0,1-.28.28H80.44a.286.286,0,0,1-.28-.28Zm0-2.21a.265.265,0,0,1,.28-.27h1.65c.18,0,.26.1.28.27v.78a.28.28,0,0,1-.28.28H80.44a.286.286,0,0,1-.28-.28Zm.28-1.14a.28.28,0,0,1-.28-.28v-.67a.286.286,0,0,1,.28-.28h1.65a.28.28,0,0,1,.28.28v.67a.273.273,0,0,1-.28.28ZM82.35.25c0,.26.16.25.51.25.39,0,.51,0,.51-.27,0-.39-.02-.78-.02-1.17V-6.37c0-.3.02-.61.02-.91,0-.38-.12-.48-.49-.48-.22,0-.45.01-.67.01H80.33c-.23,0-.46-.01-.69-.01-.37,0-.47.12-.47.48,0,.31.01.61.01.91V-.94c0,.39-.02.77-.02,1.16,0,.28.12.28.52.28s.5,0,.5-.28V.09c0-.16.07-.23.23-.23h1.71c.16,0,.23.07.23.23ZM77.54-3.49a6.317,6.317,0,0,0,.54.71.262.262,0,0,0,.2.14.884.884,0,0,0,.56-.57c0-.08-.09-.16-.15-.22a13.649,13.649,0,0,1-1.22-1.51.293.293,0,0,1-.07-.22c.01-.19.09-.27.28-.27h.1c.29,0,.58.03.78.03.23,0,.22-.15.22-.5,0-.37.01-.5-.23-.5-.21,0-.48.02-.77.02h-.1c-.19,0-.28-.08-.28-.28v-.76c0-.29.01-.48.11-.56.07-.06.11-.08.11-.14,0-.11-.14-.12-.22-.13-.15-.02-.72-.08-.85-.08-.09,0-.17.02-.17.14a.277.277,0,0,0,.01.09,5.009,5.009,0,0,1,.03.68v.76c0,.2-.08.28-.28.28h-.2c-.29,0-.56-.02-.77-.02-.24,0-.23.13-.23.5,0,.35-.01.5.22.5.2,0,.49-.03.78-.03h.02c.12,0,.22.05.22.19,0,.02-.01.05-.01.08a12.2,12.2,0,0,1-1.34,3.02.642.642,0,0,0-.15.31c0,.2.42.55.61.55.12,0,.16-.09.22-.18a9,9,0,0,0,.83-1.81.045.045,0,0,1,.04-.03c.03,0,.04.03.04.05v2.18c0,.48-.02.95-.02,1.42,0,.29.11.3.51.3s.52-.01.52-.31c0-.47-.03-.94-.03-1.41V-3.44c0-.04.02-.09.07-.09A.1.1,0,0,1,77.54-3.49Zm13.18.68c.06-.04.14-.08.14-.15,0-.09-.26-.15-.7-.19-.07-.01-.25-.03-.32-.03-.13,0-.15.07-.15.19,0,.06.01.11.01.17a2.962,2.962,0,0,1-.34,1.46A2.868,2.868,0,0,1,88.18-.33c-.09.04-.22.08-.22.19,0,.21.37.68.61.68a1.9,1.9,0,0,0,.68-.37,3.371,3.371,0,0,0,1.37-2.78A.222.222,0,0,1,90.72-2.81ZM92.45-.56c-.23,0-.29-.07-.29-.34V-2.31c0-.36.03-.47.15-.55.04-.04.1-.07.1-.13,0-.11-.16-.11-.26-.12-.15-.02-.7-.07-.83-.07-.07,0-.14.02-.14.11v.08a4.788,4.788,0,0,1,.03.66V-.62c0,.14-.01.27-.01.4,0,.54.33.64.8.64h.68c.28,0,.68,0,.85-.27a3.481,3.481,0,0,0,.34-1.31.247.247,0,0,0-.18-.26,1.135,1.135,0,0,0-.51-.13c-.19,0-.21.11-.24.34-.06.42-.06.65-.36.65Zm-3.83-.58a5.942,5.942,0,0,0-.21-.83c-.19-.65-.24-.74-.41-.74-.13,0-.53.07-.53.24a.592.592,0,0,0,.05.19,10.045,10.045,0,0,1,.31,1.07c.06.27.09.38.24.38C88.16-.83,88.62-.9,88.62-1.14Zm-2.4-1.22c0-.12-.18-.15-.27-.17a3.962,3.962,0,0,0-.53-.12c-.11,0-.12.1-.13.26a1.213,1.213,0,0,1-.01.18,8.752,8.752,0,0,1-.42,1.97.573.573,0,0,0-.04.14c0,.18.43.26.57.26s.19-.07.22-.18A17.315,17.315,0,0,0,86-2.05c.01-.07.01-.14.09-.18C86.15-2.26,86.22-2.28,86.22-2.36Zm-.67-4.33a.3.3,0,0,0-.17-.1c-.16,0-.46.59-.46.69s.08.16.15.22a9.823,9.823,0,0,1,.89.82.334.334,0,0,1,.11.22.3.3,0,0,1-.06.18c-.09.15-.18.31-.27.46a.417.417,0,0,1-.42.24h-.21c-.11,0-.2.01-.2.11s.09.48.12.63c.06.29.09.43.19.43.07,0,.11-.06.14-.12s.04-.08.11-.1c.2-.02.4-.05.6-.08.18,0,.26.07.26.25v1.76c0,.45-.03.9-.03,1.36,0,.32.09.34.48.34s.47-.02.47-.33c0-.46-.03-.91-.03-1.37V-2.96c.02-.2.07-.29.27-.32a.574.574,0,0,1,.12-.01c.13,0,.18.07.23.19.02.08.05.15.17.15a1.29,1.29,0,0,0,.39-.08.185.185,0,0,1,.07-.02.1.1,0,0,1,.11.09c.05.14.13.16.48.16.23,0,.47.01.47-.2,0-.08-.02-.25-.02-.32.01-.18.12-.23.28-.23h2.64c.19,0,.26.08.27.27,0,.09-.01.21-.01.29,0,.22.19.21.48.21s.5.01.5-.21c0-.04-.01-.22-.01-.35v-.29c0-.19.01-.28.01-.39,0-.32-.28-.38-.71-.38-.2,0-.44.02-.7.02H89.99c-.26,0-.5-.02-.7-.02-.43,0-.71.06-.71.38a1.926,1.926,0,0,0,.01.24c0,.05.02.16-.04.16-.04,0-.05-.04-.06-.08-.12-.38-.24-.75-.37-1.12-.06-.15-.09-.27-.23-.27-.09,0-.61.12-.61.3a2.571,2.571,0,0,0,.14.38.308.308,0,0,1,.01.09c0,.13-.08.18-.19.2-.13.01-.25.03-.38.04-.07,0-.14-.03-.14-.12a.235.235,0,0,1,.02-.08c.46-.69.9-1.39,1.3-2.12a.2.2,0,0,1,.19-.11c.04,0,.13-.01.13-.11s-.45-.32-.55-.37a1.813,1.813,0,0,0-.35-.16c-.09,0-.12.09-.15.17-.17.37-.38.72-.57,1.07a.2.2,0,0,1-.17.11.233.233,0,0,1-.15-.07.389.389,0,0,1-.15-.23.239.239,0,0,1,.05-.14,13.183,13.183,0,0,0,.79-1.37.18.18,0,0,1,.15-.07c.08,0,.19-.01.19-.12s-.1-.15-.17-.2a5.731,5.731,0,0,0-.73-.33c-.07,0-.1.07-.12.14-.13.36-.48,1.11-.66,1.47-.03.04-.06.08-.12.08A.139.139,0,0,1,85.55-6.69ZM91.6-7.6c0-.19,0-.31.11-.4.07-.06.13-.08.13-.15,0-.12-.18-.13-.27-.14-.16-.01-.72-.07-.86-.07-.09,0-.17.02-.17.14a.34.34,0,0,0,.01.1,4.532,4.532,0,0,1,.03.52c-.02.19-.08.26-.28.26h-.53c-.36,0-.72-.02-1.08-.02-.22,0-.22.09-.22.45s.01.43.22.43c.36,0,.72-.02,1.08-.02h.53c.2,0,.28.08.28.28v.13c0,.2-.08.28-.28.28h-.33c-.31,0-.62-.02-.89-.02-.21,0-.2.1-.2.45s0,.44.2.44c.3,0,.59-.02.89-.02h2.31c.29,0,.59.02.88.02.21,0,.21-.1.21-.44s0-.45-.21-.45c-.26,0-.58.02-.88.02h-.41c-.19,0-.27-.08-.27-.28v-.13c0-.2.08-.28.27-.28h.6c.36,0,.72.02,1.08.02.22,0,.22-.09.22-.43,0-.36,0-.45-.23-.45-.36,0-.72.02-1.07.02h-.6C91.69-7.34,91.6-7.41,91.6-7.6Zm7.86,2.67a1.156,1.156,0,0,0-1.22,1.21,1.035,1.035,0,0,0,1.09,1.05,1.152,1.152,0,0,0,1.2-1.21A1.024,1.024,0,0,0,99.46-4.93Zm7.92-.09c.1,0,.21.1.28.16.09.08.17.15.22.15.16,0,.42-.35.42-.48,0-.07-.24-.3-.32-.34a.284.284,0,0,1-.12-.21.369.369,0,0,1,.05-.17c.11-.18.12-.24.2-.25.05-.01.16-.01.16-.08,0-.14-.68-.38-.71-.38a.087.087,0,0,0-.08.06,1.666,1.666,0,0,1-.12.23.224.224,0,0,1-.2.13.3.3,0,0,1-.16-.05.751.751,0,0,0-.25-.13c-.13,0-.39.36-.39.49,0,.07.08.11.21.2a.212.212,0,0,1,.12.19.349.349,0,0,1-.14.23c-.1.1-.21.2-.21.26,0,.16.37.39.49.39.08,0,.21-.15.3-.24C107.2-4.93,107.27-5.02,107.38-5.02Zm3.53,3.49a.286.286,0,0,1,.28-.28h.27a.286.286,0,0,1,.28.28v.41a.28.28,0,0,1-.28.28h-.27a.28.28,0,0,1-.28-.28Zm0-1.82a.265.265,0,0,1,.28-.27h.27a.265.265,0,0,1,.28.27v.33a.286.286,0,0,1-.28.28h-.27a.286.286,0,0,1-.28-.28Zm0-1.82a.286.286,0,0,1,.28-.28h.27a.286.286,0,0,1,.28.28v.34a.286.286,0,0,1-.28.28h-.27a.286.286,0,0,1-.28-.28Zm-4.73-.59c0-.24.01-.39.11-.47.05-.03.1-.05.1-.12,0-.1-.13-.1-.2-.11-.13-.01-.53-.04-.65-.04-.07,0-.14.01-.14.1v.08a3.141,3.141,0,0,1,.03.53v.99c0,.23-.01.47-.01.7,0,.32.19.36.46.36.22,0,.44-.03.66-.02.14,0,.24.05.24.21a.344.344,0,0,1-.01.09c-.04.17-.1.23-.27.23h-.17c-.23,0-.47-.02-.71-.02-.26,0-.44.05-.44.36,0,.24.01.47.01.7V-.66c0,.34-.02.68-.02,1.02,0,.24.09.25.42.25S106,.6,106,.35c0-.34-.01-.68-.01-1.01V-2.25c0-.16.07-.23.23-.23h.14c.11,0,.2.05.2.17a.433.433,0,0,0-.01.05c-.05.24-.1.49-.16.73a.14.14,0,0,1-.14.12c-.12.01-.21.01-.21.11,0,.05.09.36.11.43.08.25.1.35.19.35.06,0,.08-.05.11-.1s.05-.1.12-.11c.39-.08.77-.13,1.14-.22h.05c.08,0,.11.05.13.12.03.11.04.25.18.25.04,0,.41-.06.41-.24a7.068,7.068,0,0,0-.18-.69c-.18-.57-.23-.68-.36-.68-.1,0-.41.07-.41.19a.845.845,0,0,0,.05.17.235.235,0,0,1,.02.08c0,.1-.07.14-.16.17a.772.772,0,0,1-.15.02.129.129,0,0,1-.14-.13.109.109,0,0,1,.01-.05c.04-.16.08-.33.13-.5.05-.19.14-.24.33-.24h.72c.19,0,.28.08.28.27v1.6c0,.28.01.43-.42.43-.13,0-.26-.02-.35-.02-.13,0-.16.14-.16.25,0,.56.21.56.53.56.97,0,1.18-.29,1.18-.8,0-.19-.02-.39-.02-.59V-2.2c0-.23.02-.46.02-.69,0-.32-.2-.36-.47-.36-.24,0-.47.02-.71.02h-.49c-.07-.01-.18-.03-.18-.13,0-.08.11-.14.17-.16s.1-.04.1-.1-.05-.08-.1-.1-.05-.02-.05-.03.03-.01.04-.01h.28c.24,0,.48.02.72.02.27,0,.45-.05.45-.37a2.35,2.35,0,0,0-.01-.26c.01-.05.03-.1.09-.1.03,0,.05.02.08.04.09.08.32.27.44.27.06,0,.1-.05.13-.08a.071.071,0,0,1,.06-.03c.02,0,.04.02.04.06V-.86c0,.39-.02.78-.02,1.16,0,.32.09.33.48.33.42,0,.48-.02.48-.32.02-.16.08-.23.24-.23h1.56c.32,0,.66.02.92.02.21,0,.2-.12.2-.48s.01-.48-.2-.48c-.26,0-.52.03-.78.02-.2,0-.28-.08-.28-.28v-.41c0-.18.07-.26.26-.27.14,0,.29.01.44.01.22,0,.21-.11.21-.48s.01-.49-.21-.49c-.13,0-.3.01-.43.01-.2,0-.27-.08-.27-.27v-.32c0-.19.08-.27.27-.28.13.01.32.02.44.02.22,0,.21-.13.21-.49s.01-.49-.21-.49c-.15,0-.3.01-.45.02-.19-.01-.26-.09-.26-.27v-.34c0-.18.07-.27.25-.28.19.01.53.02.69.02.21,0,.2-.12.2-.48s.01-.49-.21-.49c-.16,0-.54.02-.75.02-.1-.01-.18-.04-.18-.15a.292.292,0,0,1,.02-.09c.16-.35.27-.71.4-1.07a.163.163,0,0,1,.13-.11c.07-.01.17-.02.17-.11s-.13-.14-.21-.17c-.1-.03-.68-.23-.74-.23-.09,0-.1.07-.13.17a10.05,10.05,0,0,1-.51,1.52.336.336,0,0,1-.38.24h-.12c-.1,0-.2-.04-.2-.16a.371.371,0,0,1,.02-.09c.13-.34.25-.69.36-1.04.03-.11.04-.17.15-.21.05-.02.13-.05.13-.11,0-.08-.1-.11-.16-.13-.12-.03-.73-.24-.8-.24-.09,0-.1.08-.12.15a12.348,12.348,0,0,1-1.32,3.22.068.068,0,0,1-.06.04c-.05,0-.07-.05-.07-.09v-.71c0-.24.01-.38.11-.45.04-.03.1-.06.1-.13,0-.09-.12-.1-.19-.11-.12-.01-.56-.04-.67-.04-.07,0-.14.01-.14.11,0,.02.01.05.01.08a6.955,6.955,0,0,1,.03.79v.71c0,.2-.09.28-.28.28h-1.66c-.2,0-.28-.08-.28-.28Zm1.59-2.02a.267.267,0,0,1,.11-.26c.05-.03.13-.06.13-.13,0-.12-.16-.12-.25-.13-.12-.01-.72-.05-.79-.05-.09,0-.18.02-.18.13v.09a1.953,1.953,0,0,1,.03.34c-.01.19-.09.26-.27.26H106c-.3,0-.61-.02-.89-.02-.21,0-.2.1-.2.4s-.01.39.2.39c.3,0,.59-.02.89-.02h2.61c.29,0,.59.02.89.02.2,0,.2-.09.2-.39s0-.4-.2-.4c-.3,0-.6.02-.89.02h-.56C107.87-7.53,107.78-7.59,107.77-7.78Zm8.9,2.52a.262.262,0,0,1,.29-.24c.17,0,.36-.01.36.2,0,.08-.06.55-.07.66a8.225,8.225,0,0,1-.37,1.54.181.181,0,0,1-.17.14.19.19,0,0,1-.13-.05c-.08-.06-.16-.12-.24-.17a.3.3,0,0,1-.13-.23.425.425,0,0,1,.02-.11C116.38-4.04,116.56-4.73,116.67-5.26Zm.29,4.12c.05-.07.09-.12.18-.12a.233.233,0,0,1,.15.07c.11.12.44.5.54.5.2,0,.56-.43.56-.63,0-.15-.56-.65-.7-.77a.385.385,0,0,1-.13-.26.9.9,0,0,1,.03-.16,11.351,11.351,0,0,0,.65-2.88c.01-.17.04-.5.04-.65,0-.31-.19-.44-.48-.44-.21,0-.41.02-.62.01-.12,0-.24-.05-.24-.2v-.06c.05-.3.08-.52.1-.68.06-.41.06-.46.19-.52.05-.03.12-.07.12-.14,0-.12-.16-.13-.38-.16-.13-.02-.58-.1-.67-.1-.13,0-.14.11-.14.19a13.488,13.488,0,0,1-.15,1.41c-.03.19-.12.25-.32.25-.17,0-.34-.01-.51-.01-.24,0-.23.12-.23.5s-.01.52.22.52c.07,0,.27-.01.34-.01.12,0,.22.05.22.18,0,.03-.01.05-.01.07-.1.44-.37,1.46-.51,1.88-.04.13-.3.86-.3.93,0,.2.57.34.69.34a.192.192,0,0,0,.16-.09.24.24,0,0,1,.2-.12.184.184,0,0,1,.13.04.688.688,0,0,1,.13.11.243.243,0,0,1,.11.2.25.25,0,0,1-.04.14,6.215,6.215,0,0,1-1,1.35c-.09.09-.4.36-.4.48,0,.21.49.49.67.49C115.95.52,116.77-.8,116.96-1.14Zm2.85.22a.223.223,0,0,1,.24-.23h2.06a.223.223,0,0,1,.24.23v.08a.231.231,0,0,1-.24.24h-2.06a.231.231,0,0,1-.24-.24Zm.24-.94a.223.223,0,0,1-.24-.23v-.05a.231.231,0,0,1,.24-.24h2.06a.231.231,0,0,1,.24.24v.05a.223.223,0,0,1-.24.23ZM122.33.39c0,.22.12.22.49.22s.49,0,.49-.22c0-.26-.02-.51-.02-.76V-2.12c0-.2.01-.4.01-.6,0-.35-.22-.4-.52-.4-.23,0-.45.01-.68.01h-2.04c-.23,0-.46-.01-.69-.01-.3,0-.52.06-.52.4,0,.2.01.4.01.6V-.37c0,.25-.02.51-.02.76,0,.22.13.22.5.22s.49,0,.49-.22V.35c0-.13.05-.18.18-.18h2.14a.159.159,0,0,1,.18.18Zm-1.59-7.2c.01.07.01.14.02.21v.04c0,.16-.1.22-.24.22h-.51c-.18,0-.27-.07-.27-.26v-.03c0-.4.01-.35.72-.42C120.64-7.05,120.71-6.99,120.74-6.81Zm1.2-.42c.17-.02.89-.18.97-.18a.371.371,0,0,1,.15.04.284.284,0,0,0,.13.04.131.131,0,0,0,.13-.12,2.044,2.044,0,0,0-.31-.49c-.03-.04-.17-.21-.18-.23-.1-.14-.16-.21-.25-.21a.371.371,0,0,0-.14.04,13.981,13.981,0,0,1-2.97.51c-.38.03-.71.02-.71.51,0,.29.01.57.01.85v1.8a.272.272,0,0,1-.24.31c-.23.01-.37,0-.37.13a.675.675,0,0,0,.02.14c.04.14.08.26.11.36.09.34.14.5.25.5a.164.164,0,0,0,.15-.1c.06-.12.05-.12.22-.15.65-.11,1.31-.24,1.95-.4.26-.06.33-.09.33-.4,0-.15.01-.49-.19-.49-.09,0-.83.16-1,.19h-.06c-.15,0-.2-.11-.2-.24v-.41c0-.2.08-.28.27-.28h.67c.2,0,.28.06.34.26.24.8.75,1.91,1.73,1.91.82,0,1.13-1.06,1.13-1.41,0-.29-.49-.38-.7-.38-.16,0-.17.07-.21.27-.03.13-.11.55-.28.55-.28,0-.58-.72-.68-.95a.22.22,0,0,1-.01-.08c0-.12.1-.16.2-.17h.19c.38,0,.75.02,1.13.02.22,0,.22-.09.22-.43s0-.44-.22-.44c-.38,0-.75.02-1.13.02h-.36c-.21,0-.27-.06-.31-.26l-.03-.32C121.67-7.12,121.74-7.18,121.94-7.23Zm7.52,2.3a1.156,1.156,0,0,0-1.22,1.21,1.035,1.035,0,0,0,1.09,1.05,1.152,1.152,0,0,0,1.2-1.21A1.024,1.024,0,0,0,129.46-4.93Zm10.14,3.5A10.7,10.7,0,0,0,141.98.12a7.481,7.481,0,0,0,1.25.51c.31,0,.59-.62.59-.76,0-.12-.12-.17-.22-.2a9.4,9.4,0,0,1-3.31-1.81.242.242,0,0,1-.1-.19.25.25,0,0,1,.08-.18,8.446,8.446,0,0,0,.9-1.31c.11-.2.13-.24.3-.27.06-.02.17-.05.17-.13s-.08-.12-.4-.29a3.075,3.075,0,0,0-.64-.26c-.08,0-.11.08-.15.14a6.023,6.023,0,0,1-.87,1.41.214.214,0,0,1-.16.1.234.234,0,0,1-.18-.11,8.435,8.435,0,0,1-.9-1.36c-.07-.13-.12-.21-.21-.21-.14,0-.78.36-.78.52a.394.394,0,0,0,.05.14,8.973,8.973,0,0,0,1.14,1.65.326.326,0,0,1,.08.19.252.252,0,0,1-.11.19,8.949,8.949,0,0,1-3.22,1.68c-.24.07-.4.1-.4.27s.27.74.51.74a1.578,1.578,0,0,0,.44-.11,10.384,10.384,0,0,0,3.36-1.91.355.355,0,0,1,.2-.08A.308.308,0,0,1,139.6-1.43Zm1.17-4.75c.07.01.12.04.12.11a.126.126,0,0,1-.07.1c-.07.04-.25.16-.25.26a8.154,8.154,0,0,0,2.53,2.15c.23,0,.61-.45.61-.65,0-.08-.07-.12-.13-.16a8.244,8.244,0,0,1-2.02-1.6.178.178,0,0,1-.04-.1c0-.08.06-.1.13-.11h.66c.41,0,.82.02,1.23.02.26,0,.26-.1.26-.48s.01-.48-.26-.48c-.41,0-.82.02-1.23.02h-2.1c-.2,0-.28-.08-.28-.28-.01-.35-.01-.51.12-.6.07-.05.13-.07.13-.14,0-.12-.2-.12-.3-.13-.2-.02-.7-.07-.89-.07-.1,0-.2.02-.2.14,0,.03.01.06.01.09a4.289,4.289,0,0,1,.04.71c0,.2-.08.28-.28.28H136.5c-.41,0-.82-.02-1.23-.02-.27,0-.26.1-.26.48s-.01.48.26.48c.41,0,.82-.02,1.23-.02h.63c.07.01.14.03.14.11a.149.149,0,0,1-.04.09,7.5,7.5,0,0,1-1.91,1.59c-.09.05-.24.11-.24.24,0,.18.38.6.6.6a.647.647,0,0,0,.31-.13,8.7,8.7,0,0,0,1.98-1.7c.06-.06.11-.13.2-.13.07-.01.22,0,.22-.1,0-.12-.37-.31-.48-.37a.119.119,0,0,1-.08-.1c0-.07.07-.09.13-.1Zm6.58-.21c0-.16-.56-.76-.7-.91q-.33-.36-.69-.69c-.08-.07-.15-.15-.24-.15-.17,0-.62.38-.62.54a.277.277,0,0,0,.13.2,12.93,12.93,0,0,1,1.29,1.38c.05.07.11.15.2.15C146.9-5.87,147.35-6.22,147.35-6.39ZM145.67.14c.26-.2.52-.4.77-.61a.265.265,0,0,1,.14-.05.215.215,0,0,1,.18.12,1.739,1.739,0,0,0,1.27.68,10.426,10.426,0,0,0,1.48.12c1.21.02,2.42.01,3.63,0,.38,0,.65.06.65-.67,0-.16-.01-.29-.19-.29-.07,0-.21.01-.28.01-.85.03-1.7.05-2.54.05h-.72a8.742,8.742,0,0,1-2.23-.19c-.65-.21-.65-.68-.65-1.25V-3.38c0-.28.02-.55.02-.83,0-.37-.21-.47-.56-.47-.2,0-.4.02-.6.02h-.31c-.17,0-.34-.03-.5-.03-.24,0-.22.14-.22.5,0,.33-.02.49.22.49.15,0,.34-.03.5-.03h.17c.19,0,.27.09.27.28v1.73a.418.418,0,0,1-.22.42c-.15.1-.59.4-.73.46-.3.14-.4.19-.4.28a1.776,1.776,0,0,0,.21.52c.23.44.26.53.36.53.14,0,.14-.14.15-.17A.242.242,0,0,1,145.67.14Zm3.63-3.51a.231.231,0,0,1-.24-.24v-.11a.231.231,0,0,1,.24-.24h.69a.231.231,0,0,1,.24.24v.11a.231.231,0,0,1-.24.24Zm2.83-.59a.223.223,0,0,1,.23.24v.11a.223.223,0,0,1-.23.24h-.74a.223.223,0,0,1-.23-.24v-.11a.223.223,0,0,1,.23-.24Zm.23-.94a.223.223,0,0,1-.23.24h-.74a.223.223,0,0,1-.23-.24V-5a.223.223,0,0,1,.23-.24h.74a.223.223,0,0,1,.23.24Zm-2.13,0a.231.231,0,0,1-.24.24h-.69a.231.231,0,0,1-.24-.24V-5a.231.231,0,0,1,.24-.24h.69a.231.231,0,0,1,.24.24ZM149.44-6c-.27,0-.55-.01-.83-.01s-.51.04-.51.38c0,.25.02.5.02.74v2.56c0,.37-.02.74-.02,1.1,0,.27.13.27.49.27.4,0,.49-.01.49-.28,0-.37-.02-.73-.02-1.09v-.08c0-.2.08-.28.28-.28h.61c.2,0,.28.08.28.27,0,.35-.03.7-.03,1.05,0,.29.11.29.49.29.4,0,.49-.01.49-.31,0-.34-.03-.69-.02-1.03,0-.2.08-.27.27-.27h.66c.19,0,.27.08.27.28v.25c0,.18-.02.29-.25.29-.13,0-.25-.01-.38-.01-.16,0-.18.16-.18.29,0,.64.23.62.45.62a1.839,1.839,0,0,0,1.11-.24.8.8,0,0,0,.22-.68c0-.21-.01-.42-.01-.63V-4.9c0-.24.01-.48.01-.73,0-.34-.22-.39-.51-.39-.22,0-.44.02-.66.02a.223.223,0,0,1-.13-.06,1.479,1.479,0,0,0-.35-.19.135.135,0,0,1-.08-.12.117.117,0,0,1,.08-.11c.31-.17.62-.34.92-.53.16-.1.65-.38.65-.58a.564.564,0,0,0-.55-.46c-.25,0-.5.01-.76.01h-2.49c-.36,0-.72-.02-1.08-.02-.28,0-.28.09-.28.38s-.01.37.28.37c.36,0,.72-.02,1.08-.02h1.74c.05,0,.24-.01.24.06s-.32.25-.5.36c-.06.03-.1.06-.12.07a.653.653,0,0,1-.24.06.779.779,0,0,1-.21-.04,7.081,7.081,0,0,0-1.05-.34c-.21,0-.45.33-.45.48,0,.12.12.16.51.29.19.07.46.16.81.29a.066.066,0,0,1,.04.05c0,.04-.02.05-.06.05Zm10.46.7a.231.231,0,0,1,.24-.24h1.01a.231.231,0,0,1,.24.24v.06a.231.231,0,0,1-.24.24h-1.01a.231.231,0,0,1-.24-.24Zm-1.28-.24a.231.231,0,0,1,.24.24v.06a.231.231,0,0,1-.24.24h-1.01a.231.231,0,0,1-.24-.24V-5.3a.231.231,0,0,1,.24-.24Zm2.83,3.37a.2.2,0,0,1,.19.19v.05a.178.178,0,0,1-.19.19h-1.36a.178.178,0,0,1-.19-.19v-.05a.2.2,0,0,1,.19-.19Zm-1.55-.87a.2.2,0,0,1,.19-.19h1.36a.2.2,0,0,1,.19.19V-3a.178.178,0,0,1-.19.19h-1.36A.178.178,0,0,1,159.9-3Zm2.78-.04c0-.14.02-.29.02-.44,0-.31-.16-.4-.45-.4-.27,0-.54.02-.81.02h-1.35c-.14,0-.19-.06-.19-.19v-.05c0-.14.06-.19.19-.19h.83c.31,0,.61.01.91.01.23,0,.56-.02.56-.32,0-.1-.02-.19-.02-.36v-.54c0-.17.02-.26.02-.36,0-.31-.34-.33-.57-.33-.3,0-.6.02-.9.02h-.83c-.14,0-.19-.06-.19-.19v-.06c0-.14.06-.19.19-.19h2.03c.41,0,.83.02,1.24.02.23,0,.22-.12.22-.39s.01-.38-.22-.38c-.41,0-.82.02-1.24.02h-1.94c-.19,0-.27-.08-.27-.28a.312.312,0,0,1,.1-.29c.07-.05.12-.08.12-.14,0-.12-.17-.12-.27-.13-.16-.02-.74-.08-.87-.08-.1,0-.18.02-.18.14,0,.02.01.06.01.09.02.14.03.28.04.42-.02.2-.09.27-.28.27h-1.95c-.41,0-.83-.02-1.24-.02-.22,0-.22.1-.22.38s0,.39.22.39c.42,0,.83-.02,1.24-.02h2.04c.13,0,.19.05.19.19v.06a.165.165,0,0,1-.19.19h-.83c-.3,0-.6-.02-.9-.02-.23,0-.57.02-.57.33,0,.1.02.19.02.36V-5c0,.17-.02.26-.02.36,0,.3.34.32.57.32.3,0,.6-.01.9-.01h.83a.165.165,0,0,1,.19.19v.05a.165.165,0,0,1-.19.19h-2.06c-.25,0-.51-.02-.76-.02-.17,0-.17.09-.17.35s0,.36.18.36c.25,0,.5-.02.75-.02h2.06a.165.165,0,0,1,.19.19v.05c0,.13-.06.18-.19.18h-2.25c-.42,0-.85-.01-1.27-.01-.21,0-.2.12-.2.33s-.01.34.19.34c.43,0,.86-.02,1.28-.02h2.25a.165.165,0,0,1,.19.19v.06c0,.13-.06.18-.19.18h-1.56c-.4,0-.81-.01-1.22-.01-.23,0-.24.07-.24.35s.01.36.24.36c.41,0,.82-.02,1.22-.02h1.47c.19,0,.26.07.28.26-.02.39-.06.52-.56.52-.24,0-.43-.04-.56-.04-.15,0-.19.09-.19.23,0,.79.33.74.61.74.73,0,1.76-.02,1.76-.99,0-.1,0-.36-.01-.46.01-.19.08-.26.27-.26h1.3c.09,0,.12.05.16.12.05.12.19.12.49.12.42,0,.58.01.58-.23,0-.19-.03-.45-.03-.71v-.13a.235.235,0,0,1,.27-.27c.21,0,.42.01.63.01s.2-.11.2-.34c0-.21.01-.33-.2-.33s-.42,0-.64.01C162.77-2.82,162.69-2.9,162.68-3.08Zm3.57.31a.286.286,0,0,1,.28-.28h.96a.286.286,0,0,1,.28.28v1.21a.286.286,0,0,1-.28.28h-.96a.286.286,0,0,1-.28-.28Zm2.61-.75a.517.517,0,0,0,.28.13c.16,0,.26-.23.39-.47.02-.05.04-.1.1-.1s.08.08.09.12a8.251,8.251,0,0,0,.79,1.77.361.361,0,0,1,.06.2.288.288,0,0,1-.09.21A7.29,7.29,0,0,1,168.9-.31a.14.14,0,0,1-.09.03c-.09,0-.12-.08-.13-.15-.01-.21-.01-.42-.01-.62V-2.99c0-.15,0-.29.01-.44,0-.06.03-.12.1-.12C168.81-3.55,168.83-3.53,168.86-3.52Zm2.18.63a7.6,7.6,0,0,1-.8-2.16,1.224,1.224,0,0,1-.03-.17c0-.14.12-.16.22-.16h1.33c.13,0,.23.05.23.2v.06a7.891,7.891,0,0,1-.68,2.23.157.157,0,0,1-.14.09A.154.154,0,0,1,171.04-2.89Zm-4.73-1.05c-.17,0-.34-.01-.51-.01-.29,0-.46.08-.46.4,0,.19.01.37.01.56V-.75c0,.33-.01.66-.01.99,0,.23.1.23.46.23.47,0,.46-.01.46-.3V-.04c0-.24.03-.35.35-.35h.81c.16,0,.31.03.34.21.03.16.03.19.46.19.06,0,.12-.01.18-.01a.15.15,0,0,1,.15.11c.07.15.38.53.56.53a.876.876,0,0,0,.32-.16,9.134,9.134,0,0,0,1.61-1.36.223.223,0,0,1,.18-.1.243.243,0,0,1,.18.09A8.7,8.7,0,0,0,173.04.49a.585.585,0,0,0,.27.14c.22,0,.57-.49.57-.69,0-.09-.1-.14-.17-.18a8.16,8.16,0,0,1-1.75-1.4.3.3,0,0,1-.1-.22.424.424,0,0,1,.06-.19,8.119,8.119,0,0,0,.95-2.67.287.287,0,0,1,.17-.24c.05-.04.14-.09.14-.15,0-.11-.13-.14-.32-.18-.04-.01-.1-.03-.15-.04a.022.022,0,0,1-.02-.02.027.027,0,0,1,.03-.03c.28,0,.62.02.89.02.22,0,.22-.12.22-.47,0-.38.01-.49-.23-.49-.34,0-.68.02-1.02.02h-1.75c-.11,0-.2-.04-.2-.17a.22.22,0,0,1,.01-.08c.13-.42.2-.69.25-.88.08-.31.1-.4.22-.46.05-.03.12-.07.12-.13,0-.1-.21-.13-.29-.15-.14-.03-.66-.17-.78-.17s-.12.09-.13.18a10.7,10.7,0,0,1-.25,1.09,12.691,12.691,0,0,1-1.15,2.8c-.14.26-.16.32-.35.32h-.12c-.12,0-.24.01-.36.01-.2-.01-.27-.09-.27-.28V-5.4c0-.2.09-.28.28-.28h.15c.31,0,.64.02.93.02.22,0,.2-.14.2-.48s.02-.47-.2-.47c-.31,0-.62.02-.93.02h-.15c-.19,0-.28-.08-.28-.28v-.56c0-.37.01-.49.12-.57.06-.04.13-.08.13-.15,0-.12-.14-.13-.23-.14-.16-.02-.69-.07-.84-.07-.09,0-.16.04-.16.15v.1a3.824,3.824,0,0,1,.03.59v.65c0,.2-.08.28-.28.28h-.17c-.32,0-.63-.02-.93-.02-.21,0-.2.12-.2.47s-.01.48.2.48c.29,0,.62-.02.93-.02h.17c.2,0,.28.08.28.28v1.18C166.58-4.02,166.5-3.95,166.31-3.94Zm13.15-.99a1.156,1.156,0,0,0-1.22,1.21,1.035,1.035,0,0,0,1.09,1.05,1.152,1.152,0,0,0,1.2-1.21A1.024,1.024,0,0,0,179.46-4.93Zm9.55,2.8a.217.217,0,0,1,.2-.14c.06-.01.15-.03.15-.12,0-.06-.04-.08-.12-.12-.03-.02-.05-.02-.05-.04s.01-.02.04-.02h2.49c.42,0,.83.02,1.25.02.23,0,.22-.18.22-.49s.01-.5-.22-.5c-.42,0-.83.02-1.25.02H187c-.41,0-.83-.02-1.24-.02-.23,0-.22.17-.22.5,0,.31-.01.49.22.49.41,0,.83-.02,1.24-.02h.79c.1.01.19.04.19.15a.239.239,0,0,1-.02.09c-.24.51-.47,1-.75,1.49a.383.383,0,0,1-.39.24l-.46.03c-.43.03-.5,0-.5.14a5.728,5.728,0,0,0,.16.69c.07.23.1.37.21.37.05,0,.08-.04.11-.08.06-.1.1-.13.19-.14.96-.07,1.65-.13,2.49-.2.82-.07,1.63-.15,2.45-.23.02,0,.04-.01.07-.01a.349.349,0,0,1,.32.21c.05.07.09.14.12.19.15.24.2.32.32.32.16,0,.8-.25.8-.44a8.819,8.819,0,0,0-.82-1.29c-.23-.33-.54-.74-.8-1.05a.288.288,0,0,0-.23-.14c-.17,0-.76.28-.76.45a3.751,3.751,0,0,0,.44.6.223.223,0,0,1,.09.17c0,.1-.06.13-.14.14-.79.08-1.58.14-2.36.18-.09,0-.16-.03-.16-.13a.14.14,0,0,1,.03-.09C188.59-1.27,188.83-1.75,189.01-2.13Zm.55-4.86a14.534,14.534,0,0,0,1.5,1.54.123.123,0,0,1,.04.08c0,.07-.06.09-.11.1-.24.01-.47.01-.7.01h-1.83c-.22,0-.44-.01-.66-.01-.05-.01-.1-.03-.1-.1a.091.091,0,0,1,.04-.08,12.662,12.662,0,0,0,1.49-1.53.22.22,0,0,1,.16-.09A.214.214,0,0,1,189.56-6.99Zm-2.24,2.21c0,.28,0,.46.2.46.28,0,.63-.02.94-.02h1.83c.3,0,.68.02.93.02.19,0,.21-.13.21-.38v-.21c.01-.06.03-.13.11-.13a.091.091,0,0,1,.07.03,8.4,8.4,0,0,0,1.84,1.08c.22,0,.49-.58.49-.77,0-.12-.1-.15-.33-.26a9.834,9.834,0,0,1-3.55-2.85c-.01-.01-.01-.02-.01-.04a.063.063,0,0,1,.05-.06c.08-.02.19-.05.19-.15,0-.08-.08-.12-.15-.14-.16-.04-.92-.23-1.03-.23-.09,0-.15.09-.19.16a9.7,9.7,0,0,1-3.75,3.38c-.12.06-.26.11-.26.23,0,.21.32.71.54.71a6.709,6.709,0,0,0,1.67-1.01.14.14,0,0,1,.09-.03c.08,0,.1.07.11.13Zm14.56-.61c-.2,0-.28-.08-.28-.27V-7.27c0-.34.01-.55.11-.63.06-.06.12-.09.12-.16,0-.09-.1-.11-.17-.12-.14-.02-.83-.09-.95-.09-.1,0-.18.02-.18.14a.375.375,0,0,0,.01.1,4.867,4.867,0,0,1,.03.69v1.68c0,.19-.08.27-.27.27h-.09c-.36,0-.73-.02-1.1-.02-.25,0-.23.12-.23.5s-.02.5.23.5c.37,0,.74-.02,1.1-.02h.09c.19,0,.27.08.27.28V-1c0,.2-.08.28-.27.28h-.88c-.36,0-.73-.03-1.1-.03-.24,0-.23.13-.23.5s-.01.51.23.51c.37,0,.74-.03,1.1-.03h3.08c.37,0,.74.03,1.11.03.24,0,.23-.13.23-.51,0-.36.01-.5-.23-.5-.37,0-.74.03-1.11.03h-.62c-.2,0-.28-.08-.28-.28V-4.15c0-.2.08-.28.28-.28h.23c.37,0,.73.02,1.1.02.24,0,.23-.12.23-.5s.01-.5-.23-.5c-.37,0-.74.02-1.1.02Zm-4.37,2.67c.14.16.82.85.99.85.21,0,.59-.46.59-.63,0-.09-.1-.17-.17-.22a10.81,10.81,0,0,1-1.15-.98.321.321,0,0,1-.1-.2.386.386,0,0,1,.08-.2,6.466,6.466,0,0,0,1.09-1.83c0-.12-.22-.63-.66-.63-.19,0-.38.02-.58.01s-.26-.09-.26-.28v-.61c0-.28.01-.39.11-.46s.17-.1.17-.19c0-.13-.14-.14-.24-.15-.2-.02-.73-.08-.92-.08-.09,0-.17.02-.17.14a.277.277,0,0,0,.01.09,4.572,4.572,0,0,1,.03.64v.62c0,.2-.07.28-.27.28-.26.01-.63-.02-.82-.02-.21,0-.2.12-.2.49s-.02.51.21.51c.25,0,.62-.03.94-.03h1.13c.12,0,.23.01.23.08a2.034,2.034,0,0,1-.27.47,11.48,11.48,0,0,1-2.2,2.31c-.09.07-.25.17-.25.29,0,.15.4.63.6.63s.54-.36.69-.5a.149.149,0,0,1,.09-.04c.08,0,.1.07.11.13V-.87c0,.41-.03.83-.03,1.24,0,.29.11.3.53.3s.53-.01.53-.3c0-.42-.03-.83-.03-1.24V-2.64c.01-.05.03-.12.1-.12A.149.149,0,0,1,197.51-2.72ZM214.02-.01c0-.09-.08-.13-.17-.18a7.036,7.036,0,0,1-1.11-.84c-.06-.06-.16-.17-.24-.17-.17,0-.6.45-.6.56A5,5,0,0,0,213.46.61C213.64.61,214.02.16,214.02-.01Zm-5.77-7.27c.33,0,.66.02.99.02.22,0,.21-.13.21-.39s.01-.39-.21-.39c-.33,0-.66.02-.99.02H206.2c-.33,0-.66-.02-.99-.02-.21,0-.21.12-.21.39s0,.39.22.39c.33,0,.66-.02.98-.02Zm-1.8,1.6a.174.174,0,0,1-.19-.19v-.11a.178.178,0,0,1,.19-.19h1.86a.184.184,0,0,1,.19.19v.11a.174.174,0,0,1-.19.19Zm.39.68c.1.01.18.04.18.15a.144.144,0,0,1-.02.07,8.19,8.19,0,0,1-.63,1.34.084.084,0,0,1-.07.04c-.04,0-.06-.04-.06-.08,0-.35.02-.69.02-1.04v-.2c0-.2.08-.28.27-.28Zm1.03,3.84a.174.174,0,0,1,.19.19v.09a.184.184,0,0,1-.19.19h-.2a.2.2,0,0,1-.19-.19V-.97a.178.178,0,0,1,.19-.19Zm0-1.04a.184.184,0,0,1,.19.19v.08a.174.174,0,0,1-.19.19h-.2a.184.184,0,0,1-.19-.19v-.08a.2.2,0,0,1,.19-.19Zm0-1.04a.174.174,0,0,1,.19.19v.08a.174.174,0,0,1-.19.19h-.2a.184.184,0,0,1-.19-.19v-.08a.184.184,0,0,1,.19-.19Zm-.08-.68c-.04,0-.19,0-.19-.15a.647.647,0,0,1,.04-.13c.05-.11.12-.31.18-.32s.17-.03.17-.11c0-.1-.13-.13-.54-.28a.045.045,0,0,1-.03-.04c0-.03.02-.05.06-.05h.72c.24,0,.47.02.71.02.27,0,.51-.03.51-.37,0-.18-.01-.36-.01-.53v-.07c0-.18.02-.35.02-.53,0-.34-.25-.37-.53-.37-.23,0-.46.02-.7.02h-1.65c-.25,0-.5-.03-.75-.03-.35,0-.46.1-.46.4,0,.17.01.34.01.51v1.82a12.632,12.632,0,0,1-.43,3.83c-.02.07-.15.41-.15.46,0,.17.53.41.69.41.13,0,.17-.12.22-.26a9.793,9.793,0,0,0,.5-2.63.092.092,0,0,1,.09-.1.186.186,0,0,1,.07.02.326.326,0,0,0,.19.08.185.185,0,0,0,.07-.02.075.075,0,0,1,.05-.01c.04,0,.05.02.06.06V-.41c0,.27-.02.53-.02.8,0,.23.06.26.4.26s.41-.02.41-.25V.25c0-.19.08-.27.27-.27h1.14c.09.01.13.07.18.17.08.15.4.5.58.5a6.373,6.373,0,0,0,1.36-1.01c.06-.06.1-.1.17-.1.03,0,.07.01.09.01a.1.1,0,0,0,.11-.09,2.484,2.484,0,0,0-.76-.65c-.05,0-.09.05-.16.12a4.006,4.006,0,0,1-.62.55.158.158,0,0,1-.04.01.06.06,0,0,1-.05-.05c-.01-.1-.03-.15-.17-.15-.11,0-.48.01-.63.02-.13-.01-.19-.06-.19-.19v-.1c0-.12.05-.18.18-.18.11,0,.28.01.38.01.16,0,.16-.07.16-.3s0-.31-.16-.31c-.11,0-.26.02-.38.02s-.18-.06-.18-.19v-.08c0-.12.05-.18.18-.19.1.01.3.02.39.02.16,0,.16-.09.16-.3,0-.23.01-.32-.17-.32-.12,0-.25.02-.38.02s-.18-.07-.18-.19v-.08c0-.13.05-.19.18-.19.19-.01.37.02.56.02.16,0,.17-.08.17-.36s-.01-.35-.18-.35c-.09,0-.23,0-.32.01-.09-.01-.17-.04-.17-.15a.292.292,0,0,1,.02-.09c.03-.05.05-.11.08-.16a.154.154,0,0,1,.13-.09c.06-.01.13-.01.13-.09s-.1-.12-.17-.15a4.962,4.962,0,0,0-.68-.23c-.07,0-.08.05-.1.1-.08.23-.17.45-.27.67a.286.286,0,0,1-.32.19Zm3.45,1.76a.286.286,0,0,1-.28-.28v-.09a.286.286,0,0,1,.28-.28h1a.286.286,0,0,1,.28.28v.09a.286.286,0,0,1-.28.28Zm-.04-1.39a.231.231,0,0,1-.24-.24v-.09a.231.231,0,0,1,.24-.24h1.08a.231.231,0,0,1,.24.24v.09a.231.231,0,0,1-.24.24Zm0-1.33a.231.231,0,0,1-.24-.24v-.11a.231.231,0,0,1,.24-.24h1.08a.231.231,0,0,1,.24.24v.11a.231.231,0,0,1-.24.24Zm1.52-2.22c.3,0,.6.02.91.02.22,0,.2-.12.2-.47s.02-.47-.2-.47c-.31,0-.61.02-.91.02h-1.87c-.31,0-.61-.02-.92-.02-.21,0-.2.12-.2.47s-.01.47.2.47c.31,0,.61-.02.92-.02h.06c.1,0,.21.03.21.16a.235.235,0,0,1-.02.08,2.489,2.489,0,0,1-.11.29.34.34,0,0,1-.37.24c-.05,0-.1-.01-.15-.01-.33,0-.47.1-.47.45,0,.25.01.51.01.76V-2.5c0,.25-.01.5-.01.75,0,.35.13.45.47.45.21,0,.43-.01.64-.01h1.27c.22,0,.44.01.66.01.33,0,.46-.11.46-.45,0-.25-.02-.5-.02-.75V-5.13c0-.25.02-.51.02-.76,0-.35-.14-.45-.48-.45-.21,0-.42.02-.64.02h-.21c-.04,0-.2-.01-.2-.16a.292.292,0,0,1,.02-.09c.04-.09.08-.19.12-.29a.314.314,0,0,1,.36-.24Zm8.11,1.3a.231.231,0,0,1,.24-.24h1.16a.223.223,0,0,1,.23.24v.08a.223.223,0,0,1-.23.24h-1.16a.231.231,0,0,1-.24-.24Zm1.4-1.45a.218.218,0,0,1,.23.24v.06a.223.223,0,0,1-.23.24h-1.16a.231.231,0,0,1-.24-.24v-.06a.226.226,0,0,1,.24-.24Zm-.04,2.53c.19,0,.27.08.27.28V-.88c0,.34.01.52-.4.52-.19,0-.37-.02-.56-.02s-.22.09-.22.25c0,.73.24.75.59.75a2.273,2.273,0,0,0,1.26-.28.97.97,0,0,0,.35-.89c0-.32-.02-.63-.02-.95V-6.59c0-.31.01-.62.01-.93,0-.41-.15-.51-.54-.51-.25,0-.5.02-.76.02h-1.02c-.26,0-.51-.02-.77-.02-.37,0-.54.11-.54.5,0,.31.02.63.02.94v.45c0,.31-.02.62-.02.94,0,.4.18.5.55.5.25,0,.5-.02.76-.02Zm-5.88-1.09a.231.231,0,0,1,.24-.24h1.16a.231.231,0,0,1,.24.24v.09a.231.231,0,0,1-.24.24h-1.16a.231.231,0,0,1-.24-.24Zm1.4-1.44a.226.226,0,0,1,.24.24v.05a.226.226,0,0,1-.24.24h-1.16a.226.226,0,0,1-.24-.24v-.05a.226.226,0,0,1,.24-.24Zm-1.4,2.81c0-.2.08-.28.28-.28h1.05c.26,0,.51.02.77.02.37,0,.53-.11.53-.5,0-.32-.01-.63-.01-.94v-.45c0-.31.01-.63.01-.94,0-.4-.17-.5-.55-.5-.25,0-.5.02-.75.02H216.6c-.25,0-.51-.02-.76-.02-.38,0-.54.11-.54.51,0,.31.02.62.02.93v5.45c0,.49-.03.98-.03,1.48,0,.31.11.32.53.32s.52-.01.52-.33c0-.49-.03-.98-.03-1.47Zm2.58,2.71c-.17,0-.26-.1-.28-.28V-2.6a.286.286,0,0,1,.28-.28h.98a.286.286,0,0,1,.28.28v.59a.28.28,0,0,1-.28.28Zm1.01.84c.16,0,.23.06.23.22v.08c0,.21.12.21.47.21.37,0,.48,0,.48-.22,0-.24-.02-.49-.02-.74V-2.75c0-.19.01-.38.01-.56,0-.35-.2-.42-.51-.42-.22,0-.43.01-.65.01h-1.1c-.21,0-.43-.01-.64-.01-.29,0-.52.06-.52.39,0,.2.02.39.02.59v1.4c0,.25-.02.5-.02.75,0,.21.11.21.49.21.36,0,.49.01.49-.21V-.66c0-.16.06-.23.23-.23Zm8.81-5.13c.11,0,.16.08.16.18a10.17,10.17,0,0,1-.32,1.95c-.28,1.02-.84,2.16-1.34,2.16s-.64-.93-.64-1.3a3.094,3.094,0,0,1,1.8-2.88A1.125,1.125,0,0,1,228.71-6.02Zm.96-1.17a4.12,4.12,0,0,0-4.15,4.2,3.135,3.135,0,0,0,.31,1.42,1.612,1.612,0,0,0,1.36.95,1.791,1.791,0,0,0,1.32-.77,8.018,8.018,0,0,0,1.42-4.39c.01-.17.01-.39.24-.39a1.746,1.746,0,0,1,.38.09,2.426,2.426,0,0,1,1.6,2.39,2.69,2.69,0,0,1-2.34,2.6c-.1.02-.25.04-.25.14,0,.22.41.84.67.84a3.891,3.891,0,0,0,1.09-.4,3.593,3.593,0,0,0,1.95-3.23,3.382,3.382,0,0,0-1.01-2.46A3.556,3.556,0,0,0,229.67-7.19Zm7.85,4.23c0-.19-.61-.55-.7-.55-.07,0-.1.06-.13.15a16.963,16.963,0,0,1-1.65,2.87c-.04.06-.12.15-.12.22,0,.09.33.35.43.43a2.059,2.059,0,0,0,.48.33.122.122,0,0,0,.11-.13c0-.07-.03-.15-.03-.22a.629.629,0,0,1,.12-.28A27,27,0,0,0,237.52-2.96Zm-.07-4.06a.253.253,0,0,0-.1-.17c-.14-.11-.52-.39-.68-.5a2.664,2.664,0,0,0-.75-.47c-.19,0-.55.55-.55.65s.08.13.18.19a9.382,9.382,0,0,1,.94.67,1.211,1.211,0,0,0,.4.26C237.11-6.39,237.45-6.91,237.45-7.02Zm-.44,2.19c0-.15-.57-.54-.7-.64a3.97,3.97,0,0,0-.87-.54c-.17,0-.53.5-.53.65,0,.09.08.12.2.2a12.451,12.451,0,0,1,1.1.81c.07.05.18.16.26.16C236.68-4.19,237.01-4.71,237.01-4.83Zm4.8,3.79c-.72.08-1.44.14-2.16.19-.08,0-.16-.03-.16-.13,0-.03.02-.05.03-.08.35-.61.67-1.24.99-1.86.03-.06.08-.07.14-.08s.2-.01.2-.11-.14-.15-.23-.19c-.01-.01-.02-.02-.02-.03s.02-.02.03-.02h1.77c.39,0,.78.02,1.17.02.26,0,.25-.1.25-.46s.01-.47-.25-.47c-.39,0-.78.02-1.17.02h-.98c-.2,0-.28-.08-.28-.28v-.92c0-.2.08-.28.28-.28h.82c.36,0,.71.03,1.07.03.21,0,.2-.12.2-.48s.01-.48-.21-.48c-.28,0-.69.02-1.06.02h-.82c-.2,0-.28-.08-.28-.28v-.5c0-.3.01-.44.11-.52.07-.05.13-.08.13-.15,0-.11-.14-.12-.22-.13-.17-.02-.77-.08-.91-.08-.1,0-.18.02-.18.14a.34.34,0,0,0,.01.1,5.706,5.706,0,0,1,.03.74v.4c0,.2-.08.28-.28.28h-.67c-.37,0-.77-.02-1.06-.02-.23,0-.21.13-.21.49,0,.34-.01.47.21.47.35,0,.71-.03,1.06-.03h.67c.2,0,.28.08.28.28v.92c0,.2-.08.28-.28.28h-.88c-.39,0-.78-.02-1.17-.02-.26,0-.25.1-.25.47s-.01.46.25.46c.39,0,.78-.02,1.17-.02h.35c.1.01.19.05.19.16a.169.169,0,0,1-.03.1c-.34.77-.64,1.36-1.03,2.1a.376.376,0,0,1-.37.23,3.389,3.389,0,0,1-.45.02c-.26,0-.37,0-.37.15a4.707,4.707,0,0,0,.17.67c.08.28.11.39.24.39.09,0,.11-.06.15-.13.05-.11.08-.13.13-.13,1.43-.12,2.85-.23,4.28-.42h.07a.291.291,0,0,1,.29.21c.05.12.1.24.13.32.11.27.14.36.28.36.16,0,.81-.23.81-.44a13.673,13.673,0,0,0-.84-1.88,8.511,8.511,0,0,0-.59-.96.206.206,0,0,0-.17-.1c-.13,0-.79.21-.79.4a6.937,6.937,0,0,0,.47.86.745.745,0,0,1,.11.24C241.98-1.1,241.9-1.05,241.81-1.04Zm5.81-6.82c0-.1-.15-.14-.32-.2a4.02,4.02,0,0,0-.67-.22c-.08,0-.11.07-.14.13a9.3,9.3,0,0,1-1.45,1.96c-.08.08-.17.15-.17.25,0,.18.46.56.61.56.32,0,1.56-1.83,1.76-2.17.09-.15.11-.17.23-.19C247.53-7.75,247.62-7.78,247.62-7.86Zm3.44,3.03a.231.231,0,0,1,.24-.24h.57a.223.223,0,0,1,.23.24v.13a.215.215,0,0,1-.23.23h-.57a.223.223,0,0,1-.24-.23Zm.24-1.07a.223.223,0,0,1-.24-.23v-.13a.231.231,0,0,1,.24-.24h.57a.223.223,0,0,1,.23.24v.13a.215.215,0,0,1-.23.23Zm-2.02,0c-.37,0-.73-.02-1.1-.02-.09,0-.18.01-.22.1a.075.075,0,0,1-.07.06c-.01,0-.02-.01-.04-.01a6.246,6.246,0,0,0-.86-.33c-.1,0-.13.08-.17.17a10.624,10.624,0,0,1-1.87,2.59c-.06.06-.15.14-.15.23,0,.17.45.61.61.61.13,0,.36-.26.45-.36a.1.1,0,0,1,.08-.04c.07,0,.09.06.09.12V-.82c0,.4-.02.8-.02,1.19,0,.3.11.31.52.31s.51-.01.51-.31c0-.39-.02-.79-.02-1.19v-2.6c0-.27.01-.39.11-.45.08-.04.13-.06.13-.13,0-.14-.16-.14-.24-.15-.04-.01-.08-.03-.08-.08,0-.03,0-.04.02-.06.18-.28.44-.69.6-.98.12-.23.16-.24.29-.27h.02a.067.067,0,0,1,.07.05.127.127,0,0,0-.01.06c0,.29.02.38.24.38.37,0,.74-.02,1.11-.02h.54c.17,0,.24.07.24.24v.13c0,.16-.08.23-.24.23h-.56c-.29,0-.59-.02-.89-.02-.21,0-.21.1-.21.45s0,.44.22.44c.3,0,.59-.02.88-.02h.56c.16,0,.24.07.24.24v.07c0,.17-.08.24-.24.24h-.62c-.37,0-.74-.02-1.11-.02-.24,0-.24.12-.24.44s-.01.44.24.44c.37,0,.74-.03,1.11-.03h.62c.16,0,.24.07.24.24v.09c0,.17-.08.24-.24.24h-1.05c-.37,0-.74-.02-1.11-.02-.24,0-.24.11-.24.44s0,.44.24.44c.37,0,.74-.02,1.11-.02h1.01c.17,0,.27.07.27.25.01.32-.02.64-.02.96s.1.32.54.32c.41,0,.52-.01.52-.31,0-.32-.03-.64-.02-.97,0-.18.09-.25.27-.25h1.17c.36,0,.73.02,1.1.02.25,0,.24-.12.24-.44s.01-.44-.24-.44c-.37,0-.74.02-1.1.02H251.3c-.17,0-.24-.07-.24-.24V-2c0-.17.07-.24.24-.24h.75c.37,0,.74.03,1.11.03.24,0,.24-.1.24-.44s0-.44-.23-.44c-.38,0-.75.02-1.12.02h-.75c-.17,0-.24-.07-.24-.24v-.07c0-.17.07-.24.24-.24h.6c.21,0,.43.01.65.01.35,0,.49-.1.49-.46,0-.24-.02-.48-.01-.71,0-.19.07-.27.26-.28.11,0,.22.01.34.01.25,0,.24-.12.24-.43s.01-.44-.24-.44c-.12,0-.23.01-.34.01-.19,0-.26-.08-.26-.27-.01-.23.01-.46.01-.69,0-.37-.15-.47-.5-.47-.22,0-.43.02-.64.02h-.56c-.19,0-.27-.07-.28-.27.01-.18.01-.29.12-.38.07-.05.13-.07.13-.14,0-.12-.17-.12-.26-.13-.23-.01-.64-.04-.86-.04-.09,0-.18.01-.18.13,0,.03.01.07.01.1.01.15.03.33.03.48-.01.19-.1.25-.27.25h-.52c-.29,0-.59-.02-.89-.02-.21,0-.21.1-.21.43,0,.35,0,.43.22.43.3,0,.59-.02.88-.02h.56c.17,0,.24.08.24.24v.13c0,.16-.08.23-.24.23Zm10.88,3.66a.286.286,0,0,1,.28-.28h1.65a.279.279,0,0,1,.28.28v.91a.279.279,0,0,1-.28.28h-1.65a.286.286,0,0,1-.28-.28Zm0-2.21a.265.265,0,0,1,.28-.27h1.65c.18,0,.26.1.28.27v.78a.279.279,0,0,1-.28.28h-1.65a.286.286,0,0,1-.28-.28Zm.28-1.14a.28.28,0,0,1-.28-.28v-.67a.286.286,0,0,1,.28-.28h1.65a.279.279,0,0,1,.28.28v.67a.273.273,0,0,1-.28.28ZM262.35.25c0,.26.16.25.51.25.39,0,.51,0,.51-.27,0-.39-.02-.78-.02-1.17V-6.37c0-.3.02-.61.02-.91,0-.38-.12-.48-.49-.48-.22,0-.45.01-.67.01h-1.88c-.23,0-.46-.01-.69-.01-.37,0-.47.12-.47.48,0,.31.01.61.01.91V-.94c0,.39-.02.77-.02,1.16,0,.28.12.28.52.28s.5,0,.5-.28V.09c0-.16.07-.23.23-.23h1.71c.16,0,.23.07.23.23Zm-4.81-3.74a6.317,6.317,0,0,0,.54.71.262.262,0,0,0,.2.14.884.884,0,0,0,.56-.57c0-.08-.09-.16-.15-.22a13.647,13.647,0,0,1-1.22-1.51.293.293,0,0,1-.07-.22c.01-.19.09-.27.28-.27h.1c.29,0,.58.03.78.03.23,0,.22-.15.22-.5,0-.37.01-.5-.23-.5-.21,0-.48.02-.77.02h-.1c-.19,0-.28-.08-.28-.28v-.76c0-.29.01-.48.11-.56.07-.06.11-.08.11-.14,0-.11-.14-.12-.22-.13-.15-.02-.72-.08-.85-.08-.09,0-.17.02-.17.14a.277.277,0,0,0,.01.09,5.009,5.009,0,0,1,.03.68v.76c0,.2-.08.28-.28.28h-.2c-.29,0-.56-.02-.77-.02-.24,0-.23.13-.23.5,0,.35-.01.5.22.5.2,0,.49-.03.78-.03h.02c.12,0,.22.05.22.19,0,.02-.01.05-.01.08a12.2,12.2,0,0,1-1.34,3.02.642.642,0,0,0-.15.31c0,.2.42.55.61.55.12,0,.16-.09.22-.18a9,9,0,0,0,.83-1.81.045.045,0,0,1,.04-.03c.03,0,.04.03.04.05v2.18c0,.48-.02.95-.02,1.42,0,.29.11.3.51.3s.52-.01.52-.31c0-.47-.03-.94-.03-1.41V-3.44c0-.04.02-.09.07-.09A.1.1,0,0,1,257.54-3.49Zm16.17.33c0-.08-.11-.13-.17-.15s-.19-.07-.32-.12a2.521,2.521,0,0,0-.46-.16c-.06,0-.09.05-.12.11a5.982,5.982,0,0,1-.67.94c-.08.09-.16.17-.16.25,0,.18.53.44.67.44a.285.285,0,0,0,.22-.13,9.2,9.2,0,0,0,.69-.95c.06-.1.08-.12.2-.13C273.68-3.07,273.71-3.12,273.71-3.16Zm-3.84-.09c0-.13-.58-.25-.7-.28-.05-.01-.2-.05-.23-.05-.12,0-.14.11-.17.2a5.122,5.122,0,0,1-.43,1.06.455.455,0,0,0-.08.19c0,.22.58.33.69.33s.15-.06.2-.14c.1-.21.32-.74.4-.98.05-.16.08-.23.22-.25C269.81-3.18,269.87-3.2,269.87-3.25Zm-2.76-3.96c.24,0,.47.02.71.02s.22-.11.22-.41,0-.42-.23-.42c-.2,0-.45.02-.7.02h-.8c-.25,0-.5-.02-.7-.02-.24,0-.23.11-.23.42s-.01.41.22.41.47-.02.71-.02Zm5.72-.55c-.07,0-.1.06-.13.12a7.388,7.388,0,0,1-.76,1.07c-.05.05-.14.15-.14.22,0,.18.54.41.68.41.11,0,.18-.1.25-.18a8.5,8.5,0,0,0,.72-.98.28.28,0,0,1,.22-.14c.04-.01.1-.03.1-.09,0-.08-.14-.13-.21-.16A5.054,5.054,0,0,0,272.83-7.76Zm-5.71,4.6c.27,0,.47.02.67.02.23,0,.23-.11.23-.41s0-.4-.23-.4c-.13,0-.41.02-.67.02h-.86c-.25,0-.53-.02-.67-.02-.23,0-.22.11-.22.4s-.01.41.23.41c.17,0,.4-.02.66-.02Zm.01-1.35c.27,0,.53.02.67.02.23,0,.22-.11.22-.42s.01-.41-.22-.41c-.14,0-.41.02-.67.02h-.86c-.26,0-.53-.02-.67-.02-.23,0-.22.11-.22.41s-.01.42.22.42c.13,0,.4-.02.67-.02Zm3.72-1.2a.113.113,0,0,1,.11-.07.136.136,0,0,1,.11.07,4.71,4.71,0,0,0,1.54,1.63,2.937,2.937,0,0,0,.71.42c.21,0,.57-.5.57-.69,0-.05-.03-.09-.14-.15a4.425,4.425,0,0,1-2.29-2.41,1.154,1.154,0,0,1-.03-.26.34.34,0,0,1,.01-.1c0-.18.01-.36.01-.54.01-.08.02-.12.09-.16.05-.03.14-.08.14-.14,0-.11-.18-.11-.29-.13-.13-.01-.61-.06-.72-.06-.15,0-.19.07-.19.21a3.2,3.2,0,0,1-.43,2.04,4.15,4.15,0,0,1-1.69,1.33c-.13.05-.24.08-.24.19,0,.18.43.71.62.71A4.331,4.331,0,0,0,270.85-5.71ZM267.23-.95a.28.28,0,0,1-.28.28h-.5a.28.28,0,0,1-.28-.28v-.59c.02-.17.1-.27.28-.27h.5c.18,0,.26.1.28.27Zm.01,1.24c.03.08.1.11.4.11.34,0,.43-.02.43-.24,0-.25-.02-.49-.02-.74V-1.7c0-.16.01-.31.01-.46,0-.32-.1-.46-.43-.46-.13,0-.26.02-.39.02h-1.08c-.14,0-.27-.02-.4-.02-.32,0-.42.15-.42.46,0,.15.01.31.01.46V-.3c0,.24-.02.48-.02.72s.11.22.43.22c.34,0,.42.01.42-.24V.33c0-.2.05-.22.27-.22h.59C267.16.11,267.19.19,267.24.29Zm3.8-1.85A5.764,5.764,0,0,0,272.63.26c.11.09.44.35.58.35.22,0,.67-.48.67-.68,0-.07-.09-.12-.18-.17a6.3,6.3,0,0,1-1.44-1.18,3.065,3.065,0,0,1-.84-1.56,2.1,2.1,0,0,1-.02-.25c0-.2.02-.41.02-.61a.162.162,0,0,1,.1-.17c.04-.03.12-.08.12-.14,0-.11-.18-.11-.32-.13-.1-.01-.58-.05-.68-.05-.15,0-.19.06-.19.2a3.684,3.684,0,0,1-.72,2.59,4.5,4.5,0,0,1-1.48,1.23c-.07.04-.13.08-.13.16,0,.2.48.7.68.7a.966.966,0,0,0,.36-.19,4.14,4.14,0,0,0,1.66-1.92.121.121,0,0,1,.11-.08C270.98-1.64,271.01-1.6,271.04-1.56Zm-2.47-4.51a1.456,1.456,0,0,0,.47.16.212.212,0,0,0,.19-.12,8.355,8.355,0,0,0,.42-1.01c.06-.18.09-.28.17-.31.06-.01.17-.04.17-.12,0-.11-.22-.17-.52-.25a1.981,1.981,0,0,0-.41-.08c-.13,0-.14.09-.17.19a5.736,5.736,0,0,1-.38,1.05c-.02.04-.04.03-.05.03a.081.081,0,0,1-.06-.05c-.04-.09-.13-.09-.21-.09-.28,0-.56.01-.84.01h-1.34c-.28,0-.56-.01-.84-.01-.24,0-.24.1-.24.41s-.01.42.24.42c.28,0,.56-.02.84-.02h1.34c.28,0,.56.02.83.02.18,0,.22-.05.23-.15a.117.117,0,0,1,.11-.09C268.54-6.08,268.55-6.07,268.57-6.07Z" transform="translate(-17306 -19200.338)" fill="#ef8c37"/>
    <g id="グループ_899" data-name="グループ 899" transform="translate(-17306 -19188.609)">
      <path id="パス_84" data-name="パス 84" d="M97.042,29.2a66.583,66.583,0,0,1-5.658,3.571c-.469.261-.5.261-.548.548-.026.182-.13.338-.312.338-.235,0-.417-.26-.731-.756a2.225,2.225,0,0,0-.208-.313,3.922,3.922,0,0,1-.678-1.251c0-.261.312-.365.521-.443a37.353,37.353,0,0,0,6.153-3.624,1.074,1.074,0,0,1,.547-.26c.443,0,1.225,1.355,1.225,1.721a.6.6,0,0,1-.312.469M102.647,15.1c.469,0,.678-.182.7-.7,0-.261-.052-.7-.078-.965,0-.078-.026-.156-.026-.234,0-.287.26-.287.469-.287.391,0,1.956.1,2.373.156.156,0,.443.026.443.261,0,.156-.157.26-.287.339-.312.208-.312.39-.312.73-.026.5.26.7.73.7h1.669c1.043,0,2.06-.078,3.077-.078.626,0,.626.287.626,1.251s.026,1.226-.6,1.226c-1.043,0-2.06-.052-3.1-.052h-1.669c-.469,0-.7.182-.7.678,0,.234.026.469.026.7,0,.7-.313.678-1.408.678-.965,0-1.277.026-1.277-.652,0-.234.026-.469.026-.7,0-.5-.209-.7-.7-.7h-4.25c-.469,0-.678.208-.7.7a5.242,5.242,0,0,1,.026.652c0,.678-.286.678-1.381.678-.939,0-1.278.026-1.278-.626v-.7c0-.5-.208-.7-.7-.7H92.688c-1.017,0-2.06.052-3.077.052-.652,0-.6-.287-.6-1.226,0-.964-.026-1.251.6-1.251,1.017,0,2.06.078,3.077.078h1.669c.5,0,.678-.182.73-.7-.026-.339-.052-.678-.1-1.017v-.208c0-.287.234-.313.443-.313.391,0,1.773.1,2.216.13.234.026.6.052.6.287,0,.182-.156.26-.286.338-.287.183-.287.365-.313.783a.64.64,0,0,0,.73.7Zm-9.1,9.464c-.234,0-.39-.208-.547-.365a31.18,31.18,0,0,0-3.1-2.79c-.156-.13-.364-.286-.364-.5a2.478,2.478,0,0,1,1.46-1.433c.39,0,1.929,1.381,2.294,1.695s1.773,1.59,1.773,2.008c0,.39-1.095,1.381-1.512,1.381m7.822,0c0-.391-.287-.547-.652-.547h-.365a1.05,1.05,0,0,0-1.095.574c-.078.13-.182.287-.286.469-.469.756-1.122,1.825-1.512,1.825-.365,0-1.826-.938-1.826-1.3,0-.156.183-.339.261-.443a23.969,23.969,0,0,0,3.6-6.284c.052-.156.1-.312.312-.312a17,17,0,0,1,1.93.547c.417.13.73.208.73.443,0,.26-.286.312-.5.364s-.312.313-.521.757c-.052.1-.1.234-.156.365a.608.608,0,0,0-.052.208c0,.286.208.39.469.39h5.605c.809,0,1.642-.025,2.451-.025.469,0,.756.182,1.2.7a2.2,2.2,0,0,1,.547.991c0,.626-1.277,2.294-1.721,2.816-.261.339-1.121,1.486-1.538,1.486-.521,0-1.851-.861-1.851-1.356,0-.156.364-.469.574-.678l.13-.13c.208-.209.991-.991.991-1.252,0-.182-.261-.156-.365-.156h-3.077c-.312,0-.6.13-.6.5,0,.078.026.13.026.182a11.965,11.965,0,0,0,2.086,4.2,18.7,18.7,0,0,0,3.415,3.468,26.291,26.291,0,0,0,2.243,1.538c.13.078.312.208.312.364,0,.417-1.121,1.8-1.695,1.8a10.983,10.983,0,0,1-2.633-1.695,17.456,17.456,0,0,1-4.484-5.45c-.078-.1-.157-.208-.287-.208a.314.314,0,0,0-.286.208,13.785,13.785,0,0,1-6.675,6.7,5.005,5.005,0,0,1-1.043.443c-.547,0-1.538-1.616-1.538-1.93,0-.26.469-.443,1.017-.7,3.78-1.773,6.258-4.485,6.857-8.709Z" transform="translate(-88.908 -12.749)" fill="#ef8c37"/>
      <path id="パス_85" data-name="パス 85" d="M136.764,20.9c-.208.026-.443.1-.443.365a.42.42,0,0,0,.078.234,28.889,28.889,0,0,0,8.135,8.734c.208.131.547.339.547.626,0,.521-1.148,1.747-1.721,1.747-.443,0-1.747-1.147-2.112-1.46a34.452,34.452,0,0,1-6.074-7.117.263.263,0,0,0-.182-.1c-.131,0-.183.13-.183.234v7.457c0,1.278.052,2.555.052,3.832,0,.835-.286.835-1.433.835-1.121,0-1.434,0-1.434-.809,0-1.3.052-2.58.052-3.858V24.03c0-.1-.026-.235-.156-.235a.268.268,0,0,0-.183.1,26.377,26.377,0,0,1-7.535,8.212,2.1,2.1,0,0,1-.886.391c-.469,0-1.59-1.252-1.59-1.747,0-.312.312-.521.547-.678a25.76,25.76,0,0,0,8.186-8.578.622.622,0,0,0,.052-.234c0-.261-.208-.339-.443-.365h-4.25c-1.043,0-2.06.052-3.1.052-.652,0-.6-.287-.6-1.277,0-1.017-.026-1.3.6-1.3,1.042,0,2.059.052,3.1.052h5.554c.5,0,.7-.208.7-.7V15.425a13.291,13.291,0,0,0-.078-1.851.885.885,0,0,1-.026-.26c0-.313.208-.365.469-.365.338,0,1.9.156,2.32.208.209.026.7.026.7.365,0,.182-.156.261-.338.391-.261.208-.287.652-.287,1.459V17.72c0,.5.209.7.7.7h5.5c1.043,0,2.06-.052,3.1-.052.626,0,.6.287.6,1.3,0,.99.026,1.277-.6,1.277-1.043,0-2.06-.052-3.1-.052Z" transform="translate(-95.023 -12.766)" fill="#ef8c37"/>
      <path id="パス_86" data-name="パス 86" d="M167.977,14.629c.7.209,1.121.287,1.121.547,0,.156-.156.261-.261.339-.338.208-.417.338-.574.965-.026.156-.156.7-.156.808a.379.379,0,0,0,.365.391,2.1,2.1,0,0,0,.391-.078,20.71,20.71,0,0,0,3.076-.861,1.258,1.258,0,0,1,.443-.13c.626,0,.835,1.982.835,2.086,0,.5-.626.6-1.278.73-1.017.235-2.633.547-3.676.7-.6.1-.7.756-.7,1.043,0,.234.234.338.417.338.052,0,.13-.026.208-.026.521-.052,1.173-.13,1.695-.13,4.042,0,7.666,2.06,7.666,6.518,0,5.918-7.379,8.16-8.239,8.16-.574,0-1.2-1.59-1.2-2.085,0-.287.287-.313.574-.391,2.737-.731,6.1-2.294,6.1-5.58a3.588,3.588,0,0,0-2.607-3.728c-.391,0-.548.339-.7.652a23.483,23.483,0,0,1-3.493,4.979.682.682,0,0,0-.261.521c0,.078.131.834.157.965v.13c0,.5-1.408,1.381-1.982,1.381a.471.471,0,0,1-.443-.364c-.052-.13-.1-.261-.286-.261a.632.632,0,0,0-.287.1,7.486,7.486,0,0,1-3.858,1.407,2.91,2.91,0,0,1-2.947-3.129c0-3.467,3.311-6.648,6.258-8.056.156-.078.756-.208.756-1.459a.41.41,0,0,0-.443-.443c-.1,0-.469.052-.574.052-.964.078-1.929.208-2.894.208-1.147,0-1.3,0-1.3-1.225,0-1.3.156-1.382.626-1.382.443,0,.886.026,1.355.026.887,0,1.773-.026,2.659-.1a1,1,0,0,0,.7-.235,1.027,1.027,0,0,0,.26-.7c.13-.913.235-1.825.365-2.763.026-.234.13-.417.417-.417.182,0,1.433.417,1.721.5m-7.274,15.7c0,.5.235.782.73.782a6.914,6.914,0,0,0,3.129-1.459.944.944,0,0,0,.313-.809c0-.235-.078-1.33-.078-2.138,0-.261.026-.521.026-.757s-.052-.443-.313-.443c-.547,0-3.806,2.711-3.806,4.823m6.857-6.31c-.287.182-.261.7-.261,1.277v.313c0,.417.027,1.043.261,1.043.443,0,1.408-1.878,1.616-2.295a1.15,1.15,0,0,0,.156-.417c0-.183-.182-.235-.338-.235a3.71,3.71,0,0,0-1.434.313" transform="translate(-101.806 -12.987)" fill="#ef8c37"/>
      <path id="パス_87" data-name="パス 87" d="M197.867,14.347c.574.991,1.069,2.008,1.616,3.025a.764.764,0,0,0,.7.5,11.991,11.991,0,0,0,2.842-1.408,1.55,1.55,0,0,1,.7-.313c.521,0,1.669,1.564,1.669,2.034,0,.287-.443.5-.782.678a20.108,20.108,0,0,1-2.4,1.121c-.338.13-.86.234-.86.7a2.012,2.012,0,0,0,.443.991,29.942,29.942,0,0,0,3.78,5.736,1.228,1.228,0,0,1,.417.73c0,.574-1.3,1.721-1.851,1.721-.287,0-.678-.338-.991-.547a12.535,12.535,0,0,0-6.179-2.19,2.543,2.543,0,0,0-2.79,2.32c0,2.685,3.989,3.234,6,3.234.6,0,1.122-.052,1.46-.052.521,0,.6.364.6.834a4.847,4.847,0,0,1-.26,1.59c-.13.339-.339.443-.887.443a19.992,19.992,0,0,1-4.484-.6c-2.711-.678-5.163-2.243-5.163-5.319,0-3.1,2.581-4.98,5.5-4.98a8.274,8.274,0,0,1,3.259.757.934.934,0,0,0,.287.078.263.263,0,0,0,.287-.235,1.029,1.029,0,0,0-.157-.39c-.574-.887-.991-1.59-1.512-2.529-.234-.417-.417-.913-.99-.913a1.585,1.585,0,0,0-.339.078,36.253,36.253,0,0,1-6.179.991c-.574,0-.7-.208-.938-.938a5.04,5.04,0,0,1-.313-1.382c0-.417.286-.443.626-.469a29,29,0,0,0,5.215-.574c.286-.078.626-.156.626-.521a17.77,17.77,0,0,0-1.956-3.181.855.855,0,0,1-.182-.417c0-.521,2.164-1.069,2.529-1.069s.5.182.652.469" transform="translate(-107.828 -12.94)" fill="#ef8c37"/>
      <path id="パス_88" data-name="パス 88" d="M227.9,17.3c0,.287-.548.7-.757.887a18.328,18.328,0,0,0-3.363,4.25,12.208,12.208,0,0,0-1.9,6.2c0,2.321,1.07,4.015,3.546,4.015a5.521,5.521,0,0,0,4.407-2.216c1.433-1.93,1.695-5.032,1.695-7.379a16.7,16.7,0,0,0-1.147-6.6.906.906,0,0,1-.079-.364c0-.574,1.9-.913,2.4-.913.626,0,.652.391.73.887a17.716,17.716,0,0,0,3.806,7.587c.183.208.469.521.469.808,0,.574-1.773,1.408-2.112,1.408-.443,0-.912-1.043-1.095-1.408-.078-.208-.443-1.042-.652-1.042-.182,0-.182.208-.182.338,0,.417.052.809.052,1.2a14.512,14.512,0,0,1-1.226,6.048,7.741,7.741,0,0,1-6.987,4.276c-3.832,0-6.257-2.633-6.257-6.414a14.366,14.366,0,0,1,2.347-7.431.641.641,0,0,0,.1-.235.174.174,0,0,0-.182-.156,5.047,5.047,0,0,0-.861.313,5.989,5.989,0,0,1-1.2.417c-.286,0-.443-.338-.547-.547a7.123,7.123,0,0,1-.678-2.112c0-.339.234-.365.782-.417a14.285,14.285,0,0,0,4.068-.809,3.714,3.714,0,0,0,1.955-1.825c.157-.261.313-.626.652-.626.678,0,2.216,1.277,2.216,1.851" transform="translate(-113.024 -13.185)" fill="#ef8c37"/>
      <path id="パス_89" data-name="パス 89" d="M253.859,23.639c-.208,0-.5-.286-.678-.417a32.683,32.683,0,0,0-2.868-2.112c-.312-.208-.521-.286-.521-.521,0-.391.939-1.7,1.382-1.7a10.338,10.338,0,0,1,2.268,1.408c.339.26,1.826,1.277,1.826,1.669,0,.313-.861,1.669-1.408,1.669M252.711,34.2a1.642,1.642,0,0,0-.313.73c0,.183.079.391.079.574a.319.319,0,0,1-.287.339,5.355,5.355,0,0,1-1.251-.861c-.261-.208-1.122-.886-1.122-1.121,0-.182.209-.417.313-.574a44.209,44.209,0,0,0,4.3-7.483c.078-.234.156-.391.339-.391.234,0,1.825.939,1.825,1.434,0,.6-3.363,6.466-3.885,7.352m2.242-16.3a3.155,3.155,0,0,1-1.043-.678,24.326,24.326,0,0,0-2.451-1.747c-.26-.156-.469-.261-.469-.5,0-.261.938-1.695,1.433-1.695a6.938,6.938,0,0,1,1.956,1.225c.417.287,1.408,1.017,1.773,1.3a.661.661,0,0,1,.261.443c0,.287-.887,1.642-1.46,1.642m13.271,13.532a1.935,1.935,0,0,0-.286-.626,18.085,18.085,0,0,1-1.226-2.243c0-.495,1.721-1.043,2.06-1.043a.539.539,0,0,1,.443.261,22.153,22.153,0,0,1,1.538,2.5,35.7,35.7,0,0,1,2.19,4.9c0,.547-1.695,1.147-2.112,1.147-.365,0-.443-.234-.73-.939-.079-.208-.209-.521-.339-.834a.759.759,0,0,0-.756-.547h-.183c-3.728.5-7.431.782-11.159,1.095-.13,0-.208.052-.338.338-.1.183-.157.339-.391.339-.339,0-.417-.287-.626-1.017a12.316,12.316,0,0,1-.443-1.747c0-.391.286-.391.965-.391A8.853,8.853,0,0,0,258,32.581a.98.98,0,0,0,.965-.6c1.017-1.93,1.8-3.468,2.685-5.475a.442.442,0,0,0,.078-.261c0-.286-.235-.391-.5-.417h-.913c-1.017,0-2.034.052-3.051.052-.678,0-.652-.26-.652-1.2,0-.965-.026-1.225.652-1.225,1.017,0,2.034.052,3.051.052h2.295c.521,0,.73-.209.73-.731v-2.4c0-.521-.209-.73-.73-.73h-1.747c-.912,0-1.851.078-2.763.078-.574,0-.548-.339-.548-1.226,0-.938-.052-1.277.548-1.277.756,0,1.8.052,2.763.052h1.747c.521,0,.73-.208.73-.73V15.5a14.9,14.9,0,0,0-.078-1.93.887.887,0,0,1-.026-.26c0-.313.208-.365.469-.365.364,0,1.929.156,2.372.208.208.026.574.052.574.339,0,.182-.156.26-.338.391-.261.208-.287.574-.287,1.355v1.3c0,.521.208.73.73.73H268.9c.965,0,2.034-.052,2.764-.052.573,0,.547.287.547,1.251,0,.939.026,1.252-.521,1.252-.939,0-1.852-.078-2.79-.078h-2.138c-.521,0-.73.208-.73.73v2.4c0,.521.208.731.73.731h2.555c1.017,0,2.034-.052,3.051-.052.678,0,.652.286.652,1.225s.026,1.2-.652,1.2c-1.017,0-2.034-.052-3.051-.052H264.7c-.026,0-.078.026-.078.052s.026.052.052.079c.235.1.6.26.6.495,0,.261-.338.287-.521.287-.156.026-.286.052-.364.208-.835,1.616-1.669,3.26-2.581,4.85-.026.078-.078.13-.078.208,0,.261.208.338.417.338,1.877-.13,3.754-.286,5.631-.495.235-.027.443-.157.443-.417" transform="translate(-118.911 -12.766)" fill="#ef8c37"/>
      <path id="パス_90" data-name="パス 90" d="M295.217,19.185c.417,0,.626-.182.626-.6v-.339c0-.417-.182-.626-.626-.626h-1.46c-.756,0-1.512.052-2.294.052-.574,0-.574-.208-.574-1.121,0-.861,0-1.121.547-1.121.782,0,1.564.052,2.32.052h1.356c.443,0,.678-.156.7-.652,0-.391-.052-.861-.078-1.252,0-.078-.026-.182-.026-.26,0-.313.234-.339.469-.339.574,0,1.642.078,2.242.1.234.026.678.026.678.338,0,.182-.156.235-.338.365-.287.234-.287.521-.313.991.026.521.234.7.73.7h1.46c.548,0,1.1-.052,1.669-.052.913,0,1.3.26,1.3,1.225,0,.6-.053,1.2-.026,1.8,0,.5.182.7.678.7.286,0,.574-.026.886-.026.652,0,.626.312.626,1.147,0,.809.026,1.121-.626,1.121-.312,0-.6-.026-.886-.026-.5.026-.678.235-.678.731-.027.6.026,1.225.026,1.851,0,.939-.365,1.2-1.278,1.2-.574,0-1.147-.026-1.695-.026h-1.564c-.443,0-.626.183-.626.626v.183c0,.443.182.626.626.626h1.956c.964,0,1.929-.052,2.92-.052.6,0,.6.286.6,1.147,0,.887,0,1.147-.626,1.147-.965,0-1.93-.078-2.894-.078h-1.956c-.443,0-.626.182-.626.626v.234c0,.443.182.626.626.626h3.155c.939,0,1.9-.052,2.868-.052.652,0,.626.312.626,1.147s.027,1.147-.626,1.147c-.964,0-1.929-.052-2.868-.052h-3.051c-.469,0-.7.182-.7.652-.026.861.052,1.695.052,2.529,0,.782-.286.808-1.355.808-1.148,0-1.408-.026-1.408-.834,0-.835.078-1.669.052-2.5,0-.469-.26-.652-.7-.652h-2.633c-.965,0-1.93.052-2.894.052-.626,0-.626-.312-.626-1.147,0-.861,0-1.147.626-1.147.965,0,1.93.052,2.894.052h2.737c.417,0,.626-.183.626-.626v-.234c0-.443-.209-.626-.626-.626H293.6c-.965,0-1.93.078-2.894.078-.652,0-.626-.338-.626-1.147,0-.835,0-1.147.626-1.147.965,0,1.93.052,2.894.052h1.616c.417,0,.626-.183.626-.626v-.183c0-.443-.209-.626-.626-.626h-1.46c-.756,0-1.512.052-2.294.052-.574,0-.574-.234-.574-1.147s0-1.173.547-1.173c.782,0,1.564.052,2.32.052h1.46c.417,0,.626-.182.626-.6v-.339c0-.443-.182-.626-.626-.626h-1.408c-.965,0-1.929.052-2.894.052-.574,0-.626-.234-.626-.991a.34.34,0,0,1,.025-.156.172.172,0,0,0-.182-.13h-.052c-.339.078-.443.1-.756.7-.417.757-1.1,1.825-1.564,2.555-.052.052-.052.078-.052.156,0,.131.1.183.208.209.209.026.626.026.626.39,0,.183-.13.235-.338.339-.261.156-.287.469-.287,1.173V32.43c0,1.043.052,2.086.052,3.1,0,.782-.26.808-1.329.808s-1.356-.026-1.356-.808c0-1.017.052-2.06.052-3.1V27.32c0-.156-.052-.312-.234-.312a.271.271,0,0,0-.209.1c-.234.26-.834.939-1.173.939-.417,0-1.59-1.148-1.59-1.59,0-.235.235-.443.391-.6a27.7,27.7,0,0,0,4.875-6.752c.1-.235.182-.443.443-.443a16.208,16.208,0,0,1,2.242.861c.052,0,.078.026.1.026a.2.2,0,0,0,.183-.157c.1-.234.338-.26.574-.26.965,0,1.9.052,2.868.052Zm-6.127-4.8c-.312.052-.364.1-.6.5-.521.887-3.754,5.657-4.589,5.657-.39,0-1.59-.99-1.59-1.459,0-.261.235-.443.443-.652a24.228,24.228,0,0,0,3.78-5.11c.079-.156.157-.339.365-.339a10.469,10.469,0,0,1,1.747.574c.443.157.835.261.835.521,0,.209-.234.287-.391.313m11.472,4.8a.561.561,0,0,0,.6-.6v-.339a.581.581,0,0,0-.6-.626h-1.486a.6.6,0,0,0-.626.626v.339a.581.581,0,0,0,.626.6Zm-2.112,3.129a.581.581,0,0,0,.626.6h1.486a.561.561,0,0,0,.6-.6v-.339a.582.582,0,0,0-.6-.626h-1.486a.6.6,0,0,0-.626.626Z" transform="translate(-124.942 -12.772)" fill="#ef8c37"/>
      <path id="パス_91" data-name="パス 91" d="M335.489,27.231c.574-.026,1.121-.026,1.669-.026s.521.312.521.86c0,.6,0,.887-.521.887-.548,0-1.1-.026-1.642-.026a.613.613,0,0,0-.7.7v.339c0,.678.078,1.355.078,1.851,0,.626-.417.6-1.512.6-.783,0-1.147,0-1.277-.313-.1-.182-.182-.313-.417-.313h-3.39c-.5,0-.678.183-.7.678.026.26.026.939.026,1.2,0,2.529-2.685,2.581-4.589,2.581-.73,0-1.59.13-1.59-1.93,0-.365.1-.6.5-.6.339,0,.834.1,1.459.1,1.3,0,1.408-.339,1.461-1.355-.053-.5-.235-.678-.731-.678h-3.832c-1.043,0-2.112.053-3.181.053-.6,0-.626-.209-.626-.939s.026-.913.626-.913c1.069,0,2.138.026,3.181.026h4.068c.339,0,.5-.13.5-.469v-.156a.432.432,0,0,0-.5-.5H318.49c-1.1,0-2.215.052-3.337.052-.521,0-.495-.339-.495-.887s-.027-.86.521-.86c1.1,0,2.216.026,3.311.026h5.866c.339,0,.5-.13.5-.469v-.13a.432.432,0,0,0-.5-.5h-5.371c-.652,0-1.3.052-1.956.052-.469,0-.469-.235-.469-.939,0-.678,0-.913.444-.913.651,0,1.329.052,1.981.052h5.371a.431.431,0,0,0,.5-.495v-.131a.432.432,0,0,0-.5-.5h-2.164c-.782,0-1.564.026-2.346.026-.6,0-1.486-.052-1.486-.834,0-.261.052-.5.052-.939V20.112c0-.443-.052-.678-.052-.938,0-.809.886-.861,1.486-.861.782,0,1.564.052,2.346.052h2.164a.432.432,0,0,0,.5-.5v-.156c0-.365-.157-.5-.5-.5h-5.318c-1.07,0-2.139.052-3.233.052-.574,0-.574-.286-.574-1.017s0-.991.574-.991c1.069,0,2.163.052,3.233.052h5.083c.5,0,.678-.182.731-.7-.027-.365-.053-.73-.1-1.095,0-.078-.025-.182-.025-.234,0-.313.207-.365.469-.365.338,0,1.851.156,2.268.208.261.026.7.026.7.339,0,.156-.13.234-.312.365a.811.811,0,0,0-.261.756c0,.521.208.73.7.73h5.059c1.094,0,2.164-.052,3.233-.052.6,0,.573.287.573.991s.027,1.017-.573,1.017c-1.069,0-2.164-.052-3.233-.052h-5.293c-.338,0-.5.13-.5.5v.156c0,.339.13.5.5.5h2.164c.783,0,1.565-.052,2.348-.052.6,0,1.485.052,1.485.861,0,.26-.051.5-.051.938v1.408c0,.443.051.678.051.939,0,.782-.86.834-1.46.834-.782,0-1.564-.026-2.372-.026h-2.164c-.338,0-.5.131-.5.5v.131c0,.338.13.495.5.495h3.52c.7,0,1.408-.052,2.112-.052.756,0,1.173.235,1.173,1.043,0,.391-.052.783-.052,1.148.027.469.234.678.678.7m-13.9-7.118a.6.6,0,0,0-.626.626V20.9a.6.6,0,0,0,.626.626h2.633a.6.6,0,0,0,.626-.626v-.156a.6.6,0,0,0-.626-.626Zm5.97.783a.6.6,0,0,0,.626.626h2.633a.6.6,0,0,0,.626-.626v-.156a.6.6,0,0,0-.626-.626h-2.633a.6.6,0,0,0-.626.626Zm0,5.84a.465.465,0,0,0,.5.5H331.6a.465.465,0,0,0,.495-.5v-.1a.513.513,0,0,0-.495-.5h-3.547a.512.512,0,0,0-.5.5Zm.5,2.164a.512.512,0,0,0-.5.5v.13a.465.465,0,0,0,.5.5H331.6a.465.465,0,0,0,.495-.5v-.13a.513.513,0,0,0-.495-.5Z" transform="translate(-131.008 -12.76)" fill="#ef8c37"/>
      <path id="パス_92" data-name="パス 92" d="M356.413,26.256c-.182.261-.338.574-.6.574-.391,0-1.538-.547-1.538-.991,0-.182.183-.364.313-.521a4.685,4.685,0,0,0,.861-1.459c0-.287-.365-.261-.548-.261h-.338c-.417,0-.6.183-.6.626v7.77c0,.521.026,1.043.026,1.564,0,2.294-1.826,2.529-3.7,2.529-.521,0-1.3.1-1.3-1.9,0-.339.079-.6.469-.6.287,0,.652.052,1.017.052,1.225,0,1.173-.417,1.173-1.564V27.508c0-.1-.026-.183-.13-.183-.078,0-.1.026-.156.1a18.807,18.807,0,0,1-2.581,4.329c-.13.156-.469.626-.7.626-.443,0-1.486-1.095-1.486-1.512,0-.183.156-.313.26-.417a21.86,21.86,0,0,0,3.885-6.2.622.622,0,0,0,.052-.209c0-.339-.235-.417-.5-.443h-.652c-.731,0-1.434.052-2.138.052-.521,0-.548-.26-.548-1.121,0-.887.027-1.121.548-1.121.7,0,1.407.026,2.138.026h2.294c.182,0,.365-.078.365-.286a.389.389,0,0,0-.1-.235,18.869,18.869,0,0,0-2.4-2.4c-.13-.131-.443-.365-.443-.6,0-.365,1.121-1.33,1.59-1.33a1.444,1.444,0,0,1,.887.574c.156.156.5.443.7.443a.85.85,0,0,0,.5-.208c.234-.209,1.329-1.148,1.329-1.408,0-.235-.391-.209-.547-.209h-3.286c-.808,0-1.747.053-2.294.053-.574,0-.574-.235-.574-1.122,0-.86,0-1.121.574-1.121.756,0,1.538.052,2.294.052h4.38c.469,0,.939-.026,1.408-.026a1.07,1.07,0,0,1,1.017.5,2.206,2.206,0,0,1,.652,1.174c0,.7-2.92,3.05-3.545,3.545a.616.616,0,0,0-.287.5.739.739,0,0,0,.182.443c.157.182.626.678.626.887a.751.751,0,0,1-.287.5.143.143,0,0,0-.078.13c0,.13.1.156.208.156.235,0,1.434-.026,1.59-.026a2.025,2.025,0,0,1,1.695,1.2c.027.13.1.339.287.339h.1a17.608,17.608,0,0,0,2.973-1.486.544.544,0,0,0,.312-.469.61.61,0,0,0-.182-.443,11.014,11.014,0,0,1-.913-1.252.517.517,0,0,0-.417-.26.509.509,0,0,0-.391.182c-.339.417-.965,1.173-1.356,1.173-.443,0-1.538-1.017-1.538-1.407,0-.157.13-.261.235-.365a15.933,15.933,0,0,0,3.624-5.5c.052-.156.156-.39.364-.39a6.96,6.96,0,0,1,.913.26c.652.182,1.642.443,1.642.757,0,.208-.312.286-.5.312-.234.052-.313.183-.417.443a.471.471,0,0,0-.052.261c0,.286.235.364.469.39h3.39c.938,0,1.851-.052,2.763-.052.574,0,.574.209.574,1.121s-.026,1.121-.574,1.121-1.382-.026-1.956-.052c-.078.026-.1.052-.1.131,0,.052.026.078.078.1.365.156.834.312.834.574,0,.182-.208.234-.364.26-.365.1-.365.1-.574.443a16.6,16.6,0,0,1-1.3,1.721.674.674,0,0,0-.182.417.57.57,0,0,0,.287.469A16.621,16.621,0,0,0,369.4,23c.338.13.678.235.678.5,0,.5-.756,1.982-1.3,1.982a2.657,2.657,0,0,1-.73-.235,18.351,18.351,0,0,1-3.806-2.164.89.89,0,0,0-.5-.182.819.819,0,0,0-.548.182c-.73.521-3.728,2.347-4.536,2.347-.417,0-.652-.547-.809-.861-.052-.1-.1-.182-.235-.182a.25.25,0,0,0-.234.156c-.052.13-.861,1.538-.965,1.721m7.483,2.633a.806.806,0,0,0-.912.626,11.765,11.765,0,0,1-3.207,5.058c-.417.391-1.512,1.434-2.06,1.434-.574,0-1.669-1.2-1.669-1.721,0-.234.234-.338.469-.469a9.23,9.23,0,0,0,3.885-4.277.761.761,0,0,0,.052-.234c0-.313-.261-.391-.521-.417-.234,0-1.695.052-1.93.052-.574,0-.548-.286-.548-1.147,0-.965-.026-1.173.6-1.173.783,0,1.564.078,2.321.052a.672.672,0,0,0,.782-.678c0-.235.026-.443.026-.6,0-.731,0-.913.391-.913a21.78,21.78,0,0,1,2.19.26c.208.027.521.079.521.287,0,.182-.26.286-.391.365-.182.1-.208.182-.234.39v.183c0,.469.182.7.652.7h.365c1.017,0,1.825-.052,2.45-.052,1.226,0,1.721.182,1.721,1.277a31.492,31.492,0,0,1-.913,6.258c-.574,1.9-2.008,2.008-3.754,2.008-1.069,0-1.512.052-1.512-1.8,0-.364,0-.756.443-.756a2.117,2.117,0,0,1,.391.026c.286.026.574.052.886.052.757,0,1.069-.1,1.278-.886a18.463,18.463,0,0,0,.5-3.338c0-.626-.339-.574-1.3-.574Zm1.33-11.237c0-.26-.235-.339-.469-.365h-1.982c-.234.026-.443.078-.443.365a.414.414,0,0,0,.078.234,6.941,6.941,0,0,0,.912,1.2.606.606,0,0,0,.5.234.592.592,0,0,0,.469-.234,7.582,7.582,0,0,0,.861-1.173.507.507,0,0,0,.078-.261" transform="translate(-136.962 -12.725)" fill="#ef8c37"/>
      <path id="パス_93" data-name="パス 93" d="M381.852,35.182c-.313.756-.443.886-.757.886-.338,0-2.112-.652-2.112-1.173a1.618,1.618,0,0,1,.183-.5,23.6,23.6,0,0,0,1.747-9.855V21.7c0-.652-.026-1.3-.026-1.955,0-.939.521-1.122,1.356-1.122.626,0,1.277.053,1.929.053h2.242c.652,0,1.278-.053,1.93-.053.835,0,1.356.183,1.356,1.122,0,.652-.027,1.3-.027,1.955v3.1c0,.809.052,1.59.052,2.373,0,.626-.286.626-1.329.626-.835,0-1.017,0-1.2-.183-.157-.182-.339-.417-.573-.443h-2.477c-.5,0-.7.208-.756.7a23.424,23.424,0,0,1-1.538,7.3m1.121-18.694c-.835,0-1.695.052-2.529.052-.652,0-.652-.391-.652-1.33,0-.913,0-1.329.652-1.329.835,0,1.695.078,2.529.078h4.3c.835,0,1.695-.078,2.529-.078.678,0,.652.443.652,1.329,0,.913.026,1.33-.652,1.33-.835,0-1.695-.052-2.529-.052Zm4.172,5.423c0-.521-.209-.731-.731-.731H384.2c-.5,0-.7.209-.7.731v2.164c0,.521.208.73.7.73h2.216c.521,0,.731-.208.731-.73Zm7.561-1.512c0,.521.208.73.73.73H398.8c1.017,0,2.06-.052,3.1-.052.678,0,.626.261.626,1.3,0,1.017.026,1.277-.626,1.277-.365,0-.965-.026-1.33-.052-.521.052-.7.208-.7.7v7.666c0,1.147.078,2.294.078,3.441,0,.861-.287.861-1.382.861s-1.407,0-1.407-.861c0-1.147.078-2.294.078-3.441V24.31c0-.5-.209-.73-.731-.73h-1.069c-.5,0-.678.182-.756.7a22.117,22.117,0,0,1-2.034,8.839,10.323,10.323,0,0,1-1.564,2.45.777.777,0,0,1-.6.287c-.547,0-2.008-.678-2.008-1.173,0-.183.209-.365.313-.5a13.663,13.663,0,0,0,1.981-3.155,22.073,22.073,0,0,0,1.278-8.239V16.124c0-1.174,1.017-1.174,1.695-1.226a21.773,21.773,0,0,0,6.492-1.459.644.644,0,0,1,.313-.1c.417,0,.991.808,1.251,1.147.287.364.7.886.7,1.121a.348.348,0,0,1-.365.312.624.624,0,0,1-.365-.13,1.091,1.091,0,0,0-.39-.1,2.972,2.972,0,0,0-.652.156,31.91,31.91,0,0,1-5.084,1.069c-.809.1-.939.13-.939,1.043Z" transform="translate(-143.005 -12.838)" fill="#ef8c37"/>
    </g>
    <g id="グループ_900" data-name="グループ 900" transform="translate(-17304.068 -19154.264)">
      <rect id="長方形_47262" data-name="長方形 47262" width="0.884" height="8.247" transform="translate(0 0.118)" fill="#aa7f54"/>
      <path id="パス_94" data-name="パス 94" d="M98.22,56.855h.825v3.417a2.056,2.056,0,0,1,.483-.471,2.412,2.412,0,0,1,1.461-.471,2.951,2.951,0,0,1,0,5.891,2.412,2.412,0,0,1-1.461-.471,2.056,2.056,0,0,1-.483-.471V65.1H98.22Zm4.713,5.42a2.024,2.024,0,0,0-1.944-2.18,2.194,2.194,0,0,0,0,4.36,2.024,2.024,0,0,0,1.944-2.18" transform="translate(-94.157 -56.738)" fill="#aa7f54"/>
      <path id="パス_95" data-name="パス 95" d="M114.2,65.851a2.017,2.017,0,0,1-.448.448,2.334,2.334,0,0,1-1.378.435,1.865,1.865,0,0,1-2-1.649c0-.942.578-1.532,1.65-1.708l2.179-.354a1.348,1.348,0,0,0-1.414-1.414,1.942,1.942,0,0,0-1.166.413,3.463,3.463,0,0,0-.424.413l-.53-.53a2.6,2.6,0,0,1,.553-.53,2.559,2.559,0,0,1,1.567-.53,2.153,2.153,0,0,1,2.239,2.179v3.594H114.2Zm0-2.121-1.944.354c-.707.13-1.06.471-1.06,1,0,.471.413.884,1.178.884a1.767,1.767,0,0,0,1.826-1.885Z" transform="translate(-98.771 -58.252)" fill="#aa7f54"/>
      <path id="パス_96" data-name="パス 96" d="M122.43,60.962h.825v.766a2.685,2.685,0,0,1,.46-.436,2.376,2.376,0,0,1,1.426-.448h.236v.825h-.354a1.75,1.75,0,0,0-1.767,1.826v3.122h-.825Z" transform="translate(-103.349 -58.252)" fill="#aa7f54"/>
      <path id="パス_97" data-name="パス 97" d="M133.664,65.851a2.018,2.018,0,0,1-.448.448,2.334,2.334,0,0,1-1.378.435,1.865,1.865,0,0,1-2-1.649c0-.942.578-1.532,1.65-1.708l2.179-.354a1.348,1.348,0,0,0-1.414-1.414,1.942,1.942,0,0,0-1.166.413,3.464,3.464,0,0,0-.424.413l-.53-.53a2.6,2.6,0,0,1,.553-.53,2.559,2.559,0,0,1,1.567-.53,2.153,2.153,0,0,1,2.239,2.179v3.594h-.825Zm0-2.121-1.944.354c-.707.13-1.06.471-1.06,1,0,.471.413.884,1.178.884a1.767,1.767,0,0,0,1.826-1.885Z" transform="translate(-106.16 -58.252)" fill="#aa7f54"/>
      <path id="パス_98" data-name="パス 98" d="M141.987,56.855h.825v5.6l2.828-3h1l-2.18,2.3,2.416,3.358h-.943l-2-2.769-1.119,1.178V65.1h-.825Z" transform="translate(-110.774 -56.738)" fill="#aa7f54"/>
      <path id="パス_99" data-name="パス 99" d="M153.436,57.141a.53.53,0,1,1-.53.53.528.528,0,0,1,.53-.53m-.413,2.415h.825v5.655h-.825Z" transform="translate(-114.919 -56.846)" fill="#aa7f54"/>
      <path id="パス_100" data-name="パス 100" d="M166.2,56.855h.825l3.416,8.247h-.942l-.943-2.3h-3.887l-.943,2.3h-.942Zm2,5.125-1.591-3.888-1.591,3.888Z" transform="translate(-118.668 -56.738)" fill="#aa7f54"/>
      <path id="パス_101" data-name="パス 101" d="M178.272,65.145a2.074,2.074,0,0,0,.377.412,1.628,1.628,0,0,0,1.1.413c.837,0,1.238-.413,1.238-.942,0-1.3-3.063-.648-3.063-2.592a1.743,1.743,0,0,1,1.885-1.591,2.571,2.571,0,0,1,1.355.389,2.135,2.135,0,0,1,.471.377l-.589.589a1.459,1.459,0,0,0-.306-.295,1.676,1.676,0,0,0-.931-.295.955.955,0,0,0-1.06.824c0,1.238,3.063.589,3.063,2.592a1.824,1.824,0,0,1-2.062,1.708,2.629,2.629,0,0,1-1.567-.5,1.864,1.864,0,0,1-.5-.506Z" transform="translate(-124.326 -58.252)" fill="#aa7f54"/>
      <path id="パス_102" data-name="パス 102" d="M191.386,65.851a2.018,2.018,0,0,1-.448.448,2.334,2.334,0,0,1-1.378.435,1.865,1.865,0,0,1-2-1.649c0-.942.578-1.532,1.65-1.708l2.179-.354a1.348,1.348,0,0,0-1.414-1.414,1.942,1.942,0,0,0-1.166.413,3.464,3.464,0,0,0-.424.413l-.53-.53a2.6,2.6,0,0,1,.553-.53,2.559,2.559,0,0,1,1.567-.53,2.153,2.153,0,0,1,2.239,2.179v3.594h-.825Zm0-2.121-1.944.354c-.707.13-1.06.471-1.06,1,0,.471.413.884,1.178.884a1.767,1.767,0,0,0,1.826-1.885Z" transform="translate(-128.075 -58.252)" fill="#aa7f54"/>
      <path id="パス_103" data-name="パス 103" d="M199.71,56.855h.825v3.417a2.114,2.114,0,0,1,.448-.471,2.288,2.288,0,0,1,3.676,1.944V65.1h-.826V61.744a1.512,1.512,0,0,0-1.532-1.649,1.76,1.76,0,0,0-1.766,1.885V65.1h-.825Z" transform="translate(-132.689 -56.738)" fill="#aa7f54"/>
      <path id="パス_104" data-name="パス 104" d="M212.582,57.141a.53.53,0,1,1-.53.53.528.528,0,0,1,.53-.53m-.413,2.415h.825v5.655h-.825Z" transform="translate(-137.375 -56.846)" fill="#aa7f54"/>
      <path id="パス_105" data-name="パス 105" d="M224.109,56.855h.884v7.423h4.241V65.1h-5.125Z" transform="translate(-141.953 -56.738)" fill="#aa7f54"/>
      <path id="パス_106" data-name="パス 106" d="M238.95,65.851a2.018,2.018,0,0,1-.448.448,2.334,2.334,0,0,1-1.378.435,1.865,1.865,0,0,1-2-1.649c0-.942.578-1.532,1.65-1.708l2.179-.354a1.348,1.348,0,0,0-1.414-1.414,1.942,1.942,0,0,0-1.166.413,3.465,3.465,0,0,0-.424.413l-.53-.53a2.6,2.6,0,0,1,.553-.53,2.559,2.559,0,0,1,1.567-.53,2.153,2.153,0,0,1,2.239,2.179v3.594h-.825Zm0-2.121-1.944.354c-.707.13-1.06.471-1.06,1,0,.471.413.884,1.178.884a1.767,1.767,0,0,0,1.826-1.885Z" transform="translate(-146.134 -58.252)" fill="#aa7f54"/>
      <path id="パス_107" data-name="パス 107" d="M245.755,61.034h.883l1.473,4.359,1.414-4.359h.707l1.414,4.359,1.473-4.359H254l-1.944,5.655h-.766l-1.414-4.3-1.414,4.3H247.7Z" transform="translate(-150.171 -58.324)" fill="#aa7f54"/>
      <path id="パス_108" data-name="パス 108" d="M271.358,56.666a4.242,4.242,0,1,1-4.241,4.241,4.224,4.224,0,0,1,4.241-4.241m3.358,4.241a3.358,3.358,0,1,0-3.358,3.417,3.333,3.333,0,0,0,3.358-3.417" transform="translate(-158.282 -56.666)" fill="#aa7f54"/>
      <path id="パス_109" data-name="パス 109" d="M284.9,60.142h-.884v-.766h.884v-.824a1.454,1.454,0,0,1,1.532-1.649,1.986,1.986,0,0,1,.589.094c.082.035.165.059.235.083v.765l-.224-.083a1.8,1.8,0,0,0-.542-.094c-.471,0-.766.283-.766.884v.824h2.533v-1.06a1.454,1.454,0,0,1,1.532-1.649,1.979,1.979,0,0,1,.589.094c.083.035.165.059.236.083v.766l-.224-.083a1.768,1.768,0,0,0-.542-.095c-.471,0-.766.283-.766.884v1.06h3.358v5.656h-.824V60.142h-2.533v4.889h-.824V60.142h-2.533v4.889H284.9Zm7.128-3.181a.53.53,0,1,1-.53.53.529.529,0,0,1,.53-.53" transform="translate(-164.698 -56.666)" fill="#aa7f54"/>
      <path id="パス_110" data-name="パス 110" d="M306.668,65.557a3.3,3.3,0,0,1-.625.589,2.946,2.946,0,0,1-1.731.589,2.948,2.948,0,0,1,0-5.891,2.847,2.847,0,0,1,1.7.566,3.825,3.825,0,0,1,.6.554l-.589.589a2.758,2.758,0,0,0-.435-.471,1.992,1.992,0,0,0-1.272-.471,2.187,2.187,0,0,0,0,4.359,2.179,2.179,0,0,0,1.307-.471,2.483,2.483,0,0,0,.46-.471Z" transform="translate(-171.33 -58.252)" fill="#aa7f54"/>
      <path id="パス_111" data-name="パス 111" d="M317.776,65.557a2.852,2.852,0,0,1-.6.589,2.97,2.97,0,0,1-1.756.589,2.949,2.949,0,0,1-.059-5.891,2.689,2.689,0,0,1,2.71,2.827,1.838,1.838,0,0,1-.035.306l-.023.118-4.6-.012a2.038,2.038,0,0,0,2,1.885,2.213,2.213,0,0,0,1.355-.471,2.55,2.55,0,0,0,.471-.471Zm-.53-2.18a1.926,1.926,0,0,0-1.885-1.767,2.024,2.024,0,0,0-1.944,1.767Z" transform="translate(-175.547 -58.252)" fill="#aa7f54"/>
    </g>
    <path id="合体_3" data-name="合体 3" d="M14.341,59.582l-1.43,3.059a1.141,1.141,0,0,1-1.037.645H7.854a1.1,1.1,0,0,1-1.037-1.542l2.821-6.035A32.577,32.577,0,0,1,32.25,0l.335,0A32.435,32.435,0,0,1,47.163,3.439a.8.8,0,0,1,.365,1.075L45.863,7.865a.8.8,0,0,1-1.071.359A27.251,27.251,0,1,0,42.18,58.088a1.063,1.063,0,0,1,1.359.587l1.23,2.963a1.069,1.069,0,0,1-.607,1.408,32.62,32.62,0,0,1-29.821-3.464Zm37.371,3.7a1.137,1.137,0,0,1-1.048-.672L42.415,43.646h.012L41.259,40.99l-6.4-14.726-2.5-5.522L25.769,35.128l-6.7,14.33a1.069,1.069,0,0,1-1.682.341,22.312,22.312,0,0,1-2.908-3.139,1.057,1.057,0,0,1-.108-1.086L31.429,9.083A1.156,1.156,0,0,1,33.51,9.1L57.226,61.758a1.1,1.1,0,0,1-1.043,1.527Z" transform="translate(-17380.418 -19209.383)" fill="#ef8c37" stroke="rgba(0,0,0,0)" stroke-miterlimit="10" stroke-width="1"/>
  </g>
</svg>
