<svg xmlns="http://www.w3.org/2000/svg" xmlns:xlink="http://www.w3.org/1999/xlink" width="400" height="226.23" viewBox="0 0 400 226.23"><defs><style>.a{fill:none;}.b{fill:#ef8c37;font-size:40px;font-family:HiraginoSans-W3, Hiragino Sans;}.c{fill:#aa7f54;font-size:20px;font-family:TTNorms-Regular, TT Norms;letter-spacing:0.06em;}.d{clip-path:url(#a);}.e{fill:url(#b);}.f{clip-path:url(#c);}.g{fill:url(#d);}.h{clip-path:url(#e);}.i{fill:url(#f);}</style><clipPath id="a"><path class="a" d="M10.109,92.32a1.708,1.708,0,0,0,1.614,2.4h6.258a1.775,1.775,0,0,0,1.615-1L25.36,81.382a41.2,41.2,0,0,1-7.1-6.514Z" transform="translate(-9.951 -74.868)"/></clipPath><linearGradient id="b" x1="-0.639" y1="1.147" x2="-0.573" y2="1.147" gradientUnits="objectBoundingBox"><stop offset="0" stop-color="#e37a31"/><stop offset="1" stop-color="#ff943b"/></linearGradient><clipPath id="c"><path class="a" d="M47.854,13.5,21.306,70.312A1.64,1.64,0,0,0,21.474,72,34.642,34.642,0,0,0,26,76.89a1.666,1.666,0,0,0,2.618-.533L39.044,54.051l10.249-22.4,3.894,8.595,9.97,22.925,1.819,4.136h-.021L77.8,96.838a1.773,1.773,0,0,0,1.633,1.047h6.959A1.741,1.741,0,0,0,88.162,96.2v-.028a1.646,1.646,0,0,0-.148-.662L51.093,13.528a1.8,1.8,0,0,0-3.238-.023" transform="translate(-21.147 -12.501)"/></clipPath><linearGradient id="d" x1="-0.33" y1="1.034" x2="-0.314" y2="1.034" xlink:href="#b"/><clipPath id="e"><path class="a" d="M50.2,0A50.723,50.723,0,1,0,68.749,98.145a1.664,1.664,0,0,0,.945-2.193L67.779,91.34a1.658,1.658,0,0,0-2.116-.914A42.425,42.425,0,1,1,69.731,12.8a1.24,1.24,0,0,0,1.665-.561l2.593-5.216a1.253,1.253,0,0,0-.569-1.674A50.514,50.514,0,0,0,50.727,0L50.2,0" transform="translate(0 -0.001)"/></clipPath><linearGradient id="f" x1="0.005" y1="1" x2="0.02" y2="1" xlink:href="#b"/></defs><g transform="translate(-175 -1043.059)"><text class="b" transform="translate(175 1217.289)"><tspan x="0" y="0">茨木あさひ法律事務所</tspan></text><text class="c" transform="translate(255 1265.289)"><tspan x="0" y="0">Ibaraki Asahi Law Office</tspan></text><g transform="translate(330.383 1043.058)"><g transform="translate(10.456 78.666)"><g class="d"><rect class="e" width="15.778" height="19.851" transform="translate(-0.369 0.001)"/></g></g><g transform="translate(22.22 13.135)"><g class="f"><rect class="g" width="67.114" height="85.383" transform="translate(-0.1 -0.001)"/></g></g><g transform="translate(0 0.001)"><g class="h"><rect class="i" width="74.707" height="101.445" transform="translate(-0.41 -0.001)"/></g></g></g></g></svg>