<svg xmlns="http://www.w3.org/2000/svg" xmlns:xlink="http://www.w3.org/1999/xlink" width="416.996" height="72.085" viewBox="0 0 416.996 72.085">
  <defs>
    <clipPath id="clip-path">
      <path id="パス_3" data-name="パス 3" d="M10.063,87.269a1.214,1.214,0,0,0,1.147,1.706h4.447a1.261,1.261,0,0,0,1.148-.714L20.9,79.5a29.278,29.278,0,0,1-5.042-4.628Z" transform="translate(-9.951 -74.868)" fill="none"/>
    </clipPath>
    <linearGradient id="linear-gradient" x1="-0.639" y1="1.147" x2="-0.573" y2="1.147" gradientUnits="objectBoundingBox">
      <stop offset="0" stop-color="#e37a31"/>
      <stop offset="1" stop-color="#ff943b"/>
    </linearGradient>
    <clipPath id="clip-path-2">
      <path id="パス_4" data-name="パス 4" d="M40.125,13.214,21.26,53.581a1.165,1.165,0,0,0,.119,1.2A24.616,24.616,0,0,0,24.6,58.255a1.184,1.184,0,0,0,1.861-.379l7.408-15.85,7.283-15.914,2.767,6.107L51,48.51l1.292,2.939h-.015L61.4,72.43a1.26,1.26,0,0,0,1.16.744h4.945a1.237,1.237,0,0,0,1.26-1.2v-.02a1.17,1.17,0,0,0-.105-.47L42.426,13.23a1.278,1.278,0,0,0-2.3-.016" transform="translate(-21.147 -12.501)" fill="none"/>
    </clipPath>
    <linearGradient id="linear-gradient-2" x1="-0.33" y1="1.034" x2="-0.314" y2="1.034" xlink:href="#linear-gradient"/>
    <clipPath id="clip-path-3">
      <path id="パス_5" data-name="パス 5" d="M35.675,0A36.043,36.043,0,1,0,48.852,69.74a1.182,1.182,0,0,0,.671-1.558l-1.36-3.277a1.178,1.178,0,0,0-1.5-.65A30.146,30.146,0,1,1,49.549,9.1a.881.881,0,0,0,1.183-.4l1.843-3.706a.89.89,0,0,0-.4-1.189A35.894,35.894,0,0,0,36.046,0h-.371" transform="translate(0 -0.001)" fill="none"/>
    </clipPath>
    <linearGradient id="linear-gradient-3" x1="0.005" y1="1" x2="0.02" y2="1" xlink:href="#linear-gradient"/>
  </defs>
  <g id="グループ_405774" data-name="グループ 405774" transform="translate(23583.02 11077.888)">
    <path id="パス_12915" data-name="パス 12915" d="M9.962-14.824c0-.544-1.836-2.21-2.312-2.618s-2.482-2.21-2.992-2.21a3.23,3.23,0,0,0-1.9,1.87c0,.272.272.476.476.646A40.717,40.717,0,0,1,7.276-13.5c.2.2.408.476.714.476C8.534-13.022,9.962-14.314,9.962-14.824Zm2.992,7.242c0-.476-1.02-2.244-1.6-2.244a1.4,1.4,0,0,0-.714.34A48.715,48.715,0,0,1,2.618-4.76c-.272.1-.68.238-.68.578A5.13,5.13,0,0,0,2.822-2.55a2.836,2.836,0,0,1,.272.408c.408.646.646.986.952.986.238,0,.374-.2.408-.442.068-.374.1-.374.714-.714A86.962,86.962,0,0,0,12.546-6.97.782.782,0,0,0,12.954-7.582ZM14.28-25.364a.835.835,0,0,1-.952-.918c.034-.544.034-.782.408-1.02.17-.1.374-.2.374-.442,0-.306-.476-.34-.782-.374-.578-.034-2.38-.17-2.89-.17-.272,0-.578.034-.578.408v.272c.068.442.1.884.136,1.326-.068.68-.306.918-.952.918H6.868c-1.326,0-2.686-.1-4.012-.1-.816,0-.782.374-.782,1.632,0,1.224-.068,1.6.782,1.6,1.326,0,2.686-.068,4.012-.068H9.01c.646,0,.918.272.918.918v.918c0,.85.442.816,1.666.816,1.428,0,1.8,0,1.8-.884a6.828,6.828,0,0,0-.034-.85c.034-.646.306-.918.918-.918h5.542c.646,0,.918.272.918.918,0,.306-.034.612-.034.918,0,.884.408.85,1.666.85,1.428,0,1.836.034,1.836-.884,0-.306-.034-.612-.034-.918,0-.646.306-.884.918-.884h2.176c1.36,0,2.686.068,4.046.068.816,0,.782-.34.782-1.6s0-1.632-.816-1.632c-1.326,0-2.652.1-4.012.1H25.092c-.612,0-.986-.272-.952-.918,0-.442,0-.68.408-.952.17-.1.374-.238.374-.442,0-.306-.374-.34-.578-.34-.544-.068-2.584-.2-3.094-.2-.272,0-.612,0-.612.374,0,.1.034.2.034.306.034.34.1.918.1,1.258-.034.68-.306.918-.918.918Zm3.91,12.546C17.408-7.31,14.178-3.774,9.248-1.462c-.714.34-1.326.578-1.326.918,0,.408,1.292,2.516,2.006,2.516a6.516,6.516,0,0,0,1.36-.578c3.808-2.006,6.97-4.692,8.7-8.738a.41.41,0,0,1,.374-.272c.17,0,.272.136.374.272A22.755,22.755,0,0,0,26.588-.238c.544.442,2.856,2.21,3.434,2.21.748,0,2.21-1.8,2.21-2.346,0-.2-.238-.374-.408-.476A34.216,34.216,0,0,1,28.9-2.856a24.382,24.382,0,0,1-4.454-4.522,15.606,15.606,0,0,1-2.72-5.474c0-.068-.034-.136-.034-.238,0-.476.374-.646.782-.646h4.012c.136,0,.476-.034.476.2,0,.34-1.02,1.36-1.292,1.632l-.17.17c-.272.272-.748.68-.748.884,0,.646,1.734,1.768,2.414,1.768.544,0,1.666-1.5,2.006-1.938.578-.68,2.244-2.856,2.244-3.672A2.867,2.867,0,0,0,30.7-15.98c-.578-.68-.952-.918-1.564-.918-1.054,0-2.142.034-3.2.034h-7.31c-.34,0-.612-.136-.612-.51a.8.8,0,0,1,.068-.272c.068-.17.136-.34.2-.476.272-.578.408-.918.68-.986s.646-.136.646-.476c0-.306-.408-.408-.952-.578a22.125,22.125,0,0,0-2.516-.714c-.272,0-.34.2-.408.408a31.225,31.225,0,0,1-4.692,8.194c-.1.136-.34.374-.34.578,0,.476,1.9,1.7,2.38,1.7.51,0,1.36-1.394,1.972-2.38.136-.238.272-.442.374-.612a1.369,1.369,0,0,1,1.428-.748h.476c.476,0,.85.2.85.714Zm42.7-5c1.36,0,2.686.068,4.046.068.816,0,.782-.374.782-1.666,0-1.326.034-1.7-.782-1.7-1.36,0-2.686.068-4.046.068H53.72c-.646,0-.918-.272-.918-.918v-3.06c0-1.054.034-1.632.374-1.9.238-.17.442-.272.442-.51,0-.442-.646-.442-.918-.476-.544-.068-2.584-.272-3.026-.272-.34,0-.612.068-.612.476a1.157,1.157,0,0,0,.034.34,17.311,17.311,0,0,1,.1,2.414v2.992c0,.646-.272.918-.918.918H41.038c-1.36,0-2.686-.068-4.046-.068-.816,0-.782.374-.782,1.7,0,1.292-.068,1.666.782,1.666,1.36,0,2.686-.068,4.046-.068H46.58c.306.034.578.136.578.476a.812.812,0,0,1-.068.306A33.6,33.6,0,0,1,36.414-5.848c-.306.2-.714.476-.714.884,0,.646,1.462,2.278,2.074,2.278A2.742,2.742,0,0,0,38.93-3.2a34.41,34.41,0,0,0,9.826-10.71.344.344,0,0,1,.238-.136c.17,0,.2.17.2.306v9.894c0,1.666-.068,3.332-.068,5.032,0,1.054.408,1.054,1.87,1.054,1.5,0,1.87,0,1.87-1.088,0-1.666-.068-3.332-.068-5v-9.724c0-.136.068-.306.238-.306a.344.344,0,0,1,.238.136A44.925,44.925,0,0,0,61.2-4.454c.476.408,2.176,1.9,2.754,1.9.748,0,2.244-1.6,2.244-2.278,0-.374-.442-.646-.714-.816a37.692,37.692,0,0,1-10.608-11.39.548.548,0,0,1-.1-.306c0-.34.306-.442.578-.476ZM86.428-14.45c.2,0,.442.068.442.306a1.5,1.5,0,0,1-.2.544c-.272.544-1.53,2.992-2.108,2.992-.306,0-.34-.816-.34-1.36v-.408c0-.748-.034-1.428.34-1.666A4.848,4.848,0,0,1,86.428-14.45ZM80.58-12.1c.34,0,.408.272.408.578s-.034.646-.034.986c0,1.054.1,2.482.1,2.788A1.231,1.231,0,0,1,80.648-6.7c-.918.714-2.89,1.9-4.08,1.9-.646,0-.952-.374-.952-1.02C75.616-8.568,79.866-12.1,80.58-12.1Zm2.278-14.824c-.374,0-.51.238-.544.544-.17,1.224-.306,2.414-.476,3.6a1.34,1.34,0,0,1-.34.918,1.308,1.308,0,0,1-.918.306c-1.156.1-2.312.136-3.468.136-.612,0-1.19-.034-1.768-.034-.612,0-.816.1-.816,1.8,0,1.6.2,1.6,1.7,1.6,1.258,0,2.516-.17,3.774-.272.136,0,.612-.068.748-.068a.536.536,0,0,1,.578.578c0,1.632-.782,1.8-.986,1.9-3.842,1.836-8.16,5.984-8.16,10.506a3.8,3.8,0,0,0,3.842,4.08,9.759,9.759,0,0,0,5.032-1.836A.837.837,0,0,1,81.43-3.3c.238,0,.306.17.374.34a.614.614,0,0,0,.578.476c.748,0,2.584-1.156,2.584-1.8v-.17c-.034-.17-.2-1.156-.2-1.258a.887.887,0,0,1,.34-.68,30.62,30.62,0,0,0,4.556-6.494c.2-.408.408-.85.918-.85a4.678,4.678,0,0,1,3.4,4.862c0,4.284-4.386,6.324-7.956,7.276-.374.1-.748.136-.748.51,0,.646.816,2.72,1.564,2.72,1.122,0,10.744-2.924,10.744-10.642,0-5.814-4.726-8.5-10-8.5-.68,0-1.53.1-2.21.17-.1,0-.2.034-.272.034-.238,0-.544-.136-.544-.442,0-.374.136-1.224.918-1.36,1.36-.2,3.468-.612,4.794-.918.85-.17,1.666-.306,1.666-.952,0-.136-.272-2.72-1.088-2.72a1.63,1.63,0,0,0-.578.17,26.975,26.975,0,0,1-4.012,1.122,2.71,2.71,0,0,1-.51.1.494.494,0,0,1-.476-.51c0-.136.17-.85.2-1.054.2-.816.306-.986.748-1.258.136-.1.34-.238.34-.442,0-.34-.544-.442-1.462-.714C84.728-26.384,83.1-26.928,82.858-26.928Zm34.85-.272c-.476,0-3.3.714-3.3,1.394a1.117,1.117,0,0,0,.238.544c.442.578,2.55,3.638,2.55,4.148,0,.476-.442.578-.816.68a37.85,37.85,0,0,1-6.8.748c-.442.034-.816.068-.816.612a6.6,6.6,0,0,0,.408,1.8c.306.952.476,1.224,1.224,1.224a47.32,47.32,0,0,0,8.058-1.292,2.076,2.076,0,0,1,.442-.1c.748,0,.986.646,1.292,1.19.68,1.224,1.224,2.142,1.972,3.3a1.342,1.342,0,0,1,.2.51.343.343,0,0,1-.374.306,1.205,1.205,0,0,1-.374-.1,10.8,10.8,0,0,0-4.25-.986c-3.808,0-7.174,2.448-7.174,6.494,0,4.012,3.2,6.052,6.732,6.936a26.036,26.036,0,0,0,5.848.782c.714,0,.986-.136,1.156-.578a6.312,6.312,0,0,0,.34-2.074c0-.612-.1-1.088-.782-1.088-.442,0-1.122.068-1.9.068-2.618,0-7.82-.714-7.82-4.216,0-1.972,1.87-3.026,3.638-3.026,2.924,0,6.392,1.7,8.058,2.856.408.272.918.714,1.292.714.714,0,2.414-1.5,2.414-2.244a1.605,1.605,0,0,0-.544-.952,39.021,39.021,0,0,1-4.93-7.48,2.628,2.628,0,0,1-.578-1.292c0-.612.68-.748,1.122-.918a26.172,26.172,0,0,0,3.128-1.462c.442-.238,1.02-.51,1.02-.884,0-.612-1.5-2.652-2.176-2.652a2.019,2.019,0,0,0-.918.408c-.646.408-3.06,1.836-3.706,1.836a1,1,0,0,1-.918-.646c-.714-1.326-1.36-2.652-2.108-3.944C118.354-26.962,118.184-27.2,117.708-27.2Zm32.844,1.734c-.442,0-.646.476-.85.816a4.842,4.842,0,0,1-2.55,2.38,18.6,18.6,0,0,1-5.3,1.054c-.714.068-1.02.1-1.02.544a9.3,9.3,0,0,0,.884,2.754c.136.272.34.714.714.714a7.806,7.806,0,0,0,1.564-.544,6.531,6.531,0,0,1,1.122-.408.227.227,0,0,1,.238.2.84.84,0,0,1-.136.306c-1.8,3.128-3.06,6.052-3.06,9.69,0,4.93,3.162,8.364,8.16,8.364a10.1,10.1,0,0,0,9.112-5.576,18.931,18.931,0,0,0,1.6-7.888c0-.51-.068-1.02-.068-1.564,0-.17,0-.442.238-.442.272,0,.748,1.088.85,1.36.238.476.85,1.836,1.428,1.836.442,0,2.754-1.088,2.754-1.836,0-.374-.374-.782-.612-1.054a23.1,23.1,0,0,1-4.964-9.894c-.1-.646-.136-1.156-.952-1.156-.646,0-3.128.442-3.128,1.19a1.2,1.2,0,0,0,.1.476,21.761,21.761,0,0,1,1.5,8.6c0,3.06-.34,7.106-2.21,9.622a7.2,7.2,0,0,1-5.746,2.89c-3.23,0-4.624-2.21-4.624-5.236a15.922,15.922,0,0,1,2.482-8.092,23.888,23.888,0,0,1,4.386-5.542c.272-.238.986-.782.986-1.156C153.442-23.8,151.436-25.466,150.552-25.466Zm30.124,15.4c0-.646-2.074-1.87-2.38-1.87-.238,0-.34.2-.442.51a57.679,57.679,0,0,1-5.61,9.758c-.136.2-.408.51-.408.748,0,.306,1.122,1.19,1.462,1.462a7,7,0,0,0,1.632,1.122.415.415,0,0,0,.374-.442c0-.238-.1-.51-.1-.748a2.138,2.138,0,0,1,.408-.952C176.29-1.632,180.676-9.282,180.676-10.064Zm-.238-13.8a.861.861,0,0,0-.34-.578c-.476-.374-1.768-1.326-2.312-1.7a9.059,9.059,0,0,0-2.55-1.6c-.646,0-1.87,1.87-1.87,2.21,0,.306.272.442.612.646a31.9,31.9,0,0,1,3.2,2.278,4.118,4.118,0,0,0,1.36.884C179.282-21.726,180.438-23.494,180.438-23.868Zm-1.5,7.446c0-.51-1.938-1.836-2.38-2.176a13.5,13.5,0,0,0-2.958-1.836c-.578,0-1.8,1.7-1.8,2.21,0,.306.272.408.68.68a42.331,42.331,0,0,1,3.74,2.754c.238.17.612.544.884.544C177.82-14.246,178.942-16.014,178.942-16.422Zm16.32,12.886c-2.448.272-4.9.476-7.344.646-.272,0-.544-.1-.544-.442,0-.1.068-.17.1-.272,1.19-2.074,2.278-4.216,3.366-6.324.1-.2.272-.238.476-.272.238,0,.68-.034.68-.374,0-.306-.476-.51-.782-.646-.034-.034-.068-.068-.068-.1s.068-.068.1-.068h6.018c1.326,0,2.652.068,3.978.068.884,0,.85-.34.85-1.564s.034-1.6-.85-1.6c-1.326,0-2.652.068-3.978.068h-3.332c-.68,0-.952-.272-.952-.952V-18.5c0-.68.272-.952.952-.952h2.788c1.224,0,2.414.1,3.638.1.714,0,.68-.408.68-1.632,0-1.258.034-1.632-.714-1.632-.952,0-2.346.068-3.6.068h-2.788c-.68,0-.952-.272-.952-.952v-1.7c0-1.02.034-1.5.374-1.768.238-.17.442-.272.442-.51,0-.374-.476-.408-.748-.442-.578-.068-2.618-.272-3.094-.272-.34,0-.612.068-.612.476a1.157,1.157,0,0,0,.034.34,19.4,19.4,0,0,1,.1,2.516v1.36c0,.68-.272.952-.952.952h-2.278c-1.258,0-2.618-.068-3.6-.068-.782,0-.714.442-.714,1.666,0,1.156-.034,1.6.714,1.6,1.19,0,2.414-.1,3.6-.1h2.278c.68,0,.952.272.952.952v3.128c0,.68-.272.952-.952.952h-2.992c-1.326,0-2.652-.068-3.978-.068-.884,0-.85.34-.85,1.6,0,1.224-.034,1.564.85,1.564,1.326,0,2.652-.068,3.978-.068h1.19c.34.034.646.17.646.544a.574.574,0,0,1-.1.34c-1.156,2.618-2.176,4.624-3.5,7.14a1.277,1.277,0,0,1-1.258.782,11.522,11.522,0,0,1-1.53.068c-.884,0-1.258,0-1.258.51A16,16,0,0,0,180.3.272c.272.952.374,1.326.816,1.326.306,0,.374-.2.51-.442.17-.374.272-.442.442-.442,4.862-.408,9.69-.782,14.552-1.428h.238a.991.991,0,0,1,.986.714c.17.408.34.816.442,1.088.374.918.476,1.224.952,1.224.544,0,2.754-.782,2.754-1.5s-2.38-5.474-2.856-6.392a28.935,28.935,0,0,0-2.006-3.264.7.7,0,0,0-.578-.34c-.442,0-2.686.714-2.686,1.36a23.587,23.587,0,0,0,1.6,2.924,2.533,2.533,0,0,1,.374.816C195.84-3.74,195.568-3.57,195.262-3.536Zm19.754-23.188c0-.34-.51-.476-1.088-.68a13.666,13.666,0,0,0-2.278-.748c-.272,0-.374.238-.476.442a31.618,31.618,0,0,1-4.93,6.664c-.272.272-.578.51-.578.85,0,.612,1.564,1.9,2.074,1.9,1.088,0,5.3-6.222,5.984-7.378.306-.51.374-.578.782-.646C214.71-26.35,215.016-26.452,215.016-26.724Zm11.7,10.3a.786.786,0,0,1,.816-.816h1.938a.759.759,0,0,1,.782.816v.442a.732.732,0,0,1-.782.782h-1.938a.759.759,0,0,1-.816-.782Zm.816-3.638a.759.759,0,0,1-.816-.782v-.442a.786.786,0,0,1,.816-.816h1.938a.759.759,0,0,1,.782.816v.442a.732.732,0,0,1-.782.782Zm-6.868,0c-1.258,0-2.482-.068-3.74-.068-.306,0-.612.034-.748.34a.255.255,0,0,1-.238.2c-.034,0-.068-.034-.136-.034a21.237,21.237,0,0,0-2.924-1.122c-.34,0-.442.272-.578.578a36.122,36.122,0,0,1-6.358,8.806c-.2.2-.51.476-.51.782,0,.578,1.53,2.074,2.074,2.074.442,0,1.224-.884,1.53-1.224a.353.353,0,0,1,.272-.136c.238,0,.306.2.306.408v6.664c0,1.36-.068,2.72-.068,4.046,0,1.02.374,1.054,1.768,1.054s1.734-.034,1.734-1.054c0-1.326-.068-2.686-.068-4.046v-8.84c0-.918.034-1.326.374-1.53.272-.136.442-.2.442-.442,0-.476-.544-.476-.816-.51-.136-.034-.272-.1-.272-.272,0-.1,0-.136.068-.2.612-.952,1.5-2.346,2.04-3.332.408-.782.544-.816.986-.918h.068a.227.227,0,0,1,.238.17.431.431,0,0,0-.034.2c0,.986.068,1.292.816,1.292,1.258,0,2.516-.068,3.774-.068H222.5c.578,0,.816.238.816.816v.442c0,.544-.272.782-.816.782h-1.9c-.986,0-2.006-.068-3.026-.068-.714,0-.714.34-.714,1.53s0,1.5.748,1.5c1.02,0,2.006-.068,2.992-.068h1.9c.544,0,.816.238.816.816v.238c0,.578-.272.816-.816.816h-2.108c-1.258,0-2.516-.068-3.774-.068-.816,0-.816.408-.816,1.5,0,1.054-.034,1.5.816,1.5,1.258,0,2.516-.1,3.774-.1H222.5c.544,0,.816.238.816.816v.306c0,.578-.272.816-.816.816h-3.57c-1.258,0-2.516-.068-3.774-.068-.816,0-.816.374-.816,1.5,0,1.088,0,1.5.816,1.5,1.258,0,2.516-.068,3.774-.068h3.434c.578,0,.918.238.918.85.034,1.088-.068,2.176-.068,3.264,0,1.054.34,1.088,1.836,1.088,1.394,0,1.768-.034,1.768-1.054,0-1.088-.1-2.176-.068-3.3,0-.612.306-.85.918-.85h3.978c1.224,0,2.482.068,3.74.068.85,0,.816-.408.816-1.5s.034-1.5-.816-1.5c-1.258,0-2.516.068-3.74.068h-4.114c-.578,0-.816-.238-.816-.816V-6.8c0-.578.238-.816.816-.816h2.55c1.258,0,2.516.1,3.774.1.816,0,.816-.34.816-1.5,0-1.122,0-1.5-.782-1.5-1.292,0-2.55.068-3.808.068h-2.55c-.578,0-.816-.238-.816-.816v-.238c0-.578.238-.816.816-.816h2.04c.714,0,1.462.034,2.21.034,1.19,0,1.666-.34,1.666-1.564,0-.816-.068-1.632-.034-2.414,0-.646.238-.918.884-.952.374,0,.748.034,1.156.034.85,0,.816-.408.816-1.462,0-1.088.034-1.5-.816-1.5-.408,0-.782.034-1.156.034-.646,0-.884-.272-.884-.918-.034-.782.034-1.564.034-2.346,0-1.258-.51-1.6-1.7-1.6-.748,0-1.462.068-2.176.068h-1.9c-.646,0-.918-.238-.952-.918.034-.612.034-.986.408-1.292.238-.17.442-.238.442-.476,0-.408-.578-.408-.884-.442-.782-.034-2.176-.136-2.924-.136-.306,0-.612.034-.612.442,0,.1.034.238.034.34.034.51.1,1.122.1,1.632-.034.646-.34.85-.918.85h-1.768c-.986,0-2.006-.068-3.026-.068-.714,0-.714.34-.714,1.462,0,1.19,0,1.462.748,1.462,1.02,0,2.006-.068,2.992-.068h1.9c.578,0,.816.272.816.816v.442c0,.544-.272.782-.816.782Zm36.108,2.04a.786.786,0,0,1,.816-.816h3.434a.786.786,0,0,1,.816.816v.2a.786.786,0,0,1-.816.816h-3.434a.786.786,0,0,1-.816-.816Zm-4.352-.816a.786.786,0,0,1,.816.816v.2a.786.786,0,0,1-.816.816h-3.434a.786.786,0,0,1-.816-.816v-.2a.786.786,0,0,1,.816-.816Zm9.622,11.458a.669.669,0,0,1,.646.646v.17a.607.607,0,0,1-.646.646h-4.624a.607.607,0,0,1-.646-.646v-.17a.669.669,0,0,1,.646-.646Zm-5.27-2.958a.669.669,0,0,1,.646-.646h4.624a.669.669,0,0,1,.646.646v.136a.607.607,0,0,1-.646.646h-4.624a.607.607,0,0,1-.646-.646Zm9.452-.136c0-.476.068-.986.068-1.5,0-1.054-.544-1.36-1.53-1.36-.918,0-1.836.068-2.754.068h-4.59c-.476,0-.646-.2-.646-.646v-.17c0-.476.2-.646.646-.646h2.822c1.054,0,2.074.034,3.094.034.782,0,1.9-.068,1.9-1.088,0-.34-.068-.646-.068-1.224v-1.836c0-.578.068-.884.068-1.224,0-1.054-1.156-1.122-1.938-1.122-1.02,0-2.04.068-3.06.068h-2.822c-.476,0-.646-.2-.646-.646v-.2c0-.476.2-.646.646-.646h6.9c1.394,0,2.822.068,4.216.068.782,0,.748-.408.748-1.326s.034-1.292-.748-1.292c-1.394,0-2.788.068-4.216.068h-6.6c-.646,0-.918-.272-.918-.952a1.06,1.06,0,0,1,.34-.986c.238-.17.408-.272.408-.476,0-.408-.578-.408-.918-.442-.544-.068-2.516-.272-2.958-.272-.34,0-.612.068-.612.476,0,.068.034.2.034.306.068.476.1.952.136,1.428-.068.68-.306.918-.952.918h-6.63c-1.394,0-2.822-.068-4.216-.068-.748,0-.748.34-.748,1.292s0,1.326.748,1.326c1.428,0,2.822-.068,4.216-.068h6.936c.442,0,.646.17.646.646v.2a.562.562,0,0,1-.646.646h-2.822c-1.02,0-2.04-.068-3.06-.068-.782,0-1.938.068-1.938,1.122,0,.34.068.646.068,1.224V-17c0,.578-.068.884-.068,1.224,0,1.02,1.156,1.088,1.938,1.088,1.02,0,2.04-.034,3.06-.034h2.822a.562.562,0,0,1,.646.646v.17a.562.562,0,0,1-.646.646h-7c-.85,0-1.734-.068-2.584-.068-.578,0-.578.306-.578,1.19,0,.918,0,1.224.612,1.224.85,0,1.7-.068,2.55-.068h7a.562.562,0,0,1,.646.646v.17c0,.442-.2.612-.646.612h-7.65c-1.428,0-2.89-.034-4.318-.034-.714,0-.68.408-.68,1.122s-.034,1.156.646,1.156c1.462,0,2.924-.068,4.352-.068h7.65a.562.562,0,0,1,.646.646v.2c0,.442-.2.612-.646.612h-5.3c-1.36,0-2.754-.034-4.148-.034-.782,0-.816.238-.816,1.19s.034,1.224.816,1.224c1.394,0,2.788-.068,4.148-.068h5c.646,0,.884.238.952.884-.068,1.326-.2,1.768-1.9,1.768-.816,0-1.462-.136-1.9-.136-.51,0-.646.306-.646.782,0,2.686,1.122,2.516,2.074,2.516,2.482,0,5.984-.068,5.984-3.366,0-.34,0-1.224-.034-1.564.034-.646.272-.884.918-.884h4.42c.306,0,.408.17.544.408.17.408.646.408,1.666.408,1.428,0,1.972.034,1.972-.782,0-.646-.1-1.53-.1-2.414v-.442a.8.8,0,0,1,.918-.918c.714,0,1.428.034,2.142.034.68,0,.68-.374.68-1.156,0-.714.034-1.122-.68-1.122s-1.428,0-2.176.034C266.526-9.588,266.254-9.86,266.22-10.472ZM297.5-7.344c1.258,0,1.7-.068,1.7.748a24.034,24.034,0,0,1-.646,4.352c-.272,1.02-.68,1.156-1.666,1.156-.408,0-.782-.034-1.156-.068a2.749,2.749,0,0,0-.51-.034c-.578,0-.578.51-.578.986,0,2.414.578,2.346,1.972,2.346,2.278,0,4.148-.136,4.9-2.618a41.091,41.091,0,0,0,1.19-8.16c0-1.428-.646-1.666-2.244-1.666-.816,0-1.87.068-3.2.068h-.476c-.612,0-.85-.306-.85-.918v-.238c.034-.272.068-.374.306-.51.17-.1.51-.238.51-.476,0-.272-.408-.34-.68-.374a28.362,28.362,0,0,0-2.856-.34c-.51,0-.51.238-.51,1.19,0,.2-.034.476-.034.782a.877.877,0,0,1-1.02.884c-.986.034-2.006-.068-3.026-.068-.816,0-.782.272-.782,1.53,0,1.122-.034,1.5.714,1.5.306,0,2.21-.068,2.516-.068.34.034.68.136.68.544a.993.993,0,0,1-.068.306A12.035,12.035,0,0,1,286.62-.918c-.306.17-.612.306-.612.612,0,.68,1.428,2.244,2.176,2.244.714,0,2.142-1.36,2.686-1.87a15.335,15.335,0,0,0,4.182-6.6,1.052,1.052,0,0,1,1.19-.816Zm.374-14.314a9.822,9.822,0,0,1-1.122,1.53.772.772,0,0,1-.612.306.79.79,0,0,1-.646-.306,9.033,9.033,0,0,1-1.19-1.564.548.548,0,0,1-.1-.306c0-.374.272-.442.578-.476h2.584c.306.034.612.136.612.476A.656.656,0,0,1,297.874-21.658Zm-10.132,8.636a.327.327,0,0,1,.306-.2c.17,0,.238.1.306.238.2.408.51,1.122,1.054,1.122,1.054,0,4.964-2.38,5.916-3.06a1.067,1.067,0,0,1,.714-.238,1.159,1.159,0,0,1,.646.238,23.946,23.946,0,0,0,4.964,2.822,3.448,3.448,0,0,0,.952.306c.714,0,1.7-1.938,1.7-2.584,0-.34-.442-.476-.884-.646a21.671,21.671,0,0,1-4.284-2.074.746.746,0,0,1-.374-.612.875.875,0,0,1,.238-.544,21.615,21.615,0,0,0,1.7-2.244c.272-.442.272-.442.748-.578.2-.034.476-.1.476-.34,0-.34-.612-.544-1.088-.748-.068-.034-.1-.068-.1-.136,0-.1.034-.136.136-.17.748.034,1.836.068,2.55.068s.748-.272.748-1.462,0-1.462-.748-1.462c-1.19,0-2.38.068-3.6.068h-4.42c-.306-.034-.612-.136-.612-.51a.613.613,0,0,1,.068-.34c.136-.34.238-.51.544-.578.238-.034.646-.136.646-.408,0-.408-1.292-.748-2.142-.986a9.112,9.112,0,0,0-1.19-.34c-.272,0-.408.306-.476.51A20.768,20.768,0,0,1,287.5-20.74c-.136.136-.306.272-.306.476,0,.51,1.428,1.836,2.006,1.836.51,0,1.326-.986,1.768-1.53a.665.665,0,0,1,.51-.238.674.674,0,0,1,.544.34,14.331,14.331,0,0,0,1.19,1.632.8.8,0,0,1,.238.578.711.711,0,0,1-.408.612A22.922,22.922,0,0,1,289.17-15.1h-.136c-.238,0-.34-.272-.374-.442a2.641,2.641,0,0,0-2.21-1.564c-.2,0-1.768.034-2.074.034-.136,0-.272-.034-.272-.2a.187.187,0,0,1,.1-.17.974.974,0,0,0,.374-.646c0-.272-.612-.918-.816-1.156a.964.964,0,0,1-.238-.578.8.8,0,0,1,.374-.646c.816-.646,4.624-3.706,4.624-4.624a2.878,2.878,0,0,0-.85-1.53,1.394,1.394,0,0,0-1.326-.646c-.612,0-1.224.034-1.836.034H278.8c-.986,0-2.006-.068-2.992-.068-.748,0-.748.34-.748,1.462,0,1.156,0,1.462.748,1.462.714,0,1.938-.068,2.992-.068h4.284c.2,0,.714-.034.714.272,0,.34-1.428,1.564-1.734,1.836a1.108,1.108,0,0,1-.646.272c-.272,0-.714-.374-.918-.578a1.884,1.884,0,0,0-1.156-.748c-.612,0-2.074,1.258-2.074,1.734,0,.306.408.612.578.782a24.716,24.716,0,0,1,3.128,3.128.506.506,0,0,1,.136.306c0,.272-.238.374-.476.374h-2.992c-.952,0-1.87-.034-2.788-.034-.68,0-.714.306-.714,1.462,0,1.122.034,1.462.714,1.462.918,0,1.836-.068,2.788-.068h.85c.34.034.646.136.646.578a.8.8,0,0,1-.068.272A28.488,28.488,0,0,1,274.006-5.3c-.136.136-.34.306-.34.544,0,.544,1.36,1.972,1.938,1.972.306,0,.748-.612.918-.816a24.543,24.543,0,0,0,3.366-5.644c.068-.1.1-.136.2-.136.136,0,.17.1.17.238V-3.2c0,1.5.068,2.04-1.53,2.04-.476,0-.952-.068-1.326-.068-.51,0-.612.34-.612.782,0,2.618,1.02,2.482,1.7,2.482,2.448,0,4.828-.306,4.828-3.3,0-.68-.034-1.36-.034-2.04V-13.43c0-.578.238-.816.782-.816h.442c.238,0,.714-.034.714.34A6.1,6.1,0,0,1,284.1-12c-.17.2-.408.442-.408.68,0,.578,1.5,1.292,2.006,1.292.34,0,.544-.408.782-.748C286.62-11.016,287.674-12.852,287.742-13.022Zm30.43-10.642c1.088,0,2.21.068,3.3.068.884,0,.85-.544.85-1.734,0-1.156.034-1.734-.85-1.734-1.088,0-2.21.1-3.3.1h-5.61c-1.088,0-2.21-.1-3.3-.1-.85,0-.85.544-.85,1.734,0,1.224,0,1.734.85,1.734,1.088,0,2.21-.068,3.3-.068ZM318-13.77c0,.68-.272.952-.952.952h-2.89c-.646,0-.918-.272-.918-.952v-2.822c0-.68.272-.952.918-.952h2.89c.68,0,.952.272.952.952Zm-4.9,4.964c.068-.646.34-.918.986-.918h3.23c.306.034.544.34.748.578.238.238.476.238,1.564.238,1.36,0,1.734,0,1.734-.816,0-1.02-.068-2.04-.068-3.094v-4.046c0-.85.034-1.7.034-2.55,0-1.224-.68-1.462-1.768-1.462-.85,0-1.666.068-2.516.068h-2.924c-.85,0-1.7-.068-2.516-.068-1.088,0-1.768.238-1.768,1.462,0,.85.034,1.7.034,2.55v3.706c0,4.284-.442,8.908-2.278,12.852a2.105,2.105,0,0,0-.238.646c0,.68,2.312,1.53,2.754,1.53.408,0,.578-.17.986-1.156A30.528,30.528,0,0,0,313.106-8.806ZM327.862-21.76c0-1.19.17-1.224,1.224-1.36a41.674,41.674,0,0,0,6.63-1.394,3.864,3.864,0,0,1,.85-.2,1.425,1.425,0,0,1,.51.136.812.812,0,0,0,.476.17.453.453,0,0,0,.476-.408c0-.306-.544-.986-.918-1.462-.34-.442-1.088-1.5-1.632-1.5a.833.833,0,0,0-.408.136c-2.006,1.054-6.188,1.7-8.466,1.9-.884.068-2.21.068-2.21,1.6v8.7c0,3.4-.306,7.582-1.666,10.744a17.831,17.831,0,0,1-2.584,4.114c-.136.17-.408.408-.408.646,0,.646,1.9,1.53,2.618,1.53a1.016,1.016,0,0,0,.782-.374,13.475,13.475,0,0,0,2.04-3.2A28.85,28.85,0,0,0,327.828-13.5c.1-.68.34-.918.986-.918h1.394c.68,0,.952.306.952.952v10c0,1.5-.1,2.992-.1,4.488,0,1.122.408,1.122,1.836,1.122s1.8,0,1.8-1.122c0-1.5-.1-2.992-.1-4.488v-10c0-.646.238-.85.918-.918.476.034,1.258.068,1.734.068.85,0,.816-.34.816-1.666,0-1.36.068-1.7-.816-1.7-1.36,0-2.72.068-4.046.068h-4.386c-.68,0-.952-.272-.952-.952Z" transform="translate(-23504.086 -11041.079)" fill="#ef8c37"/>
    <path id="パス_12916" data-name="パス 12916" d="M1.785,0H3.063V-11.9H1.785ZM8.408-4.08A3.1,3.1,0,0,1,9.3-6.28a2.7,2.7,0,0,1,2-.942,2.5,2.5,0,0,1,1.888.917,3.188,3.188,0,0,1,.834,2.225,3.188,3.188,0,0,1-.834,2.225A2.5,2.5,0,0,1,11.3-.938a2.7,2.7,0,0,1-2-.942A3.1,3.1,0,0,1,8.408-4.08Zm0-7.823H7.221V0H8.408V-1.278l.125.158a2.734,2.734,0,0,0,.361.361A4.654,4.654,0,0,0,9.47-.34a3.469,3.469,0,0,0,.818.357A3.41,3.41,0,0,0,11.3.166a3.642,3.642,0,0,0,2.739-1.249,4.229,4.229,0,0,0,1.17-3,4.235,4.235,0,0,0-1.175-3A3.641,3.641,0,0,0,11.3-8.334a3.405,3.405,0,0,0-1.017.154,3.56,3.56,0,0,0-.809.349,3.833,3.833,0,0,0-.585.444,4.761,4.761,0,0,0-.357.353q-.087.1-.12.154Zm11.728,7.23a3.11,3.11,0,0,0-1.768.818,2.253,2.253,0,0,0-.614,1.648,2.143,2.143,0,0,0,.834,1.652,3.029,3.029,0,0,0,2.054.722,3.414,3.414,0,0,0,.95-.133,3.141,3.141,0,0,0,.743-.3,3.462,3.462,0,0,0,.527-.39,3.445,3.445,0,0,0,.315-.307q.071-.087.1-.137V0h1.187V-5.188a3.023,3.023,0,0,0-.917-2.241,3.157,3.157,0,0,0-2.312-.9,3.642,3.642,0,0,0-1.075.162,3.488,3.488,0,0,0-.851.369,4.982,4.982,0,0,0-.618.469,4.456,4.456,0,0,0-.382.365q-.087.1-.137.17l.764.764.257-.291a2.687,2.687,0,0,1,.826-.6,2.605,2.605,0,0,1,1.216-.295,2,2,0,0,1,1.469.564,1.972,1.972,0,0,1,.573,1.469Zm.506,3.735A1.952,1.952,0,0,1,19.393-1.3a1.116,1.116,0,0,1-.452-.909q.008-1.154,1.536-1.444l2.806-.515v.515a2.675,2.675,0,0,1-.743,1.959A2.546,2.546,0,0,1,20.642-.938Zm11.811-7.4h-.34A3.639,3.639,0,0,0,31.1-8.2a3.3,3.3,0,0,0-.764.307,3.533,3.533,0,0,0-.535.39,2.817,2.817,0,0,0-.315.307q-.066.087-.1.137v-1.1H28.2V0H29.39V-4.507a2.541,2.541,0,0,1,.747-1.9,2.483,2.483,0,0,1,1.8-.73h.515Zm4.415,3.661a3.11,3.11,0,0,0-1.768.818,2.253,2.253,0,0,0-.614,1.648A2.143,2.143,0,0,0,35.32-.556a3.029,3.029,0,0,0,2.054.722,3.414,3.414,0,0,0,.95-.133,3.141,3.141,0,0,0,.743-.3,3.462,3.462,0,0,0,.527-.39,3.444,3.444,0,0,0,.315-.307q.071-.087.1-.137V0H41.2V-5.188a3.023,3.023,0,0,0-.917-2.241,3.157,3.157,0,0,0-2.312-.9,3.642,3.642,0,0,0-1.075.162,3.488,3.488,0,0,0-.851.369,4.983,4.983,0,0,0-.618.469,4.457,4.457,0,0,0-.382.365q-.087.1-.137.17l.764.764.257-.291a2.687,2.687,0,0,1,.826-.6,2.605,2.605,0,0,1,1.216-.295,2,2,0,0,1,1.469.564,1.972,1.972,0,0,1,.573,1.469Zm.506,3.735A1.952,1.952,0,0,1,36.125-1.3a1.116,1.116,0,0,1-.452-.909q.008-1.154,1.536-1.444l2.806-.515v.515a2.675,2.675,0,0,1-.743,1.959A2.546,2.546,0,0,1,37.374-.938Zm8.831-1.353,1.619-1.7L50.713,0h1.361L48.588-4.848,51.734-8.16H50.289L46.205-3.827V-11.9H45.018V0h1.187ZM54.621,0h1.187V-8.16H54.621Zm-.174-10.882a.739.739,0,0,0,.22.544.739.739,0,0,0,.544.22.739.739,0,0,0,.544-.22.739.739,0,0,0,.22-.544.739.739,0,0,0-.22-.544.739.739,0,0,0-.544-.22.739.739,0,0,0-.544.22A.739.739,0,0,0,54.447-10.882ZM70.764-4.507h-4.59l2.3-5.611Zm.515,1.2L72.64,0h1.353L69.063-11.9H67.876L62.945,0h1.361l1.361-3.312Zm10.367-3.91-.125-.125a3.214,3.214,0,0,0-.328-.27,4.676,4.676,0,0,0-.519-.332,3.042,3.042,0,0,0-.743-.274,3.835,3.835,0,0,0-.926-.112,2.824,2.824,0,0,0-1.947.689,2.1,2.1,0,0,0-.776,1.61,1.793,1.793,0,0,0,.461,1.274,2.736,2.736,0,0,0,1.108.722q.647.228,1.291.415a3.764,3.764,0,0,1,1.1.506.967.967,0,0,1,.461.826,1.207,1.207,0,0,1-.461.971,2.025,2.025,0,0,1-1.324.382,2.276,2.276,0,0,1-.739-.125,2.408,2.408,0,0,1-.6-.286,3.209,3.209,0,0,1-.436-.365A3.173,3.173,0,0,1,76.889-2q-.058-.079-.091-.129l-.855.847.108.158a2.735,2.735,0,0,0,.361.361,4.654,4.654,0,0,0,.577.419,3.4,3.4,0,0,0,.843.357,3.869,3.869,0,0,0,1.092.149,3.183,3.183,0,0,0,2.167-.7,2.232,2.232,0,0,0,.805-1.756,1.93,1.93,0,0,0-.457-1.324,2.6,2.6,0,0,0-1.1-.747q-.647-.228-1.295-.407a3.9,3.9,0,0,1-1.1-.477.906.906,0,0,1-.457-.789,1.061,1.061,0,0,1,.423-.83,1.655,1.655,0,0,1,1.1-.357,2.165,2.165,0,0,1,1,.237,2.457,2.457,0,0,1,.593.374,1.917,1.917,0,0,1,.2.237Zm5.179,2.548a3.11,3.11,0,0,0-1.768.818,2.253,2.253,0,0,0-.614,1.648,2.143,2.143,0,0,0,.834,1.652,3.029,3.029,0,0,0,2.054.722,3.414,3.414,0,0,0,.95-.133,3.141,3.141,0,0,0,.743-.3,3.462,3.462,0,0,0,.527-.39,3.445,3.445,0,0,0,.315-.307q.071-.087.1-.137V0h1.187V-5.188a3.023,3.023,0,0,0-.917-2.241,3.157,3.157,0,0,0-2.312-.9,3.642,3.642,0,0,0-1.075.162A3.488,3.488,0,0,0,86-7.8a4.983,4.983,0,0,0-.618.469A4.457,4.457,0,0,0,85-6.969q-.087.1-.137.17l.764.764.257-.291a2.687,2.687,0,0,1,.826-.6,2.605,2.605,0,0,1,1.216-.295,2,2,0,0,1,1.469.564,1.972,1.972,0,0,1,.573,1.469Zm.506,3.735A1.952,1.952,0,0,1,86.082-1.3a1.116,1.116,0,0,1-.452-.909q.008-1.154,1.536-1.444l2.806-.515v.515a2.675,2.675,0,0,1-.743,1.959A2.546,2.546,0,0,1,87.331-.938ZM96.162-11.9H94.975V0h1.187V-4.507a2.707,2.707,0,0,1,.73-1.951,2.413,2.413,0,0,1,1.818-.764,2.108,2.108,0,0,1,1.594.652,2.39,2.39,0,0,1,.623,1.722V0h1.187V-4.848a3.5,3.5,0,0,0-.917-2.532A3.171,3.171,0,0,0,98.8-8.334a3.129,3.129,0,0,0-.955.145,3.227,3.227,0,0,0-.739.324,3.159,3.159,0,0,0-.527.419,4.193,4.193,0,0,0-.315.332q-.071.091-.1.141ZM105.856,0h1.187V-8.16h-1.187Zm-.174-10.882a.739.739,0,0,0,.22.544.739.739,0,0,0,.544.22.739.739,0,0,0,.544-.22.739.739,0,0,0,.22-.544.739.739,0,0,0-.22-.544.739.739,0,0,0-.544-.22.739.739,0,0,0-.544.22A.739.739,0,0,0,105.682-10.882ZM122.937,0V-1.187H116.82V-11.9h-1.278V0Zm4.415-4.673a3.11,3.11,0,0,0-1.768.818,2.253,2.253,0,0,0-.614,1.648A2.143,2.143,0,0,0,125.8-.556a3.029,3.029,0,0,0,2.054.722,3.414,3.414,0,0,0,.95-.133,3.141,3.141,0,0,0,.743-.3,3.462,3.462,0,0,0,.527-.39,3.447,3.447,0,0,0,.315-.307q.071-.087.1-.137V0h1.187V-5.188a3.023,3.023,0,0,0-.917-2.241,3.157,3.157,0,0,0-2.312-.9,3.642,3.642,0,0,0-1.075.162,3.488,3.488,0,0,0-.851.369,4.983,4.983,0,0,0-.618.469,4.457,4.457,0,0,0-.382.365q-.087.1-.137.17l.764.764.257-.291a2.687,2.687,0,0,1,.826-.6,2.605,2.605,0,0,1,1.216-.295,2,2,0,0,1,1.469.564,1.972,1.972,0,0,1,.573,1.469Zm.506,3.735a1.952,1.952,0,0,1-1.249-.361,1.116,1.116,0,0,1-.452-.909q.008-1.154,1.536-1.444l2.806-.515v.515a2.675,2.675,0,0,1-.743,1.959A2.546,2.546,0,0,1,127.859-.938ZM139.753-8.16l-2.042,6.292L135.586-8.16h-1.278L137.113,0h1.112l2.034-6.209L142.3,0h1.1l2.806-8.16h-1.278l-2.125,6.292L140.774-8.16Zm14.358,2.208a4.8,4.8,0,0,1,1.4-3.511,4.655,4.655,0,0,1,3.445-1.419A4.655,4.655,0,0,1,162.4-9.463a4.8,4.8,0,0,1,1.4,3.511,4.8,4.8,0,0,1-1.4,3.511,4.655,4.655,0,0,1-3.445,1.419,4.655,4.655,0,0,1-3.445-1.419A4.8,4.8,0,0,1,154.111-5.952Zm10.965,0a5.9,5.9,0,0,0-1.785-4.333,5.9,5.9,0,0,0-4.333-1.785,5.9,5.9,0,0,0-4.333,1.785,5.9,5.9,0,0,0-1.785,4.333,5.9,5.9,0,0,0,1.785,4.333A5.9,5.9,0,0,0,158.959.166a5.9,5.9,0,0,0,4.333-1.785A5.9,5.9,0,0,0,165.076-5.952Zm6.889-2.208h-1.959V-9.687q0-1.278,1.1-1.278a2.4,2.4,0,0,1,1.1.257v-1.1l-.133-.058a2.52,2.52,0,0,0-.448-.133,2.785,2.785,0,0,0-.606-.066,2.119,2.119,0,0,0-1.623.623,2.471,2.471,0,0,0-.585,1.76V-8.16h-1.278v1.1h1.278V0h1.187V-7.056h1.959Zm6.457,0h-1.959V-9.687q0-1.278,1.1-1.278a2.4,2.4,0,0,1,1.1.257v-1.1l-.133-.058A2.52,2.52,0,0,0,178.09-12a2.785,2.785,0,0,0-.606-.066,2.119,2.119,0,0,0-1.623.623,2.471,2.471,0,0,0-.585,1.76V-8.16H174v1.1h1.278V0h1.187V-7.056h1.959ZM181.31,0H182.5V-8.16H181.31Zm-.174-10.882a.739.739,0,0,0,.22.544.739.739,0,0,0,.544.22.739.739,0,0,0,.544-.22.739.739,0,0,0,.22-.544.739.739,0,0,0-.22-.544.739.739,0,0,0-.544-.22.739.739,0,0,0-.544.22A.739.739,0,0,0,181.135-10.882Zm4.506,6.8a4.163,4.163,0,0,0,1.2,3.009A3.863,3.863,0,0,0,189.717.166a3.791,3.791,0,0,0,1.175-.187,4.582,4.582,0,0,0,.942-.407,5.077,5.077,0,0,0,.7-.506,4.884,4.884,0,0,0,.436-.407q.1-.12.154-.187l-.847-.764L192-1.959a3.2,3.2,0,0,1-.93.681,2.838,2.838,0,0,1-1.353.34,2.7,2.7,0,0,1-2.03-.909,3.128,3.128,0,0,1-.859-2.233,3.128,3.128,0,0,1,.859-2.233,2.7,2.7,0,0,1,2.03-.909,2.79,2.79,0,0,1,.888.141,2.869,2.869,0,0,1,.689.32,2.938,2.938,0,0,1,.494.419,4.23,4.23,0,0,1,.295.332q.066.091.1.141l.855-.847-.357-.39a3.89,3.89,0,0,0-1.183-.818,3.942,3.942,0,0,0-1.781-.411,3.867,3.867,0,0,0-2.868,1.241A4.155,4.155,0,0,0,185.642-4.084Zm17.588.448.083-.614a4.037,4.037,0,0,0-1.121-2.926A3.723,3.723,0,0,0,199.4-8.334a3.761,3.761,0,0,0-2.8,1.241,4.186,4.186,0,0,0-1.191,3.009,4.163,4.163,0,0,0,1.2,3.009A3.863,3.863,0,0,0,199.486.166a3.922,3.922,0,0,0,1.2-.187,4.653,4.653,0,0,0,.955-.407,4.414,4.414,0,0,0,.689-.506,4.166,4.166,0,0,0,.415-.407q.1-.12.145-.187l-.764-.764-.291.332a2.919,2.919,0,0,1-.93.681,3.036,3.036,0,0,1-1.419.34,2.772,2.772,0,0,1-1.98-.805,2.8,2.8,0,0,1-.909-1.909ZM199.4-7.222a2.561,2.561,0,0,1,1.83.722,2.917,2.917,0,0,1,.892,1.826H196.6a2.964,2.964,0,0,1,.938-1.793A2.628,2.628,0,0,1,199.4-7.222Z" transform="translate(-23500.785 -11011.921)" fill="#aa7f54"/>
    <g id="グループ_405363" data-name="グループ 405363" transform="translate(-23583.02 -11077.888)">
      <g id="グループ_405360" data-name="グループ 405360" transform="translate(7.43 55.898)">
        <g id="グループ_804" data-name="グループ 804" clip-path="url(#clip-path)">
          <rect id="長方形_3628" data-name="長方形 3628" width="11.211" height="14.106" transform="translate(-0.262 0)" fill="url(#linear-gradient)"/>
        </g>
      </g>
      <g id="グループ_405361" data-name="グループ 405361" transform="translate(15.789 9.333)">
        <g id="グループ_806" data-name="グループ 806" clip-path="url(#clip-path-2)">
          <rect id="長方形_3629" data-name="長方形 3629" width="47.69" height="60.672" transform="translate(-0.071 0)" fill="url(#linear-gradient-2)"/>
        </g>
      </g>
      <g id="グループ_405362" data-name="グループ 405362" transform="translate(0 0)">
        <g id="グループ_808" data-name="グループ 808" clip-path="url(#clip-path-3)">
          <rect id="長方形_3630" data-name="長方形 3630" width="53.085" height="72.085" transform="translate(-0.292 0)" fill="url(#linear-gradient-3)"/>
        </g>
      </g>
    </g>
  </g>
</svg>
