<svg xmlns="http://www.w3.org/2000/svg" xmlns:xlink="http://www.w3.org/1999/xlink" width="418.934" height="72.085" viewBox="0 0 418.934 72.085"><defs><style>.a{fill:none;}.b{fill:#ef8c37;font-size:34px;font-family:HiraginoSans-W3, Hiragino Sans;}.c{fill:#aa7f54;font-size:17px;font-family:TTNorms-Regular, TT Norms;letter-spacing:0.06em;}.d{clip-path:url(#a);}.e{fill:url(#b);}.f{clip-path:url(#c);}.g{fill:url(#d);}.h{clip-path:url(#e);}.i{fill:url(#f);}</style><clipPath id="a"><path class="a" d="M10.063,87.269a1.214,1.214,0,0,0,1.147,1.706h4.447a1.261,1.261,0,0,0,1.148-.714L20.9,79.5a29.278,29.278,0,0,1-5.042-4.628Z" transform="translate(-9.951 -74.868)"/></clipPath><linearGradient id="b" x1="-0.639" y1="1.147" x2="-0.573" y2="1.147" gradientUnits="objectBoundingBox"><stop offset="0" stop-color="#e37a31"/><stop offset="1" stop-color="#ff943b"/></linearGradient><clipPath id="c"><path class="a" d="M40.125,13.214,21.26,53.581a1.165,1.165,0,0,0,.119,1.2A24.616,24.616,0,0,0,24.6,58.255a1.184,1.184,0,0,0,1.861-.379l7.408-15.85,7.283-15.914,2.767,6.107L51,48.51l1.292,2.939h-.015L61.4,72.43a1.26,1.26,0,0,0,1.16.744h4.945a1.237,1.237,0,0,0,1.26-1.2v-.02a1.17,1.17,0,0,0-.105-.47L42.426,13.23a1.278,1.278,0,0,0-2.3-.016" transform="translate(-21.147 -12.501)"/></clipPath><linearGradient id="d" x1="-0.33" y1="1.034" x2="-0.314" y2="1.034" xlink:href="#b"/><clipPath id="e"><path class="a" d="M35.675,0A36.043,36.043,0,1,0,48.852,69.74a1.182,1.182,0,0,0,.671-1.558l-1.36-3.277a1.178,1.178,0,0,0-1.5-.65A30.146,30.146,0,1,1,49.549,9.1a.881.881,0,0,0,1.183-.4l1.843-3.706a.89.89,0,0,0-.4-1.189A35.894,35.894,0,0,0,36.046,0h-.371" transform="translate(0 -0.001)"/></clipPath><linearGradient id="f" x1="0.005" y1="1" x2="0.02" y2="1" xlink:href="#b"/></defs><g transform="translate(-38.98 -67.112)"><text class="b" transform="translate(117.914 103.921)"><tspan x="0" y="0">茨木あさひ法律事務所</tspan></text><text class="c" transform="translate(121.215 133.079)"><tspan x="0" y="0">Ibaraki Asahi Law Office</tspan></text><g transform="translate(38.98 67.112)"><g transform="translate(7.43 55.898)"><g class="d"><rect class="e" width="11.211" height="14.106" transform="translate(-0.262 0)"/></g></g><g transform="translate(15.789 9.333)"><g class="f"><rect class="g" width="47.69" height="60.672" transform="translate(-0.071 0)"/></g></g><g transform="translate(0 0)"><g class="h"><rect class="i" width="53.085" height="72.085" transform="translate(-0.292 0)"/></g></g></g></g></svg>