<svg xmlns="http://www.w3.org/2000/svg" xmlns:xlink="http://www.w3.org/1999/xlink" width="189.289" height="265.097" viewBox="0 0 189.289 265.097"><defs><clipPath id="a"><rect width="189.289" height="265.097" fill="none"/></clipPath></defs><g transform="translate(0)"><g transform="translate(0 0)" clip-path="url(#a)"><path d="M145.915,113.285,102.4,16.661a2.12,2.12,0,0,0-3.817-.025L67.288,83.591a1.936,1.936,0,0,0,.2,1.991,40.759,40.759,0,0,0,5.335,5.761,1.962,1.962,0,0,0,3.086-.626L88.2,64.425l12.079-26.4,4.59,10.131L116.618,75.18l2.143,4.874h-.024l15.136,34.8a2.089,2.089,0,0,0,1.925,1.232H144a2.014,2.014,0,0,0,1.915-2.8" transform="translate(0.129 0.03)" fill="#fff"/><path d="M120.85,107.658a1.951,1.951,0,0,0-2.493-1.077,50,50,0,1,1,4.793-91.492,1.461,1.461,0,0,0,1.964-.659l3.056-6.148a1.476,1.476,0,0,0-.67-1.973,59.781,59.781,0,0,0-68.852,95.906L53.472,113.29a2.013,2.013,0,0,0,1.9,2.828h7.377a2.094,2.094,0,0,0,1.9-1.183l2.623-5.613a59.844,59.844,0,0,0,54.717,6.356,1.963,1.963,0,0,0,1.114-2.585Z" transform="translate(0.079 0)" fill="#fff"/><path d="M16.027,171.732A98.2,98.2,0,0,1,7.7,176.987c-.69.384-.728.384-.806.806-.038.269-.191.5-.46.5-.346,0-.614-.384-1.074-1.112a3.293,3.293,0,0,0-.308-.461,5.779,5.779,0,0,1-1-1.842c0-.383.46-.537.766-.651a55.056,55.056,0,0,0,9.054-5.333,1.579,1.579,0,0,1,.806-.384c.652,0,1.8,1.995,1.8,2.532a.881.881,0,0,1-.46.691m8.248-20.755c.69,0,1-.269,1.036-1.036,0-.384-.077-1.036-.115-1.42,0-.114-.038-.229-.038-.345,0-.422.384-.422.69-.422.575,0,2.878.153,3.491.229.23,0,.652.039.652.384,0,.23-.229.384-.422.5-.46.307-.46.575-.46,1.074-.039.729.384,1.036,1.074,1.036h2.455c1.535,0,3.031-.115,4.528-.115.92,0,.92.422.92,1.842s.039,1.8-.882,1.8c-1.535,0-3.031-.077-4.566-.077H30.183c-.69,0-1.036.268-1.036,1,0,.345.038.69.038,1.036,0,1.035-.46,1-2.071,1-1.42,0-1.881.038-1.881-.959,0-.346.039-.691.039-1.036,0-.729-.308-1.036-1.036-1.036H17.984c-.691,0-1,.307-1.036,1.036a7.753,7.753,0,0,1,.038.959c0,1-.422,1-2.033,1-1.382,0-1.88.038-1.88-.921v-1.036c0-.729-.308-1.036-1.036-1.036H9.621c-1.5,0-3.031.077-4.527.077-.96,0-.883-.423-.883-1.8,0-1.42-.038-1.842.883-1.842,1.5,0,3.03.115,4.527.115h2.455c.729,0,1-.269,1.074-1.036-.038-.5-.076-1-.153-1.5v-.308c0-.422.346-.46.652-.46.575,0,2.609.153,3.261.192.345.038.882.076.882.422,0,.269-.229.384-.422.5-.422.27-.422.537-.46,1.151a.942.942,0,0,0,1.074,1.036ZM10.886,164.9c-.345,0-.575-.307-.806-.537a45.925,45.925,0,0,0-4.565-4.1c-.23-.191-.537-.422-.537-.728a3.643,3.643,0,0,1,2.148-2.11c.575,0,2.838,2.033,3.375,2.493s2.609,2.34,2.609,2.955c0,.575-1.611,2.033-2.225,2.033m11.509,0c0-.575-.422-.806-.959-.806H20.9a1.543,1.543,0,0,0-1.611.844c-.115.192-.269.422-.423.691-.69,1.112-1.649,2.685-2.224,2.685-.537,0-2.686-1.381-2.686-1.918,0-.23.269-.5.384-.653a35.231,35.231,0,0,0,5.294-9.245c.077-.23.153-.461.461-.461a25,25,0,0,1,2.838.806c.614.192,1.074.308,1.074.652,0,.384-.422.461-.728.537s-.461.461-.767,1.113c-.077.153-.153.345-.23.537a.9.9,0,0,0-.076.307c0,.422.307.575.69.575h8.248c1.189,0,2.417-.038,3.606-.038.69,0,1.113.269,1.765,1.036a3.234,3.234,0,0,1,.806,1.458c0,.921-1.881,3.376-2.532,4.143-.384.5-1.65,2.187-2.263,2.187-.767,0-2.724-1.266-2.724-1.995,0-.23.537-.69.844-1l.192-.191c.307-.308,1.458-1.458,1.458-1.842,0-.269-.384-.23-.537-.23H27.229c-.461,0-.883.192-.883.728,0,.115.038.192.038.269a17.622,17.622,0,0,0,3.069,6.177,27.534,27.534,0,0,0,5.026,5.1,38.9,38.9,0,0,0,3.3,2.263c.192.115.461.307.461.537,0,.614-1.65,2.647-2.494,2.647-.652,0-3.261-1.995-3.874-2.494a25.661,25.661,0,0,1-6.6-8.017c-.115-.154-.23-.308-.422-.308a.463.463,0,0,0-.423.308c-1.956,4.565-5.524,7.6-9.821,9.859a7.352,7.352,0,0,1-1.534.652c-.806,0-2.263-2.379-2.263-2.839,0-.384.69-.652,1.5-1.036,5.563-2.608,9.207-6.6,10.089-12.813Z" transform="translate(0.008 0.284)" fill="#fff"/><path d="M66.456,159.494c-.307.038-.652.153-.652.537a.612.612,0,0,0,.115.345,42.517,42.517,0,0,0,11.969,12.852c.308.192.806.5.806.921,0,.767-1.687,2.571-2.532,2.571-.652,0-2.57-1.688-3.107-2.148A50.7,50.7,0,0,1,64.116,164.1a.385.385,0,0,0-.269-.153c-.191,0-.269.191-.269.345v10.972c0,1.88.077,3.759.077,5.639,0,1.228-.422,1.228-2.11,1.228-1.65,0-2.11,0-2.11-1.189,0-1.919.077-3.8.077-5.678V164.1c0-.153-.039-.346-.23-.346a.389.389,0,0,0-.269.153A38.814,38.814,0,0,1,47.927,175.99a3.087,3.087,0,0,1-1.3.576c-.69,0-2.339-1.842-2.339-2.571,0-.46.46-.767.806-1a37.919,37.919,0,0,0,12.046-12.622.916.916,0,0,0,.076-.345c0-.384-.307-.5-.652-.537H50.306c-1.535,0-3.031.077-4.565.077-.96,0-.883-.423-.883-1.881,0-1.5-.038-1.918.883-1.918,1.534,0,3.03.076,4.565.076h8.172c.728,0,1.036-.307,1.036-1.036v-3.375a19.525,19.525,0,0,0-.115-2.724,1.283,1.283,0,0,1-.039-.384c0-.46.308-.536.691-.536.5,0,2.8.229,3.414.307.308.038,1.036.038,1.036.537,0,.269-.23.384-.5.575-.383.308-.422.959-.422,2.148v3.453c0,.729.308,1.036,1.036,1.036h8.095c1.535,0,3.031-.076,4.566-.076.921,0,.882.422.882,1.918,0,1.458.039,1.881-.882,1.881-1.535,0-3.031-.077-4.566-.077Z" transform="translate(0.085 0.284)" fill="#fff"/><path d="M99.644,149.939c1.035.307,1.649.422,1.649.806,0,.229-.23.384-.384.5-.5.308-.613.5-.844,1.42-.038.23-.23,1.036-.23,1.189a.557.557,0,0,0,.537.575,3.009,3.009,0,0,0,.576-.115,30.421,30.421,0,0,0,4.527-1.265,1.828,1.828,0,0,1,.652-.192c.92,0,1.227,2.917,1.227,3.07,0,.728-.921.882-1.88,1.074-1.5.345-3.875.806-5.409,1.036-.883.153-1.036,1.112-1.036,1.534,0,.346.346.5.614.5.076,0,.191-.038.307-.038.767-.077,1.726-.192,2.494-.192,5.946,0,11.279,3.031,11.279,9.591,0,8.708-10.857,12.007-12.123,12.007-.844,0-1.764-2.34-1.764-3.069,0-.422.422-.46.844-.575,4.029-1.074,8.977-3.376,8.977-8.21,0-4.258-3.375-5.487-3.836-5.487-.575,0-.806.5-1.036.96a34.57,34.57,0,0,1-5.14,7.327,1,1,0,0,0-.384.767c0,.115.191,1.227.23,1.419v.192c0,.728-2.072,2.033-2.917,2.033a.691.691,0,0,1-.651-.537c-.077-.191-.154-.384-.423-.384a.94.94,0,0,0-.422.154A11.01,11.01,0,0,1,89.4,178.1a4.282,4.282,0,0,1-4.334-4.6c0-5.1,4.871-9.782,9.207-11.854.23-.115,1.113-.307,1.113-2.148a.6.6,0,0,0-.652-.652c-.153,0-.691.076-.845.076-1.42.115-2.838.308-4.258.308-1.688,0-1.918,0-1.918-1.8,0-1.919.229-2.033.921-2.033.652,0,1.3.038,1.995.038,1.3,0,2.608-.038,3.912-.153a1.481,1.481,0,0,0,1.036-.346,1.512,1.512,0,0,0,.384-1.036c.191-1.343.345-2.685.537-4.066.038-.346.191-.614.614-.614.269,0,2.109.614,2.532.729m-10.7,23.094c0,.729.346,1.151,1.074,1.151,1.343,0,3.568-1.344,4.6-2.149a1.388,1.388,0,0,0,.46-1.189c0-.345-.115-1.956-.115-3.145,0-.384.039-.767.039-1.113s-.077-.652-.461-.652c-.806,0-5.6,3.99-5.6,7.1M99.03,163.75c-.422.269-.384,1.036-.384,1.88v.461c0,.613.039,1.534.384,1.534.652,0,2.072-2.762,2.379-3.375a1.692,1.692,0,0,0,.23-.614c0-.268-.269-.346-.5-.346a5.471,5.471,0,0,0-2.11.461" transform="translate(0.163 0.287)" fill="#fff"/><path d="M134.77,148.447c.844,1.458,1.574,2.954,2.379,4.451a1.124,1.124,0,0,0,1.037.728c.727,0,3.453-1.611,4.18-2.071a2.278,2.278,0,0,1,1.037-.461c.766,0,2.455,2.3,2.455,2.993,0,.422-.652.728-1.15,1a29.554,29.554,0,0,1-3.531,1.65c-.5.191-1.265.345-1.265,1.036a2.961,2.961,0,0,0,.652,1.457,44.019,44.019,0,0,0,5.563,8.44,1.808,1.808,0,0,1,.613,1.074c0,.845-1.918,2.533-2.723,2.533-.421,0-1-.5-1.458-.807-1.88-1.3-5.793-3.222-9.092-3.222-1.995,0-4.1,1.189-4.1,3.415,0,3.951,5.871,4.757,8.825,4.757.881,0,1.648-.077,2.147-.077.767,0,.883.537.883,1.227a7.12,7.12,0,0,1-.384,2.341c-.192.5-.5.652-1.3.652a29.377,29.377,0,0,1-6.6-.883c-3.99-1-7.6-3.3-7.6-7.826,0-4.565,3.8-7.327,8.1-7.327a12.176,12.176,0,0,1,4.794,1.112,1.356,1.356,0,0,0,.423.115.386.386,0,0,0,.421-.346,1.537,1.537,0,0,0-.228-.575c-.846-1.3-1.458-2.34-2.226-3.721-.346-.614-.613-1.343-1.458-1.343a2.3,2.3,0,0,0-.5.115,53.389,53.389,0,0,1-9.091,1.458c-.845,0-1.036-.307-1.382-1.382a7.452,7.452,0,0,1-.46-2.033c0-.614.422-.652.921-.69a42.736,42.736,0,0,0,7.672-.844c.423-.115.922-.23.922-.767,0-.576-2.38-4.029-2.878-4.681a1.259,1.259,0,0,1-.269-.613c0-.767,3.185-1.573,3.721-1.573s.729.269.959.69" transform="translate(0.237 0.284)" fill="#fff"/><path d="M172.376,153.638c0,.422-.806,1.036-1.113,1.3a26.963,26.963,0,0,0-4.948,6.253,17.969,17.969,0,0,0-2.8,9.131c0,3.415,1.573,5.908,5.217,5.908a8.121,8.121,0,0,0,6.483-3.261c2.11-2.838,2.494-7.4,2.494-10.857a24.547,24.547,0,0,0-1.688-9.706,1.364,1.364,0,0,1-.115-.537c0-.845,2.8-1.343,3.53-1.343.921,0,.959.575,1.074,1.3A26.074,26.074,0,0,0,186.11,163c.269.307.691.767.691,1.189,0,.844-2.609,2.071-3.108,2.071-.652,0-1.343-1.534-1.611-2.071-.115-.308-.652-1.535-.959-1.535-.268,0-.268.307-.268.5,0,.614.076,1.189.076,1.764a21.374,21.374,0,0,1-1.8,8.9,11.394,11.394,0,0,1-10.282,6.291c-5.639,0-9.207-3.874-9.207-9.437,0-4.1,1.419-7.4,3.453-10.934a.956.956,0,0,0,.153-.346.256.256,0,0,0-.269-.229,7.334,7.334,0,0,0-1.265.46,8.839,8.839,0,0,1-1.765.614c-.422,0-.652-.5-.806-.806a10.484,10.484,0,0,1-1-3.108c0-.5.346-.537,1.151-.613a21.03,21.03,0,0,0,5.984-1.189,5.463,5.463,0,0,0,2.878-2.686c.23-.384.46-.92.959-.92,1,0,3.261,1.88,3.261,2.723" transform="translate(0.303 0.29)" fill="#fff"/><path d="M5.985,212.706c-.308,0-.729-.422-1-.614a47.781,47.781,0,0,0-4.22-3.107c-.46-.307-.767-.422-.767-.766,0-.576,1.382-2.494,2.034-2.494.5,0,2.8,1.649,3.337,2.071.5.384,2.685,1.88,2.685,2.456,0,.46-1.265,2.455-2.071,2.455M4.3,228.243a2.412,2.412,0,0,0-.461,1.075c0,.269.115.575.115.844a.468.468,0,0,1-.422.5,7.882,7.882,0,0,1-1.842-1.266c-.384-.307-1.649-1.3-1.649-1.649,0-.269.307-.614.46-.844a65.081,65.081,0,0,0,6.33-11.011c.115-.345.23-.575.5-.575.345,0,2.685,1.381,2.685,2.11,0,.883-4.948,9.514-5.716,10.818m3.3-23.977a4.632,4.632,0,0,1-1.535-1,36.058,36.058,0,0,0-3.606-2.57c-.384-.23-.69-.384-.69-.729,0-.384,1.381-2.494,2.11-2.494.575,0,2.339,1.382,2.877,1.8.614.422,2.072,1.5,2.609,1.918a.975.975,0,0,1,.384.652c0,.422-1.3,2.417-2.148,2.417m19.526,19.911a2.857,2.857,0,0,0-.422-.921,26.6,26.6,0,0,1-1.8-3.3c0-.728,2.532-1.535,3.031-1.535a.793.793,0,0,1,.652.384,32.515,32.515,0,0,1,2.263,3.683c.537,1.036,3.223,6.407,3.223,7.213s-2.494,1.687-3.108,1.687c-.537,0-.652-.345-1.074-1.381-.115-.307-.307-.767-.5-1.227a1.117,1.117,0,0,0-1.112-.807h-.269c-5.487.729-10.934,1.151-16.419,1.612-.192,0-.307.076-.5.5-.153.269-.229.5-.575.5-.5,0-.614-.422-.921-1.5a18.087,18.087,0,0,1-.652-2.57c0-.576.422-.576,1.42-.576a13.081,13.081,0,0,0,1.725-.076,1.442,1.442,0,0,0,1.42-.883c1.5-2.839,2.647-5.1,3.952-8.056a.646.646,0,0,0,.115-.384c0-.422-.346-.575-.729-.613H15.5c-1.5,0-2.992.076-4.488.076-1,0-.96-.384-.96-1.764,0-1.42-.038-1.8.96-1.8,1.5,0,2.992.077,4.488.077h3.376c.766,0,1.074-.308,1.074-1.074v-3.53c0-.767-.308-1.074-1.074-1.074h-2.57c-1.344,0-2.724.115-4.067.115-.845,0-.806-.5-.806-1.8,0-1.381-.077-1.88.806-1.88,1.112,0,2.647.077,4.067.077h2.57c.766,0,1.074-.308,1.074-1.075v-1.534a21.876,21.876,0,0,0-.115-2.839,1.312,1.312,0,0,1-.038-.383c0-.461.307-.537.69-.537.537,0,2.838.229,3.492.307.307.038.844.076.844.5,0,.27-.23.384-.5.576-.384.307-.422.844-.422,1.995v1.918c0,.767.307,1.075,1.074,1.075h3.146c1.419,0,2.992-.077,4.066-.077.845,0,.806.422.806,1.842,0,1.381.039,1.842-.766,1.842-1.382,0-2.724-.115-4.1-.115H24.975c-.767,0-1.074.307-1.074,1.074v3.53c0,.766.307,1.074,1.074,1.074h3.759c1.5,0,2.993-.077,4.489-.077,1,0,.959.422.959,1.8s.039,1.764-.959,1.764c-1.5,0-2.993-.076-4.489-.076h-6.79c-.038,0-.115.038-.115.076s.038.077.077.115c.345.153.882.384.882.729,0,.383-.5.422-.766.422-.23.038-.423.076-.537.307-1.228,2.379-2.456,4.8-3.8,7.136-.038.115-.115.191-.115.307,0,.384.307.5.614.5,2.762-.192,5.524-.422,8.286-.729.346-.038.652-.229.652-.613" transform="translate(0 0.379)" fill="#fff"/><path d="M57.892,206.147c.613,0,.921-.269.921-.883v-.5c0-.614-.269-.921-.921-.921H55.744c-1.112,0-2.225.076-3.376.076-.844,0-.844-.307-.844-1.649,0-1.266,0-1.65.806-1.65,1.151,0,2.3.077,3.415.077h1.995c.652,0,1-.23,1.036-.959,0-.576-.077-1.266-.115-1.842,0-.115-.039-.269-.039-.384,0-.461.346-.5.691-.5.844,0,2.417.115,3.3.153.345.039,1,.039,1,.5,0,.269-.23.346-.5.537-.422.346-.422.767-.46,1.458.038.767.345,1.036,1.074,1.036h2.148c.806,0,1.611-.077,2.456-.077,1.343,0,1.918.384,1.918,1.8,0,.883-.076,1.764-.038,2.647,0,.729.269,1.036,1,1.036.423,0,.845-.039,1.3-.039.96,0,.921.461.921,1.688,0,1.189.039,1.65-.921,1.65-.46,0-.882-.039-1.3-.039-.728.039-1,.346-1,1.075-.038.882.038,1.8.038,2.723,0,1.381-.537,1.764-1.88,1.764-.844,0-1.688-.038-2.494-.038h-2.3c-.652,0-.921.269-.921.921v.269c0,.652.269.921.921.921h2.877c1.42,0,2.839-.077,4.3-.077.883,0,.883.423.883,1.688,0,1.3,0,1.688-.921,1.688-1.42,0-2.839-.115-4.259-.115H63.57c-.652,0-.921.269-.921.921v.346c0,.651.269.921.921.921h4.642c1.381,0,2.8-.077,4.22-.077.959,0,.921.461.921,1.688s.038,1.688-.921,1.688c-1.42,0-2.839-.077-4.22-.077H63.723c-.69,0-1.036.268-1.036.959-.038,1.266.077,2.494.077,3.721,0,1.151-.422,1.189-1.995,1.189-1.688,0-2.072-.038-2.072-1.227,0-1.227.115-2.456.077-3.683,0-.69-.384-.959-1.036-.959H53.864c-1.42,0-2.839.077-4.258.077-.922,0-.922-.461-.922-1.688,0-1.266,0-1.688.922-1.688,1.419,0,2.838.077,4.258.077h4.028c.613,0,.921-.27.921-.921v-.346c0-.652-.308-.921-.921-.921H55.513c-1.42,0-2.838.115-4.258.115-.959,0-.921-.5-.921-1.688,0-1.227,0-1.688.921-1.688,1.42,0,2.838.077,4.258.077h2.379c.613,0,.921-.268.921-.921v-.269c0-.652-.308-.921-.921-.921H55.744c-1.112,0-2.225.077-3.376.077-.844,0-.844-.346-.844-1.688s0-1.726.806-1.726c1.151,0,2.3.076,3.415.076h2.148c.613,0,.921-.269.921-.882v-.5c0-.652-.269-.921-.921-.921H55.82c-1.419,0-2.838.077-4.258.077-.844,0-.921-.346-.921-1.458a.491.491,0,0,1,.038-.23.254.254,0,0,0-.269-.191h-.076c-.5.115-.652.153-1.112,1.035-.614,1.113-1.612,2.686-2.3,3.76-.076.076-.076.115-.076.23,0,.191.153.269.307.307.307.038.921.038.921.575,0,.269-.192.346-.5.5-.384.23-.422.69-.422,1.726v9.974c0,1.535.077,3.07.077,4.566,0,1.151-.384,1.189-1.957,1.189s-1.995-.038-1.995-1.189c0-1.5.076-3.031.076-4.566v-7.518c0-.23-.076-.461-.345-.461a.4.4,0,0,0-.308.153c-.345.384-1.227,1.381-1.726,1.381-.613,0-2.339-1.687-2.339-2.339,0-.346.345-.652.575-.883a40.734,40.734,0,0,0,7.174-9.936c.153-.345.269-.651.652-.651a23.88,23.88,0,0,1,3.3,1.265c.076,0,.115.038.153.038a.287.287,0,0,0,.269-.23c.153-.345.5-.384.845-.384,1.419,0,2.8.077,4.219.077Zm-9.015-7.059c-.461.076-.537.153-.883.728-.766,1.3-5.525,8.325-6.752,8.325-.575,0-2.339-1.458-2.339-2.148,0-.384.345-.652.652-.959a35.691,35.691,0,0,0,5.562-7.519c.115-.23.23-.5.538-.5a15.384,15.384,0,0,1,2.57.845c.652.229,1.227.383,1.227.766,0,.308-.345.423-.575.461m16.879,7.059a.826.826,0,0,0,.883-.883v-.5a.857.857,0,0,0-.883-.921H63.57a.887.887,0,0,0-.921.921v.5a.856.856,0,0,0,.921.883Zm-3.107,4.6a.856.856,0,0,0,.921.882h2.186a.826.826,0,0,0,.883-.882v-.5a.857.857,0,0,0-.883-.921H63.57a.887.887,0,0,0-.921.921Z" transform="translate(0.074 0.379)" fill="#fff"/><path d="M108.149,218c.845-.038,1.65-.038,2.456-.038s.767.46.767,1.266c0,.883,0,1.3-.767,1.3-.806,0-1.611-.039-2.417-.039a.9.9,0,0,0-1.036,1.036v.5c0,1,.115,1.995.115,2.723,0,.921-.614.883-2.225.883-1.151,0-1.688,0-1.88-.46-.153-.269-.269-.461-.614-.461H97.56c-.728,0-1,.269-1.035,1,.038.383.038,1.381.038,1.764,0,3.721-3.952,3.8-6.752,3.8-1.074,0-2.34.192-2.34-2.838,0-.537.154-.882.729-.882.5,0,1.227.153,2.148.153,1.919,0,2.072-.5,2.148-1.995-.076-.729-.345-1-1.074-1H85.784c-1.535,0-3.108.077-4.68.077-.883,0-.922-.308-.922-1.382s.039-1.343.922-1.343c1.572,0,3.145.038,4.68.038h5.984c.5,0,.728-.191.728-.69v-.23a.634.634,0,0,0-.728-.728H83.137c-1.611,0-3.261.077-4.91.077-.767,0-.729-.5-.729-1.3s-.038-1.266.767-1.266c1.611,0,3.261.038,4.872.038h8.632c.5,0,.728-.191.728-.69v-.191a.634.634,0,0,0-.728-.729h-7.9c-.959,0-1.918.077-2.876.077-.691,0-.691-.346-.691-1.381,0-1,0-1.344.652-1.344.959,0,1.957.077,2.916.077h7.9a.634.634,0,0,0,.728-.729V212.9a.634.634,0,0,0-.728-.728H88.584c-1.151,0-2.3.038-3.453.038-.883,0-2.187-.077-2.187-1.228,0-.384.077-.728.077-1.381v-2.072c0-.651-.077-1-.077-1.381,0-1.189,1.3-1.266,2.187-1.266,1.151,0,2.3.077,3.453.077h3.184a.634.634,0,0,0,.728-.729V204c0-.537-.229-.729-.728-.729H83.942c-1.573,0-3.146.077-4.757.077-.844,0-.844-.422-.844-1.5s0-1.458.844-1.458c1.573,0,3.184.077,4.757.077h7.48c.729,0,1-.269,1.074-1.036-.038-.537-.076-1.074-.153-1.611,0-.115-.038-.269-.038-.346,0-.46.307-.537.69-.537.5,0,2.724.23,3.337.308.384.038,1.036.038,1.036.5,0,.23-.191.346-.46.538a1.194,1.194,0,0,0-.384,1.112c0,.767.307,1.074,1.035,1.074H105c1.611,0,3.184-.077,4.757-.077.882,0,.844.423.844,1.458s.038,1.5-.844,1.5c-1.573,0-3.184-.077-4.757-.077H97.216c-.5,0-.728.192-.728.729v.229c0,.5.191.729.728.729H100.4c1.151,0,2.3-.077,3.453-.077.883,0,2.187.077,2.187,1.266,0,.384-.077.729-.077,1.381V209.6c0,.652.077,1,.077,1.381,0,1.151-1.266,1.228-2.149,1.228-1.15,0-2.3-.038-3.491-.038H97.216c-.5,0-.728.191-.728.728v.191c0,.5.191.729.728.729h5.179c1.036,0,2.072-.077,3.107-.077,1.113,0,1.727.346,1.727,1.535,0,.575-.077,1.151-.077,1.688.038.69.346,1,1,1.035M87.7,207.527a.887.887,0,0,0-.921.921v.23a.887.887,0,0,0,.921.921h3.875a.886.886,0,0,0,.92-.921v-.23a.886.886,0,0,0-.92-.921Zm8.786,1.151a.886.886,0,0,0,.92.921h3.875a.887.887,0,0,0,.921-.921v-.23a.887.887,0,0,0-.921-.921H97.407a.886.886,0,0,0-.92.921Zm0,8.594a.684.684,0,0,0,.728.728h5.217a.684.684,0,0,0,.729-.728v-.153a.757.757,0,0,0-.729-.729H97.216a.755.755,0,0,0-.728.729Zm.728,3.184a.754.754,0,0,0-.728.728v.192a.684.684,0,0,0,.728.728h5.217a.685.685,0,0,0,.729-.728v-.192a.755.755,0,0,0-.729-.728Z" transform="translate(0.149 0.379)" fill="#fff"/><path d="M130.1,216.62c-.268.383-.5.844-.883.844-.575,0-2.263-.806-2.263-1.458,0-.269.269-.537.461-.767a6.894,6.894,0,0,0,1.265-2.148c0-.422-.537-.384-.806-.384h-.5c-.614,0-.883.269-.883.921v11.432c0,.767.038,1.535.038,2.3,0,3.375-2.685,3.721-5.447,3.721-.767,0-1.918.153-1.918-2.8,0-.5.115-.883.69-.883.422,0,.959.077,1.5.077,1.8,0,1.726-.614,1.726-2.3v-6.714c0-.153-.038-.269-.192-.269-.114,0-.153.039-.229.154a27.681,27.681,0,0,1-3.8,6.368c-.191.229-.69.921-1.036.921-.651,0-2.186-1.612-2.186-2.225,0-.268.23-.46.384-.614a32.145,32.145,0,0,0,5.716-9.131.909.909,0,0,0,.077-.307c0-.5-.346-.614-.729-.652h-.959c-1.074,0-2.11.077-3.146.077-.767,0-.806-.384-.806-1.65,0-1.3.038-1.649.806-1.649,1.036,0,2.072.038,3.146.038H123.5c.269,0,.537-.115.537-.422a.571.571,0,0,0-.153-.346,27.828,27.828,0,0,0-3.53-3.529c-.191-.192-.651-.538-.651-.883,0-.537,1.649-1.957,2.339-1.957a2.127,2.127,0,0,1,1.3.844c.23.23.729.652,1.036.652a1.248,1.248,0,0,0,.728-.307c.346-.307,1.957-1.688,1.957-2.072,0-.345-.575-.307-.806-.307h-4.833c-1.19,0-2.571.077-3.376.077-.844,0-.844-.346-.844-1.65,0-1.265,0-1.649.844-1.649,1.113,0,2.263.076,3.376.076h6.444c.69,0,1.382-.038,2.072-.038a1.572,1.572,0,0,1,1.5.729,3.245,3.245,0,0,1,.96,1.726c0,1.035-4.3,4.489-5.218,5.217a.907.907,0,0,0-.422.729,1.09,1.09,0,0,0,.269.652c.23.269.921,1,.921,1.3a1.1,1.1,0,0,1-.422.729.21.21,0,0,0-.115.191c0,.192.153.23.307.23.346,0,2.11-.038,2.34-.038a2.981,2.981,0,0,1,2.494,1.764c.038.191.153.5.422.5h.153a25.873,25.873,0,0,0,4.373-2.187.8.8,0,0,0,.46-.69.9.9,0,0,0-.269-.652,16.2,16.2,0,0,1-1.343-1.842.762.762,0,0,0-.614-.384.753.753,0,0,0-.575.269c-.5.614-1.42,1.726-1.995,1.726-.652,0-2.263-1.5-2.263-2.071,0-.23.191-.384.346-.537a23.445,23.445,0,0,0,5.332-8.095c.076-.23.23-.576.537-.576a10.36,10.36,0,0,1,1.343.384c.959.269,2.417.652,2.417,1.113,0,.307-.46.422-.728.46-.346.077-.461.268-.614.652a.7.7,0,0,0-.076.384c0,.422.345.537.69.575h4.988c1.381,0,2.723-.076,4.066-.076.845,0,.845.307.845,1.649s-.039,1.649-.845,1.649-2.033-.038-2.878-.076c-.115.038-.153.076-.153.191,0,.077.038.115.115.154.537.229,1.227.46,1.227.844,0,.269-.307.346-.537.384-.537.153-.537.153-.844.652a24.183,24.183,0,0,1-1.919,2.532.988.988,0,0,0-.268.613.842.842,0,0,0,.423.691,24.464,24.464,0,0,0,4.833,2.339c.5.192,1,.346,1,.729,0,.728-1.113,2.916-1.919,2.916a3.888,3.888,0,0,1-1.074-.346,26.985,26.985,0,0,1-5.6-3.184,1.312,1.312,0,0,0-.729-.269,1.207,1.207,0,0,0-.806.269c-1.074.767-5.486,3.453-6.675,3.453-.614,0-.959-.806-1.189-1.265-.077-.153-.153-.269-.346-.269a.367.367,0,0,0-.345.229c-.077.192-1.266,2.263-1.42,2.533m11.01,3.874a1.186,1.186,0,0,0-1.343.921,17.308,17.308,0,0,1-4.718,7.442c-.614.575-2.225,2.11-3.031,2.11-.845,0-2.456-1.765-2.456-2.532,0-.346.346-.5.69-.69a13.578,13.578,0,0,0,5.716-6.292,1.132,1.132,0,0,0,.077-.346c0-.46-.384-.575-.767-.613-.345,0-2.494.076-2.838.076-.845,0-.806-.422-.806-1.687,0-1.42-.039-1.726.882-1.726,1.151,0,2.3.115,3.415.076a.99.99,0,0,0,1.151-1c0-.346.038-.652.038-.883,0-1.074,0-1.343.575-1.343a32,32,0,0,1,3.223.384c.307.038.766.115.766.422,0,.269-.384.422-.575.537-.269.153-.307.269-.346.575v.269c0,.691.269,1.036.96,1.036h.537c1.5,0,2.685-.076,3.606-.076,1.8,0,2.532.269,2.532,1.88a46.34,46.34,0,0,1-1.343,9.207c-.845,2.8-2.954,2.955-5.525,2.955-1.572,0-2.225.076-2.225-2.647,0-.537,0-1.113.653-1.113a3.045,3.045,0,0,1,.575.039c.422.038.844.076,1.3.076,1.112,0,1.572-.153,1.88-1.3a27.14,27.14,0,0,0,.728-4.91c0-.921-.5-.844-1.918-.844Zm1.957-16.535c0-.384-.346-.5-.69-.537h-2.916c-.346.038-.652.115-.652.537a.612.612,0,0,0,.115.345,10.147,10.147,0,0,0,1.343,1.765.89.89,0,0,0,.728.346.87.87,0,0,0,.69-.346,11.055,11.055,0,0,0,1.266-1.726.737.737,0,0,0,.115-.384" transform="translate(0.222 0.378)" fill="#fff"/><path d="M158.57,229.586c-.46,1.112-.652,1.3-1.112,1.3-.5,0-3.108-.959-3.108-1.726a2.4,2.4,0,0,1,.269-.729c2.072-4.45,2.571-9.668,2.571-14.5v-4.182c0-.959-.039-1.918-.039-2.877,0-1.382.767-1.65,2-1.65.92,0,1.88.077,2.838.077h3.3c.959,0,1.88-.077,2.838-.077,1.228,0,1.995.268,1.995,1.65,0,.959-.038,1.918-.038,2.877v4.566c0,1.189.077,2.339.077,3.491,0,.921-.422.921-1.957.921-1.227,0-1.5,0-1.765-.269-.229-.268-.5-.613-.844-.652h-3.644c-.729,0-1.036.308-1.113,1.036a34.435,34.435,0,0,1-2.263,10.742m1.65-27.507c-1.227,0-2.494.077-3.721.077-.961,0-.961-.575-.961-1.957,0-1.343,0-1.957.961-1.957,1.227,0,2.494.115,3.721.115h6.33c1.227,0,2.493-.115,3.72-.115,1,0,.96.652.96,1.957,0,1.343.038,1.957-.96,1.957-1.227,0-2.493-.077-3.72-.077Zm6.138,7.98c0-.767-.307-1.075-1.074-1.075h-3.261c-.728,0-1.036.308-1.036,1.075v3.184c0,.766.308,1.074,1.036,1.074h3.261c.767,0,1.074-.308,1.074-1.074Zm11.125-2.225c0,.766.307,1.074,1.074,1.074h4.948c1.5,0,3.031-.077,4.566-.077,1,0,.921.384.921,1.919,0,1.5.038,1.88-.921,1.88-.537,0-1.42-.038-1.957-.076-.767.076-1.036.307-1.036,1.035v11.279c0,1.688.115,3.376.115,5.065,0,1.265-.422,1.265-2.034,1.265s-2.071,0-2.071-1.265c0-1.688.115-3.376.115-5.065V213.588c0-.728-.307-1.074-1.074-1.074h-1.573c-.729,0-1,.269-1.112,1.036a32.562,32.562,0,0,1-2.993,13,15.194,15.194,0,0,1-2.3,3.606,1.15,1.15,0,0,1-.883.423c-.806,0-2.954-1-2.954-1.726,0-.268.307-.537.46-.729a20.125,20.125,0,0,0,2.916-4.642c1.535-3.568,1.88-8.286,1.88-12.123v-9.821c0-1.726,1.5-1.726,2.493-1.8,2.572-.23,7.29-.96,9.553-2.148a.936.936,0,0,1,.461-.154c.613,0,1.458,1.189,1.842,1.688a4.895,4.895,0,0,1,1.035,1.649.512.512,0,0,1-.537.461.919.919,0,0,1-.537-.192,1.612,1.612,0,0,0-.575-.153,4.335,4.335,0,0,0-.959.23,47.005,47.005,0,0,1-7.481,1.573c-1.189.153-1.381.191-1.381,1.535Z" transform="translate(0.296 0.38)" fill="#fff"/><rect width="1.146" height="10.696" transform="translate(1.711 254.248)" fill="#fff"/><path d="M6.967,253.76H8.036v4.431a2.658,2.658,0,0,1,.627-.61,3.126,3.126,0,0,1,1.895-.612,3.828,3.828,0,0,1,0,7.641A3.126,3.126,0,0,1,8.663,264a2.658,2.658,0,0,1-.627-.61v1.069H6.967Zm6.112,7.029a2.625,2.625,0,0,0-2.521-2.826,2.845,2.845,0,0,0,0,5.653,2.625,2.625,0,0,0,2.521-2.826" transform="translate(0.013 0.488)" fill="#fff"/><path d="M21.691,263.456a2.641,2.641,0,0,1-.581.581,3.021,3.021,0,0,1-1.787.565,2.418,2.418,0,0,1-2.6-2.139c0-1.222.748-1.987,2.139-2.216l2.826-.458a1.748,1.748,0,0,0-1.834-1.834,2.521,2.521,0,0,0-1.513.535,4.617,4.617,0,0,0-.55.534l-.687-.687a3.415,3.415,0,0,1,.717-.687,3.323,3.323,0,0,1,2.033-.687,2.793,2.793,0,0,1,2.9,2.826v4.66h-1.07Zm0-2.75-2.521.459c-.917.167-1.376.611-1.376,1.3,0,.611.535,1.146,1.528,1.146a2.291,2.291,0,0,0,2.369-2.445Z" transform="translate(0.032 0.494)" fill="#fff"/><path d="M26.406,257.115h1.07v.993a3.532,3.532,0,0,1,.6-.565,3.081,3.081,0,0,1,1.849-.581h.306v1.07h-.459a2.27,2.27,0,0,0-2.291,2.369v4.049h-1.07Z" transform="translate(0.051 0.494)" fill="#fff"/><path d="M37.318,263.456a2.641,2.641,0,0,1-.581.581,3.021,3.021,0,0,1-1.787.565,2.418,2.418,0,0,1-2.6-2.139c0-1.222.748-1.987,2.139-2.216l2.826-.458a1.748,1.748,0,0,0-1.834-1.834,2.521,2.521,0,0,0-1.513.535,4.694,4.694,0,0,0-.55.534l-.687-.687a3.415,3.415,0,0,1,.717-.687,3.325,3.325,0,0,1,2.033-.687,2.793,2.793,0,0,1,2.9,2.826v4.66h-1.07Zm0-2.75-2.521.459c-.917.167-1.376.611-1.376,1.3,0,.611.535,1.146,1.528,1.146a2.291,2.291,0,0,0,2.369-2.445Z" transform="translate(0.062 0.494)" fill="#fff"/><path d="M42.11,253.76h1.07v7.258l3.667-3.9h1.3l-2.827,2.98,3.133,4.354H47.229l-2.6-3.59-1.451,1.527v2.063H42.11Z" transform="translate(0.081 0.488)" fill="#fff"/><path d="M51.564,253.989a.687.687,0,1,1-.687.687.685.685,0,0,1,.687-.687m-.535,3.132H52.1v7.334h-1.07Z" transform="translate(0.098 0.489)" fill="#fff"/><path d="M63.234,253.76H64.3l4.43,10.7H67.514l-1.223-2.98H61.249l-1.222,2.98H58.8Zm2.6,6.647-2.062-5.043-2.064,5.043Z" transform="translate(0.113 0.488)" fill="#fff"/><path d="M71.536,262.54a2.7,2.7,0,0,0,.489.534,2.114,2.114,0,0,0,1.422.535c1.085,0,1.6-.535,1.6-1.222,0-1.68-3.973-.84-3.973-3.361a2.261,2.261,0,0,1,2.445-2.063,3.334,3.334,0,0,1,1.757.5,2.765,2.765,0,0,1,.611.489l-.764.763a1.87,1.87,0,0,0-.4-.382,2.177,2.177,0,0,0-1.207-.382,1.238,1.238,0,0,0-1.375,1.069c0,1.6,3.973.764,3.973,3.361,0,1.222-1.009,2.216-2.674,2.216a3.412,3.412,0,0,1-2.033-.642,2.4,2.4,0,0,1-.641-.657Z" transform="translate(0.136 0.494)" fill="#fff"/><path d="M83.666,263.456a2.641,2.641,0,0,1-.581.581,3.021,3.021,0,0,1-1.787.565,2.418,2.418,0,0,1-2.6-2.139c0-1.222.748-1.987,2.139-2.216l2.826-.458a1.748,1.748,0,0,0-1.834-1.834,2.521,2.521,0,0,0-1.513.535,4.617,4.617,0,0,0-.55.534l-.687-.687a3.415,3.415,0,0,1,.717-.687,3.323,3.323,0,0,1,2.033-.687,2.793,2.793,0,0,1,2.9,2.826v4.66h-1.07Zm0-2.75-2.521.459c-.917.167-1.376.611-1.376,1.3,0,.611.535,1.146,1.528,1.146a2.291,2.291,0,0,0,2.369-2.445Z" transform="translate(0.151 0.494)" fill="#fff"/><path d="M88.458,253.76h1.07v4.432a2.719,2.719,0,0,1,.581-.611,2.967,2.967,0,0,1,4.767,2.521v4.354h-1.07V260.1a1.961,1.961,0,0,0-1.987-2.139,2.282,2.282,0,0,0-2.291,2.445v4.049h-1.07Z" transform="translate(0.17 0.488)" fill="#fff"/><path d="M99.056,253.989a.687.687,0,1,1-.687.687.685.685,0,0,1,.687-.687m-.536,3.132h1.07v7.334H98.52Z" transform="translate(0.189 0.489)" fill="#fff"/><path d="M108.05,253.76H109.2v9.626h5.5v1.069H108.05Z" transform="translate(0.207 0.488)" fill="#fff"/><path d="M121.858,263.456a2.641,2.641,0,0,1-.581.581,3.021,3.021,0,0,1-1.787.565,2.418,2.418,0,0,1-2.6-2.139c0-1.222.748-1.987,2.139-2.216l2.826-.458a1.748,1.748,0,0,0-1.834-1.834,2.521,2.521,0,0,0-1.513.535,4.617,4.617,0,0,0-.55.534l-.687-.687a3.416,3.416,0,0,1,.717-.687,3.323,3.323,0,0,1,2.033-.687,2.793,2.793,0,0,1,2.9,2.826v4.66h-1.07Zm0-2.75-2.521.459c-.917.167-1.376.611-1.376,1.3,0,.611.535,1.146,1.528,1.146a2.291,2.291,0,0,0,2.369-2.445Z" transform="translate(0.224 0.494)" fill="#fff"/><path d="M125.431,257.115h1.145l1.911,5.654,1.834-5.654h.917l1.834,5.654,1.91-5.654h1.146l-2.521,7.334h-.994l-1.833-5.577-1.833,5.577h-.993Z" transform="translate(0.241 0.495)" fill="#fff"/><path d="M148.083,253.608a5.5,5.5,0,1,1-5.5,5.5,5.479,5.479,0,0,1,5.5-5.5m4.355,5.5a4.355,4.355,0,1,0-4.355,4.432,4.324,4.324,0,0,0,4.355-4.432" transform="translate(0.273 0.488)" fill="#fff"/><path d="M157.3,258.116h-1.146v-.994H157.3v-1.069a1.885,1.885,0,0,1,1.987-2.139,2.614,2.614,0,0,1,.764.121c.106.046.213.077.3.107v.994l-.291-.107a2.3,2.3,0,0,0-.7-.122c-.611,0-.993.367-.993,1.146v1.069h3.285v-1.376a1.884,1.884,0,0,1,1.986-2.138,2.571,2.571,0,0,1,.763.122c.108.045.214.076.307.106v.994l-.291-.107a2.322,2.322,0,0,0-.7-.122c-.61,0-.993.367-.993,1.145v1.376h4.354v7.334h-1.069v-6.34h-3.285v6.34h-1.069v-6.34h-3.285v6.34H157.3Zm9.245-4.126a.687.687,0,1,1-.687.687.685.685,0,0,1,.687-.687" transform="translate(0.299 0.488)" fill="#fff"/><path d="M176.9,263.075a4.268,4.268,0,0,1-.811.764,3.819,3.819,0,0,1-2.245.763,3.823,3.823,0,0,1,0-7.64,3.7,3.7,0,0,1,2.2.733,4.939,4.939,0,0,1,.779.718l-.764.764a3.636,3.636,0,0,0-.565-.611,2.583,2.583,0,0,0-1.65-.611,2.837,2.837,0,0,0,0,5.654,2.826,2.826,0,0,0,1.7-.611,3.28,3.28,0,0,0,.6-.611Z" transform="translate(0.326 0.494)" fill="#fff"/><path d="M185.822,263.074a3.67,3.67,0,0,1-.779.764,3.851,3.851,0,0,1-2.277.764,3.826,3.826,0,0,1-.076-7.641,3.487,3.487,0,0,1,3.514,3.667,2.208,2.208,0,0,1-.046.4l-.03.153-5.957-.016a2.641,2.641,0,0,0,2.6,2.445,2.874,2.874,0,0,0,1.757-.611,3.328,3.328,0,0,0,.611-.611Zm-.688-2.826a2.5,2.5,0,0,0-2.445-2.291,2.621,2.621,0,0,0-2.52,2.291Z" transform="translate(0.343 0.494)" fill="#fff"/></g></g></svg>