<svg xmlns="http://www.w3.org/2000/svg" xmlns:xlink="http://www.w3.org/1999/xlink" width="348.418" height="67.339" viewBox="0 0 348.418 67.339"><defs><style>.a{fill:none;}.b,.d{fill:#ef8c37;}.b{font-size:26px;}.b,.e{font-family:HiraginoSans-W3, Hiragino Sans;}.c{fill:#aa7f54;font-size:11px;font-family:TTNorms-Regular, TT Norms;letter-spacing:0.06em;}.d{font-size:10px;font-family:Helvetica;}.f{clip-path:url(#a);}.g{fill:url(#b);}.h{clip-path:url(#c);}.i{fill:url(#d);}.j{clip-path:url(#e);}.k{fill:url(#f);}</style><clipPath id="a"><path class="a" d="M10.052,86.079a1.1,1.1,0,0,0,1.037,1.542h4.02a1.14,1.14,0,0,0,1.037-.645l3.7-7.924a26.468,26.468,0,0,1-4.558-4.184Z" transform="translate(-9.951 -74.868)"/></clipPath><linearGradient id="b" x1="-0.639" y1="1.147" x2="-0.573" y2="1.147" gradientUnits="objectBoundingBox"><stop offset="0" stop-color="#e37a31"/><stop offset="1" stop-color="#ff943b"/></linearGradient><clipPath id="c"><path class="a" d="M38.3,13.146,21.249,49.638a1.053,1.053,0,0,0,.108,1.085,22.253,22.253,0,0,0,2.908,3.141,1.07,1.07,0,0,0,1.682-.342l6.7-14.329,6.584-14.386,2.5,5.521,6.4,14.727L49.3,47.711h-.013l8.25,18.968a1.139,1.139,0,0,0,1.049.672h4.47A1.118,1.118,0,0,0,64.2,66.266v-.018a1.058,1.058,0,0,0-.1-.425L40.384,13.16a1.156,1.156,0,0,0-2.08-.015" transform="translate(-21.147 -12.501)"/></clipPath><linearGradient id="d" x1="-0.33" y1="1.034" x2="-0.314" y2="1.034" xlink:href="#b"/><clipPath id="e"><path class="a" d="M32.251,0A32.584,32.584,0,1,0,44.164,63.047a1.069,1.069,0,0,0,.607-1.409l-1.23-2.962a1.065,1.065,0,0,0-1.359-.587A27.253,27.253,0,1,1,44.794,8.225a.8.8,0,0,0,1.07-.36L47.53,4.514a.805.805,0,0,0-.366-1.075A32.45,32.45,0,0,0,32.587,0h-.335" transform="translate(0 -0.001)"/></clipPath><linearGradient id="f" x1="0.005" y1="1" x2="0.02" y2="1" xlink:href="#b"/></defs><g transform="translate(-86.582 -32.661)"><text class="b" transform="translate(164 77.662)"><tspan x="0" y="0">茨木あさひ法律事務所</tspan></text><text class="c" transform="translate(165.932 98)"><tspan x="0" y="0">Ibaraki Asahi Law Office</tspan></text><text class="d" transform="translate(164 42.662)"><tspan x="0" y="0">JR</tspan><tspan class="e" y="0">茨木駅徒歩</tspan><tspan y="0">2</tspan><tspan class="e" y="0">分</tspan><tspan y="0"> </tspan><tspan class="e" y="0">遺産相続・交通事故・離婚問題の法律相談</tspan></text><g transform="translate(86.582 32.66)"><g transform="translate(6.717 50.535)"><g class="f"><rect class="g" width="10.135" height="12.752" transform="translate(-0.237 0)"/></g></g><g transform="translate(14.274 8.438)"><g class="h"><rect class="i" width="43.114" height="54.849" transform="translate(-0.064 0)"/></g></g><g transform="translate(0 0.001)"><g class="j"><rect class="k" width="47.991" height="65.167" transform="translate(-0.264 0)"/></g></g></g></g></svg>