<svg xmlns="http://www.w3.org/2000/svg" width="72.657" height="89.314" viewBox="0 0 72.657 89.314">
  <g id="グループ_404847" data-name="グループ 404847" transform="translate(0 1)">
    <path id="パス_12893" data-name="パス 12893" d="M17.666,8.439H14.814L6.448-8.816,3.345,8.439H.494l3.886-21.7H7.231l8.4,17.224L18.7-13.262h2.851ZM33.02-8.878a8.006,8.006,0,0,1,3.745.824,5.728,5.728,0,0,1,2.413,2.3,6.763,6.763,0,0,1,.83,3.373,9.818,9.818,0,0,1-.157,1.586A10.854,10.854,0,0,1,39.444.884H25.719q-.063.622-.063.9a4.316,4.316,0,0,0,1.3,3.342,4.822,4.822,0,0,0,3.4,1.2A6.079,6.079,0,0,0,33.6,5.47a5.588,5.588,0,0,0,2.115-2.285h3.071a9.429,9.429,0,0,1-3.463,4,9.6,9.6,0,0,1-5.405,1.539,7.243,7.243,0,0,1-5.186-1.85,6.616,6.616,0,0,1-1.958-5.052,10.722,10.722,0,0,1,.188-1.928,11.085,11.085,0,0,1,1.911-4.633,9.848,9.848,0,0,1,3.557-3.062A10,10,0,0,1,33.02-8.878Zm3.948,7.71a7.732,7.732,0,0,0,.094-1.15A3.834,3.834,0,0,0,35.793-5.4a4.9,4.9,0,0,0-3.306-1.088,6.253,6.253,0,0,0-3.98,1.415,6.975,6.975,0,0,0-2.413,3.9ZM67.864-8.6l-8.4,17.038H56.521L54.829-5.116,48.249,8.439H45.3L42.953-8.6h2.914l1.41,14.3L54.046-8.6h2.945L58.621,5.61,65.044-8.6Z" transform="translate(-0.494 45.762)" fill="#ef8c37"/>
    <path id="線_184" data-name="線 184" d="M49,22.829a1,1,0,0,1-.406-.087L-.407.913A1,1,0,0,1-.913-.407,1,1,0,0,1,.407-.913l49,21.828A1,1,0,0,1,49,22.829Z" transform="translate(22.656)" fill="#ef8c37"/>
    <path id="線_185" data-name="線 185" d="M0,19.852a1,1,0,0,1-.934-.641,1,1,0,0,1,.574-1.292l49-18.852a1,1,0,0,1,1.292.574A1,1,0,0,1,49.359.933l-49,18.852A1,1,0,0,1,0,19.852Z" transform="translate(22.656 68.462)" fill="#ef8c37"/>
  </g>
</svg>
